G04*
G04 #@! TF.GenerationSoftware,Altium Limited,Altium Designer,22.9.1 (49)*
G04*
G04 Layer_Physical_Order=1*
G04 Layer_Color=255*
%FSLAX25Y25*%
%MOIN*%
G70*
G04*
G04 #@! TF.SameCoordinates,DEE7DE5E-5230-4543-89B2-9CAB29215946*
G04*
G04*
G04 #@! TF.FilePolarity,Positive*
G04*
G01*
G75*
%ADD12C,0.01000*%
%ADD13R,0.04500X0.08000*%
%ADD15R,0.03937X0.07087*%
%ADD16R,0.07032X0.05176*%
%ADD18R,0.06528X0.04156*%
%ADD19R,0.06544X0.04166*%
%ADD25R,0.05906X0.04724*%
%ADD26R,0.06102X0.03543*%
%ADD27C,0.06000*%
%ADD28C,0.13400*%
%ADD29C,0.11337*%
%ADD30C,0.05000*%
G36*
X300000Y210043D02*
X299579D01*
Y206000D01*
Y201957D01*
X300000D01*
Y200000D01*
X294000D01*
X292000Y202000D01*
X282041D01*
X281883Y202383D01*
X281500Y202541D01*
X270000D01*
Y216000D01*
X300000D01*
Y210043D01*
D02*
G37*
G36*
X281500Y183500D02*
X266000D01*
Y175500D01*
X112500D01*
Y199816D01*
X113257D01*
X114741Y200111D01*
X116140Y200690D01*
X117398Y201531D01*
X117867Y202000D01*
X281500D01*
Y183500D01*
D02*
G37*
G36*
X266000Y164000D02*
X265250D01*
Y159500D01*
Y155000D01*
X266000D01*
Y152000D01*
X234000D01*
Y174000D01*
X266000D01*
Y164000D01*
D02*
G37*
G36*
X290000Y142000D02*
X286953D01*
Y142315D01*
X283500D01*
X280047D01*
Y142000D01*
X274000D01*
Y155000D01*
X274750D01*
Y159500D01*
Y164000D01*
X274000D01*
Y166000D01*
X270000Y170000D01*
Y182500D01*
X290000D01*
Y142000D01*
D02*
G37*
G36*
X348000Y200000D02*
X324000D01*
Y140000D01*
X316953D01*
Y142315D01*
X313500D01*
X310047D01*
Y140000D01*
X308000D01*
Y200000D01*
Y201957D01*
X308421D01*
Y206000D01*
Y210043D01*
X308000D01*
Y216000D01*
X348000D01*
Y200000D01*
D02*
G37*
G36*
X134000Y144020D02*
X123505D01*
X123115Y143942D01*
X122784Y143721D01*
X118646Y139583D01*
X117500D01*
Y136995D01*
X121016D01*
Y139069D01*
X123927Y141980D01*
X134000D01*
Y134000D01*
X121016D01*
Y135995D01*
X117000D01*
X112984D01*
Y134000D01*
X108000D01*
Y174000D01*
X134000D01*
Y144020D01*
D02*
G37*
G36*
X128000Y104000D02*
X106000D01*
Y128000D01*
X112984D01*
Y126005D01*
X117000D01*
X121016D01*
Y128000D01*
X128000D01*
Y104000D01*
D02*
G37*
%LPC*%
G36*
X276500Y211490D02*
Y208500D01*
X279489D01*
X279261Y209351D01*
X278801Y210149D01*
X278149Y210801D01*
X277351Y211262D01*
X276500Y211490D01*
D02*
G37*
G36*
X275500D02*
X274649Y211262D01*
X273851Y210801D01*
X273199Y210149D01*
X272739Y209351D01*
X272511Y208500D01*
X275500D01*
Y211490D01*
D02*
G37*
G36*
X298579Y210043D02*
X296610D01*
Y206500D01*
X298579D01*
Y210043D01*
D02*
G37*
G36*
X279489Y207500D02*
X276500D01*
Y204510D01*
X277351Y204738D01*
X278149Y205199D01*
X278801Y205851D01*
X279261Y206649D01*
X279489Y207500D01*
D02*
G37*
G36*
X275500D02*
X272511D01*
X272739Y206649D01*
X273199Y205851D01*
X273851Y205199D01*
X274649Y204738D01*
X275500Y204510D01*
Y207500D01*
D02*
G37*
G36*
X298579Y205500D02*
X296610D01*
Y201957D01*
X298579D01*
Y205500D01*
D02*
G37*
G36*
X276500Y201489D02*
Y198500D01*
X279489D01*
X279261Y199351D01*
X278801Y200149D01*
X278149Y200801D01*
X277351Y201261D01*
X276500Y201489D01*
D02*
G37*
G36*
X275500D02*
X274649Y201261D01*
X273851Y200801D01*
X273199Y200149D01*
X272739Y199351D01*
X272511Y198500D01*
X275500D01*
Y201489D01*
D02*
G37*
G36*
X279489Y197500D02*
X276500D01*
Y194510D01*
X277351Y194738D01*
X278149Y195199D01*
X278801Y195851D01*
X279261Y196649D01*
X279489Y197500D01*
D02*
G37*
G36*
X275500D02*
X272511D01*
X272739Y196649D01*
X273199Y195851D01*
X273851Y195199D01*
X274649Y194738D01*
X275500Y194510D01*
Y197500D01*
D02*
G37*
G36*
X117500Y193490D02*
Y190500D01*
X120490D01*
X120262Y191351D01*
X119801Y192149D01*
X119149Y192801D01*
X118351Y193262D01*
X117500Y193490D01*
D02*
G37*
G36*
X241000D02*
Y190500D01*
X243989D01*
X243761Y191351D01*
X243301Y192149D01*
X242649Y192801D01*
X241851Y193262D01*
X241000Y193490D01*
D02*
G37*
G36*
X116500D02*
X115649Y193262D01*
X114851Y192801D01*
X114199Y192149D01*
X113739Y191351D01*
X113511Y190500D01*
X116500D01*
Y193490D01*
D02*
G37*
G36*
X240000D02*
X239149Y193262D01*
X238351Y192801D01*
X237699Y192149D01*
X237239Y191351D01*
X237011Y190500D01*
X240000D01*
Y193490D01*
D02*
G37*
G36*
X276500Y191490D02*
Y188500D01*
X279489D01*
X279261Y189351D01*
X278801Y190149D01*
X278149Y190801D01*
X277351Y191261D01*
X276500Y191490D01*
D02*
G37*
G36*
X275500D02*
X274649Y191261D01*
X273851Y190801D01*
X273199Y190149D01*
X272739Y189351D01*
X272511Y188500D01*
X275500D01*
Y191490D01*
D02*
G37*
G36*
X243989Y189500D02*
X241000D01*
Y186511D01*
X241851Y186739D01*
X242649Y187199D01*
X243301Y187851D01*
X243761Y188649D01*
X243989Y189500D01*
D02*
G37*
G36*
X120490D02*
X117500D01*
Y186511D01*
X118351Y186739D01*
X119149Y187199D01*
X119801Y187851D01*
X120262Y188649D01*
X120490Y189500D01*
D02*
G37*
G36*
X240000D02*
X237011D01*
X237239Y188649D01*
X237699Y187851D01*
X238351Y187199D01*
X239149Y186739D01*
X240000Y186511D01*
Y189500D01*
D02*
G37*
G36*
X116500D02*
X113511D01*
X113739Y188649D01*
X114199Y187851D01*
X114851Y187199D01*
X115649Y186739D01*
X116500Y186511D01*
Y189500D01*
D02*
G37*
G36*
X279489Y187500D02*
X276500D01*
Y184511D01*
X277351Y184739D01*
X278149Y185199D01*
X278801Y185851D01*
X279261Y186649D01*
X279489Y187500D01*
D02*
G37*
G36*
X275500D02*
X272511D01*
X272739Y186649D01*
X273199Y185851D01*
X273851Y185199D01*
X274649Y184739D01*
X275500Y184511D01*
Y187500D01*
D02*
G37*
G36*
X241000Y183490D02*
Y180500D01*
X243989D01*
X243761Y181351D01*
X243301Y182149D01*
X242649Y182801D01*
X241851Y183262D01*
X241000Y183490D01*
D02*
G37*
G36*
X117500D02*
Y180500D01*
X120490D01*
X120262Y181351D01*
X119801Y182149D01*
X119149Y182801D01*
X118351Y183262D01*
X117500Y183490D01*
D02*
G37*
G36*
X240000D02*
X239149Y183262D01*
X238351Y182801D01*
X237699Y182149D01*
X237239Y181351D01*
X237011Y180500D01*
X240000D01*
Y183490D01*
D02*
G37*
G36*
X116500D02*
X115649Y183262D01*
X114851Y182801D01*
X114199Y182149D01*
X113739Y181351D01*
X113511Y180500D01*
X116500D01*
Y183490D01*
D02*
G37*
G36*
X243989Y179500D02*
X241000D01*
Y176511D01*
X241851Y176739D01*
X242649Y177199D01*
X243301Y177851D01*
X243761Y178649D01*
X243989Y179500D01*
D02*
G37*
G36*
X120490D02*
X117500D01*
Y176511D01*
X118351Y176739D01*
X119149Y177199D01*
X119801Y177851D01*
X120262Y178649D01*
X120490Y179500D01*
D02*
G37*
G36*
X240000D02*
X237011D01*
X237239Y178649D01*
X237699Y177851D01*
X238351Y177199D01*
X239149Y176739D01*
X240000Y176511D01*
Y179500D01*
D02*
G37*
G36*
X116500D02*
X113511D01*
X113739Y178649D01*
X114199Y177851D01*
X114851Y177199D01*
X115649Y176739D01*
X116500Y176511D01*
Y179500D01*
D02*
G37*
G36*
X241000Y173489D02*
Y170500D01*
X243989D01*
X243761Y171351D01*
X243301Y172149D01*
X242649Y172801D01*
X241851Y173261D01*
X241000Y173489D01*
D02*
G37*
G36*
X240000D02*
X239149Y173261D01*
X238351Y172801D01*
X237699Y172149D01*
X237239Y171351D01*
X237011Y170500D01*
X240000D01*
Y173489D01*
D02*
G37*
G36*
X243989Y169500D02*
X240500D01*
X237011D01*
X237239Y168649D01*
X237699Y167851D01*
X238351Y167199D01*
X239149Y166738D01*
X239480Y166650D01*
Y163350D01*
X239149Y163261D01*
X238351Y162801D01*
X237699Y162149D01*
X237239Y161351D01*
X237011Y160500D01*
X240500D01*
X243989D01*
X243761Y161351D01*
X243301Y162149D01*
X242649Y162801D01*
X241851Y163261D01*
X241520Y163350D01*
Y166650D01*
X241851Y166738D01*
X242649Y167199D01*
X243301Y167851D01*
X243761Y168649D01*
X243989Y169500D01*
D02*
G37*
G36*
X264250Y164000D02*
X262000D01*
Y160000D01*
X264250D01*
Y164000D01*
D02*
G37*
G36*
X243989Y159500D02*
X241000D01*
Y156510D01*
X241851Y156738D01*
X242649Y157199D01*
X243301Y157851D01*
X243761Y158649D01*
X243989Y159500D01*
D02*
G37*
G36*
X240000D02*
X237011D01*
X237239Y158649D01*
X237699Y157851D01*
X238351Y157199D01*
X239149Y156738D01*
X240000Y156510D01*
Y159500D01*
D02*
G37*
G36*
X264250Y159000D02*
X262000D01*
Y155000D01*
X264250D01*
Y159000D01*
D02*
G37*
G36*
X276500Y181490D02*
Y178500D01*
X279489D01*
X279261Y179351D01*
X278801Y180149D01*
X278149Y180801D01*
X277351Y181262D01*
X276500Y181490D01*
D02*
G37*
G36*
X275500D02*
X274649Y181262D01*
X273851Y180801D01*
X273199Y180149D01*
X272739Y179351D01*
X272511Y178500D01*
X275500D01*
Y181490D01*
D02*
G37*
G36*
X279489Y177500D02*
X276500D01*
Y174511D01*
X277351Y174739D01*
X278149Y175199D01*
X278801Y175851D01*
X279261Y176649D01*
X279489Y177500D01*
D02*
G37*
G36*
X275500D02*
X272511D01*
X272739Y176649D01*
X273199Y175851D01*
X273851Y175199D01*
X274649Y174739D01*
X275500Y174511D01*
Y177500D01*
D02*
G37*
G36*
X278000Y164000D02*
X275750D01*
Y160000D01*
X278000D01*
Y164000D01*
D02*
G37*
G36*
Y159000D02*
X275750D01*
Y155000D01*
X278000D01*
Y159000D01*
D02*
G37*
G36*
X286953Y145677D02*
X284000D01*
Y143315D01*
X286953D01*
Y145677D01*
D02*
G37*
G36*
X283000D02*
X280047D01*
Y143315D01*
X283000D01*
Y145677D01*
D02*
G37*
G36*
X311390Y210043D02*
X309421D01*
Y206500D01*
X311390D01*
Y210043D01*
D02*
G37*
G36*
Y205500D02*
X309421D01*
Y201957D01*
X311390D01*
Y205500D01*
D02*
G37*
G36*
X316953Y145677D02*
X314000D01*
Y143315D01*
X316953D01*
Y145677D01*
D02*
G37*
G36*
X313000D02*
X310047D01*
Y143315D01*
X313000D01*
Y145677D01*
D02*
G37*
G36*
X117500Y173489D02*
Y170500D01*
X120490D01*
X120262Y171351D01*
X119801Y172149D01*
X119149Y172801D01*
X118351Y173261D01*
X117500Y173489D01*
D02*
G37*
G36*
X116500D02*
X115649Y173261D01*
X114851Y172801D01*
X114199Y172149D01*
X113739Y171351D01*
X113511Y170500D01*
X116500D01*
Y173489D01*
D02*
G37*
G36*
X120490Y169500D02*
X117500D01*
Y166510D01*
X118351Y166738D01*
X119149Y167199D01*
X119801Y167851D01*
X120262Y168649D01*
X120490Y169500D01*
D02*
G37*
G36*
X116500D02*
X113511D01*
X113739Y168649D01*
X114199Y167851D01*
X114851Y167199D01*
X115649Y166738D01*
X116500Y166510D01*
Y169500D01*
D02*
G37*
G36*
X117500Y163489D02*
Y160500D01*
X120490D01*
X120262Y161351D01*
X119801Y162149D01*
X119149Y162801D01*
X118351Y163261D01*
X117500Y163489D01*
D02*
G37*
G36*
X116500D02*
X115649Y163261D01*
X114851Y162801D01*
X114199Y162149D01*
X113739Y161351D01*
X113511Y160500D01*
X116500D01*
Y163489D01*
D02*
G37*
G36*
X120490Y159500D02*
X117500D01*
Y156510D01*
X118351Y156738D01*
X119149Y157199D01*
X119801Y157851D01*
X120262Y158649D01*
X120490Y159500D01*
D02*
G37*
G36*
X116500D02*
X113511D01*
X113739Y158649D01*
X114199Y157851D01*
X114851Y157199D01*
X115649Y156738D01*
X116500Y156510D01*
Y159500D01*
D02*
G37*
G36*
Y139583D02*
X112984D01*
Y136995D01*
X116500D01*
Y139583D01*
D02*
G37*
G36*
X121016Y125005D02*
X117500D01*
Y122417D01*
X121016D01*
Y125005D01*
D02*
G37*
G36*
X116500D02*
X112984D01*
Y122417D01*
X116500D01*
Y125005D01*
D02*
G37*
%LPD*%
D12*
X275250Y159500D02*
X275500Y159750D01*
X264250Y160000D02*
X264750Y159500D01*
X275250Y157750D02*
Y159500D01*
X117000Y136495D02*
X123505Y143000D01*
X253315D01*
X240500Y160000D02*
Y170000D01*
X298379Y205500D02*
X298979Y206100D01*
X298966Y205100D02*
X299079Y205213D01*
X117500Y126250D02*
X118000Y126750D01*
X253000Y117618D02*
X253500Y118118D01*
Y132185D01*
X283500Y117025D02*
Y132185D01*
X313500Y117217D02*
Y132185D01*
Y106783D02*
X313717Y107000D01*
X331000D01*
X313308Y106975D02*
X313500Y106783D01*
X283500Y106975D02*
X313308D01*
X253000Y106382D02*
X282907D01*
X283500Y106975D01*
D13*
X264750Y159500D02*
D03*
X275250D02*
D03*
D15*
X308921Y206000D02*
D03*
X299079D02*
D03*
D16*
X117000Y125505D02*
D03*
Y136495D02*
D03*
D18*
X283500Y117025D02*
D03*
Y106975D02*
D03*
D19*
X253000Y106382D02*
D03*
Y117618D02*
D03*
D25*
X313500Y142815D02*
D03*
Y132185D02*
D03*
X283500Y142815D02*
D03*
Y132185D02*
D03*
X253500Y142815D02*
D03*
Y132185D02*
D03*
D26*
X313500Y117217D02*
D03*
Y106783D02*
D03*
D27*
X117000Y190000D02*
D03*
Y180000D02*
D03*
Y170000D02*
D03*
Y160000D02*
D03*
X276000Y208000D02*
D03*
Y198000D02*
D03*
Y188000D02*
D03*
Y178000D02*
D03*
X240500Y190000D02*
D03*
Y180000D02*
D03*
Y170000D02*
D03*
Y160000D02*
D03*
D28*
X222500Y120000D02*
D03*
X162500D02*
D03*
X342500Y117500D02*
D03*
X112500Y207500D02*
D03*
D29*
X340000Y190000D02*
D03*
Y210000D02*
D03*
X140000Y115000D02*
D03*
X115000D02*
D03*
D30*
X161500Y187500D02*
D03*
X260500Y193000D02*
D03*
X331000Y107000D02*
D03*
M02*
