G04*
G04 #@! TF.GenerationSoftware,Altium Limited,Altium Designer,22.9.1 (49)*
G04*
G04 Layer_Color=8388736*
%FSLAX25Y25*%
%MOIN*%
G70*
G04*
G04 #@! TF.SameCoordinates,DEE7DE5E-5230-4543-89B2-9CAB29215946*
G04*
G04*
G04 #@! TF.FilePolarity,Negative*
G04*
G01*
G75*
%ADD13R,0.04500X0.08000*%
%ADD14R,0.06496X0.05315*%
%ADD15R,0.03937X0.07087*%
%ADD16R,0.07032X0.05176*%
%ADD17R,0.06693X0.04134*%
%ADD18R,0.06528X0.04156*%
%ADD19R,0.06544X0.04166*%
%ADD20C,0.06591*%
%ADD21C,0.21400*%
%ADD22C,0.21460*%
%ADD23C,0.11928*%
%ADD24C,0.05591*%
D13*
X264750Y159500D02*
D03*
X275250D02*
D03*
D14*
X313500Y142815D02*
D03*
Y132185D02*
D03*
X283500Y142815D02*
D03*
Y132185D02*
D03*
X253500Y142815D02*
D03*
Y132185D02*
D03*
D15*
X308921Y206000D02*
D03*
X299079D02*
D03*
D16*
X117000Y125505D02*
D03*
Y136495D02*
D03*
D17*
X313500Y117217D02*
D03*
Y106783D02*
D03*
D18*
X283500Y117025D02*
D03*
Y106975D02*
D03*
D19*
X253000Y106382D02*
D03*
Y117618D02*
D03*
D20*
X117000Y190000D02*
D03*
Y180000D02*
D03*
Y170000D02*
D03*
Y160000D02*
D03*
X276000Y208000D02*
D03*
Y198000D02*
D03*
Y188000D02*
D03*
Y178000D02*
D03*
X240500Y190000D02*
D03*
Y180000D02*
D03*
Y170000D02*
D03*
Y160000D02*
D03*
D21*
X222500Y120000D02*
D03*
X162500D02*
D03*
X112500Y207500D02*
D03*
D22*
X342500Y117500D02*
D03*
D23*
X340000Y190000D02*
D03*
Y210000D02*
D03*
X140000Y115000D02*
D03*
X115000D02*
D03*
D24*
X161500Y187500D02*
D03*
X260500Y193000D02*
D03*
X331000Y107000D02*
D03*
M02*
