G04*
G04 #@! TF.GenerationSoftware,Altium Limited,Altium Designer,22.9.1 (49)*
G04*
G04 Layer_Physical_Order=2*
G04 Layer_Color=16711680*
%FSLAX25Y25*%
%MOIN*%
G70*
G04*
G04 #@! TF.SameCoordinates,DEE7DE5E-5230-4543-89B2-9CAB29215946*
G04*
G04*
G04 #@! TF.FilePolarity,Positive*
G04*
G01*
G75*
%ADD27C,0.06000*%
%ADD28C,0.13400*%
%ADD29C,0.11337*%
%ADD30C,0.05000*%
G36*
X354000Y102000D02*
X102000D01*
Y218000D01*
X354000D01*
Y102000D01*
D02*
G37*
%LPC*%
G36*
X276461Y211500D02*
X275539D01*
X274649Y211262D01*
X273851Y210801D01*
X273199Y210149D01*
X272739Y209351D01*
X272500Y208461D01*
Y207539D01*
X272739Y206649D01*
X273199Y205851D01*
X273851Y205199D01*
X274649Y204738D01*
X275539Y204500D01*
X276461D01*
X277351Y204738D01*
X278149Y205199D01*
X278801Y205851D01*
X279261Y206649D01*
X279500Y207539D01*
Y208461D01*
X279261Y209351D01*
X278801Y210149D01*
X278149Y210801D01*
X277351Y211262D01*
X276461Y211500D01*
D02*
G37*
G36*
X340608Y216168D02*
X339392D01*
X338201Y215931D01*
X337078Y215466D01*
X336068Y214791D01*
X335209Y213932D01*
X334534Y212922D01*
X334069Y211799D01*
X333832Y210608D01*
Y209392D01*
X334069Y208201D01*
X334534Y207078D01*
X335209Y206068D01*
X336068Y205209D01*
X337078Y204534D01*
X338201Y204069D01*
X339392Y203832D01*
X340608D01*
X341799Y204069D01*
X342922Y204534D01*
X343932Y205209D01*
X344791Y206068D01*
X345466Y207078D01*
X345931Y208201D01*
X346168Y209392D01*
Y210608D01*
X345931Y211799D01*
X345466Y212922D01*
X344791Y213932D01*
X343932Y214791D01*
X342922Y215466D01*
X341799Y215931D01*
X340608Y216168D01*
D02*
G37*
G36*
X113257Y215184D02*
X111743D01*
X110259Y214889D01*
X108860Y214310D01*
X107602Y213469D01*
X106531Y212398D01*
X105690Y211140D01*
X105111Y209741D01*
X104816Y208257D01*
Y206743D01*
X105111Y205259D01*
X105690Y203860D01*
X106531Y202602D01*
X107602Y201531D01*
X108860Y200690D01*
X110259Y200111D01*
X111743Y199816D01*
X113257D01*
X114741Y200111D01*
X116140Y200690D01*
X117398Y201531D01*
X118469Y202602D01*
X119310Y203860D01*
X119889Y205259D01*
X120184Y206743D01*
Y208257D01*
X119889Y209741D01*
X119310Y211140D01*
X118469Y212398D01*
X117398Y213469D01*
X116140Y214310D01*
X114741Y214889D01*
X113257Y215184D01*
D02*
G37*
G36*
X276500Y201489D02*
Y198500D01*
X279489D01*
X279261Y199351D01*
X278801Y200149D01*
X278149Y200801D01*
X277351Y201261D01*
X276500Y201489D01*
D02*
G37*
G36*
X275500D02*
X274649Y201261D01*
X273851Y200801D01*
X273199Y200149D01*
X272739Y199351D01*
X272511Y198500D01*
X275500D01*
Y201489D01*
D02*
G37*
G36*
X279489Y197500D02*
X276500D01*
Y194510D01*
X277351Y194738D01*
X278149Y195199D01*
X278801Y195851D01*
X279261Y196649D01*
X279489Y197500D01*
D02*
G37*
G36*
X275500D02*
X272511D01*
X272739Y196649D01*
X273199Y195851D01*
X273851Y195199D01*
X274649Y194738D01*
X275500Y194510D01*
Y197500D01*
D02*
G37*
G36*
X117500Y193490D02*
Y190500D01*
X120490D01*
X120262Y191351D01*
X119801Y192149D01*
X119149Y192801D01*
X118351Y193262D01*
X117500Y193490D01*
D02*
G37*
G36*
X241000D02*
Y190500D01*
X243989D01*
X243761Y191351D01*
X243301Y192149D01*
X242649Y192801D01*
X241851Y193262D01*
X241000Y193490D01*
D02*
G37*
G36*
X116500D02*
X115649Y193262D01*
X114851Y192801D01*
X114199Y192149D01*
X113739Y191351D01*
X113511Y190500D01*
X116500D01*
Y193490D01*
D02*
G37*
G36*
X240000D02*
X239149Y193262D01*
X238351Y192801D01*
X237699Y192149D01*
X237239Y191351D01*
X237011Y190500D01*
X240000D01*
Y193490D01*
D02*
G37*
G36*
X276500Y191490D02*
Y188500D01*
X279489D01*
X279261Y189351D01*
X278801Y190149D01*
X278149Y190801D01*
X277351Y191261D01*
X276500Y191490D01*
D02*
G37*
G36*
X275500D02*
X274649Y191261D01*
X273851Y190801D01*
X273199Y190149D01*
X272739Y189351D01*
X272511Y188500D01*
X275500D01*
Y191490D01*
D02*
G37*
G36*
X243989Y189500D02*
X241000D01*
Y186511D01*
X241851Y186739D01*
X242649Y187199D01*
X243301Y187851D01*
X243761Y188649D01*
X243989Y189500D01*
D02*
G37*
G36*
X120490D02*
X117500D01*
Y186511D01*
X118351Y186739D01*
X119149Y187199D01*
X119801Y187851D01*
X120262Y188649D01*
X120490Y189500D01*
D02*
G37*
G36*
X240000D02*
X237011D01*
X237239Y188649D01*
X237699Y187851D01*
X238351Y187199D01*
X239149Y186739D01*
X240000Y186511D01*
Y189500D01*
D02*
G37*
G36*
X116500D02*
X113511D01*
X113739Y188649D01*
X114199Y187851D01*
X114851Y187199D01*
X115649Y186739D01*
X116500Y186511D01*
Y189500D01*
D02*
G37*
G36*
X279489Y187500D02*
X276500D01*
Y184511D01*
X277351Y184739D01*
X278149Y185199D01*
X278801Y185851D01*
X279261Y186649D01*
X279489Y187500D01*
D02*
G37*
G36*
X275500D02*
X272511D01*
X272739Y186649D01*
X273199Y185851D01*
X273851Y185199D01*
X274649Y184739D01*
X275500Y184511D01*
Y187500D01*
D02*
G37*
G36*
X241000Y183490D02*
Y180500D01*
X243989D01*
X243761Y181351D01*
X243301Y182149D01*
X242649Y182801D01*
X241851Y183262D01*
X241000Y183490D01*
D02*
G37*
G36*
X117500D02*
Y180500D01*
X120490D01*
X120262Y181351D01*
X119801Y182149D01*
X119149Y182801D01*
X118351Y183262D01*
X117500Y183490D01*
D02*
G37*
G36*
X240000D02*
X239149Y183262D01*
X238351Y182801D01*
X237699Y182149D01*
X237239Y181351D01*
X237011Y180500D01*
X240000D01*
Y183490D01*
D02*
G37*
G36*
X116500D02*
X115649Y183262D01*
X114851Y182801D01*
X114199Y182149D01*
X113739Y181351D01*
X113511Y180500D01*
X116500D01*
Y183490D01*
D02*
G37*
G36*
X243989Y179500D02*
X241000D01*
Y176511D01*
X241851Y176739D01*
X242649Y177199D01*
X243301Y177851D01*
X243761Y178649D01*
X243989Y179500D01*
D02*
G37*
G36*
X120490D02*
X117500D01*
Y176511D01*
X118351Y176739D01*
X119149Y177199D01*
X119801Y177851D01*
X120262Y178649D01*
X120490Y179500D01*
D02*
G37*
G36*
X240000D02*
X237011D01*
X237239Y178649D01*
X237699Y177851D01*
X238351Y177199D01*
X239149Y176739D01*
X240000Y176511D01*
Y179500D01*
D02*
G37*
G36*
X116500D02*
X113511D01*
X113739Y178649D01*
X114199Y177851D01*
X114851Y177199D01*
X115649Y176739D01*
X116500Y176511D01*
Y179500D01*
D02*
G37*
G36*
X276461Y181500D02*
X275539D01*
X274649Y181262D01*
X273851Y180801D01*
X273199Y180149D01*
X272739Y179351D01*
X272500Y178461D01*
Y177539D01*
X272739Y176649D01*
X273199Y175851D01*
X273851Y175199D01*
X274649Y174739D01*
X275539Y174500D01*
X276461D01*
X277351Y174739D01*
X278149Y175199D01*
X278801Y175851D01*
X279261Y176649D01*
X279500Y177539D01*
Y178461D01*
X279261Y179351D01*
X278801Y180149D01*
X278149Y180801D01*
X277351Y181262D01*
X276461Y181500D01*
D02*
G37*
G36*
X240961Y173500D02*
X240039D01*
X239149Y173261D01*
X238351Y172801D01*
X237699Y172149D01*
X237239Y171351D01*
X237000Y170461D01*
Y169539D01*
X237239Y168649D01*
X237699Y167851D01*
X238351Y167199D01*
X239149Y166738D01*
X240039Y166500D01*
X240961D01*
X241851Y166738D01*
X242649Y167199D01*
X243301Y167851D01*
X243761Y168649D01*
X244000Y169539D01*
Y170461D01*
X243761Y171351D01*
X243301Y172149D01*
X242649Y172801D01*
X241851Y173261D01*
X240961Y173500D01*
D02*
G37*
G36*
X117461D02*
X116539D01*
X115649Y173261D01*
X114851Y172801D01*
X114199Y172149D01*
X113739Y171351D01*
X113500Y170461D01*
Y169539D01*
X113739Y168649D01*
X114199Y167851D01*
X114851Y167199D01*
X115649Y166738D01*
X116539Y166500D01*
X117461D01*
X118351Y166738D01*
X119149Y167199D01*
X119801Y167851D01*
X120262Y168649D01*
X120500Y169539D01*
Y170461D01*
X120262Y171351D01*
X119801Y172149D01*
X119149Y172801D01*
X118351Y173261D01*
X117461Y173500D01*
D02*
G37*
G36*
X240961Y163500D02*
X240039D01*
X239149Y163261D01*
X238351Y162801D01*
X237699Y162149D01*
X237239Y161351D01*
X237000Y160461D01*
Y159539D01*
X237239Y158649D01*
X237699Y157851D01*
X238351Y157199D01*
X239149Y156738D01*
X240039Y156500D01*
X240961D01*
X241851Y156738D01*
X242649Y157199D01*
X243301Y157851D01*
X243761Y158649D01*
X244000Y159539D01*
Y160461D01*
X243761Y161351D01*
X243301Y162149D01*
X242649Y162801D01*
X241851Y163261D01*
X240961Y163500D01*
D02*
G37*
G36*
X117461D02*
X116539D01*
X115649Y163261D01*
X114851Y162801D01*
X114199Y162149D01*
X113739Y161351D01*
X113500Y160461D01*
Y159539D01*
X113739Y158649D01*
X114199Y157851D01*
X114851Y157199D01*
X115649Y156738D01*
X116539Y156500D01*
X117461D01*
X118351Y156738D01*
X119149Y157199D01*
X119801Y157851D01*
X120262Y158649D01*
X120500Y159539D01*
Y160461D01*
X120262Y161351D01*
X119801Y162149D01*
X119149Y162801D01*
X118351Y163261D01*
X117461Y163500D01*
D02*
G37*
G36*
X223257Y127684D02*
X221743D01*
X220259Y127389D01*
X218860Y126810D01*
X217602Y125969D01*
X216531Y124898D01*
X215690Y123640D01*
X215111Y122241D01*
X214816Y120757D01*
Y119243D01*
X215111Y117759D01*
X215690Y116360D01*
X216531Y115102D01*
X217602Y114031D01*
X218860Y113190D01*
X220259Y112611D01*
X221743Y112316D01*
X223257D01*
X224741Y112611D01*
X226140Y113190D01*
X227398Y114031D01*
X228469Y115102D01*
X229310Y116360D01*
X229889Y117759D01*
X230184Y119243D01*
Y120757D01*
X229889Y122241D01*
X229310Y123640D01*
X228469Y124898D01*
X227398Y125969D01*
X226140Y126810D01*
X224741Y127389D01*
X223257Y127684D01*
D02*
G37*
G36*
X163257D02*
X161743D01*
X160259Y127389D01*
X158860Y126810D01*
X157602Y125969D01*
X156531Y124898D01*
X155690Y123640D01*
X155111Y122241D01*
X154816Y120757D01*
Y119243D01*
X155111Y117759D01*
X155690Y116360D01*
X156531Y115102D01*
X157602Y114031D01*
X158860Y113190D01*
X160259Y112611D01*
X161743Y112316D01*
X163257D01*
X164741Y112611D01*
X166140Y113190D01*
X167398Y114031D01*
X168469Y115102D01*
X169310Y116360D01*
X169889Y117759D01*
X170184Y119243D01*
Y120757D01*
X169889Y122241D01*
X169310Y123640D01*
X168469Y124898D01*
X167398Y125969D01*
X166140Y126810D01*
X164741Y127389D01*
X163257Y127684D01*
D02*
G37*
G36*
X343257Y125184D02*
X341743D01*
X340259Y124889D01*
X338860Y124310D01*
X337602Y123469D01*
X336531Y122398D01*
X335690Y121140D01*
X335111Y119741D01*
X334816Y118257D01*
Y116743D01*
X335111Y115259D01*
X335690Y113860D01*
X336531Y112602D01*
X337602Y111531D01*
X338860Y110690D01*
X340259Y110111D01*
X341743Y109816D01*
X343257D01*
X344741Y110111D01*
X346140Y110690D01*
X347398Y111531D01*
X348469Y112602D01*
X349310Y113860D01*
X349889Y115259D01*
X350184Y116743D01*
Y118257D01*
X349889Y119741D01*
X349310Y121140D01*
X348469Y122398D01*
X347398Y123469D01*
X346140Y124310D01*
X344741Y124889D01*
X343257Y125184D01*
D02*
G37*
G36*
X115608Y121168D02*
X114392D01*
X113201Y120931D01*
X112078Y120466D01*
X111068Y119791D01*
X110209Y118932D01*
X109534Y117922D01*
X109069Y116799D01*
X108832Y115608D01*
Y114392D01*
X109069Y113201D01*
X109534Y112078D01*
X110209Y111068D01*
X111068Y110209D01*
X112078Y109534D01*
X113201Y109069D01*
X114392Y108832D01*
X115608D01*
X116799Y109069D01*
X117922Y109534D01*
X118932Y110209D01*
X119791Y111068D01*
X120466Y112078D01*
X120931Y113201D01*
X121168Y114392D01*
Y115608D01*
X120931Y116799D01*
X120466Y117922D01*
X119791Y118932D01*
X118932Y119791D01*
X117922Y120466D01*
X116799Y120931D01*
X115608Y121168D01*
D02*
G37*
%LPD*%
D27*
X117000Y190000D02*
D03*
Y180000D02*
D03*
Y170000D02*
D03*
Y160000D02*
D03*
X276000Y208000D02*
D03*
Y198000D02*
D03*
Y188000D02*
D03*
Y178000D02*
D03*
X240500Y190000D02*
D03*
Y180000D02*
D03*
Y170000D02*
D03*
Y160000D02*
D03*
D28*
X222500Y120000D02*
D03*
X162500D02*
D03*
X342500Y117500D02*
D03*
X112500Y207500D02*
D03*
D29*
X340000Y190000D02*
D03*
Y210000D02*
D03*
X140000Y115000D02*
D03*
X115000D02*
D03*
D30*
X161500Y187500D02*
D03*
X260500Y193000D02*
D03*
X331000Y107000D02*
D03*
M02*
