G04*
G04 #@! TF.GenerationSoftware,Altium Limited,Altium Designer,22.9.1 (49)*
G04*
G04 Layer_Color=32896*
%FSLAX25Y25*%
%MOIN*%
G70*
G04*
G04 #@! TF.SameCoordinates,DEE7DE5E-5230-4543-89B2-9CAB29215946*
G04*
G04*
G04 #@! TF.FilePolarity,Positive*
G04*
G01*
G75*
G36*
X306118Y142300D02*
X302882D01*
Y145097D01*
X302859D01*
Y145120D01*
X300964D01*
Y145097D01*
X300941D01*
Y143687D01*
X297683D01*
Y150666D01*
X300941D01*
Y147824D01*
X300964D01*
Y147800D01*
X302882D01*
Y150666D01*
X306118D01*
Y142300D01*
D02*
G37*
G36*
X315315Y147916D02*
X315269D01*
Y147870D01*
X315246D01*
Y147824D01*
X315223D01*
Y147800D01*
X315200D01*
Y147754D01*
X315177D01*
Y147731D01*
X315153D01*
Y147685D01*
X315130D01*
Y147662D01*
X315107D01*
Y147616D01*
X315084D01*
Y147569D01*
X315061D01*
Y147546D01*
X315038D01*
Y147500D01*
X315015D01*
Y147477D01*
X314992D01*
Y147431D01*
X314968D01*
Y147408D01*
X314945D01*
Y147361D01*
X314922D01*
Y147315D01*
X314899D01*
Y147292D01*
X314876D01*
Y147246D01*
X314853D01*
Y147223D01*
X314830D01*
Y147177D01*
X314807D01*
Y147130D01*
X314784D01*
Y147107D01*
X314760D01*
Y147061D01*
X314737D01*
Y147038D01*
X314714D01*
Y146992D01*
X314691D01*
Y146968D01*
X314668D01*
Y146922D01*
X314645D01*
Y146876D01*
X314622D01*
Y146853D01*
X314599D01*
Y146807D01*
X314576D01*
Y146784D01*
X314552D01*
Y146737D01*
X314529D01*
Y146714D01*
X314506D01*
Y146668D01*
X314483D01*
Y146622D01*
X314460D01*
Y146599D01*
X314437D01*
Y146553D01*
X314414D01*
Y146529D01*
X314391D01*
Y146483D01*
X314368D01*
Y146437D01*
X314345D01*
Y146414D01*
X314321D01*
Y146368D01*
X314298D01*
Y146344D01*
X314275D01*
Y146298D01*
X314252D01*
Y146275D01*
X314229D01*
Y146229D01*
X314206D01*
Y146183D01*
X314183D01*
Y146160D01*
X314160D01*
Y146113D01*
X314137D01*
Y146090D01*
X314113D01*
Y146067D01*
X314090D01*
Y145998D01*
X314067D01*
Y145975D01*
X314044D01*
Y145929D01*
X314021D01*
Y145905D01*
X313998D01*
Y145859D01*
X313975D01*
Y145836D01*
X313952D01*
Y145790D01*
X313929D01*
Y145744D01*
X313906D01*
Y145721D01*
X313882D01*
Y145674D01*
X313859D01*
Y145651D01*
X313836D01*
Y145628D01*
X313813D01*
Y145582D01*
X313790D01*
Y145559D01*
X313767D01*
Y145490D01*
X313744D01*
Y145466D01*
X313721D01*
Y145443D01*
X313698D01*
Y145397D01*
X313674D01*
Y145374D01*
X313651D01*
Y145305D01*
X313628D01*
Y145282D01*
X313605D01*
Y145258D01*
X313582D01*
Y145212D01*
X313559D01*
Y145189D01*
X313536D01*
Y145143D01*
X313513D01*
Y145120D01*
X313490D01*
Y145073D01*
X313466D01*
Y145027D01*
X313443D01*
Y145004D01*
X313420D01*
Y144958D01*
X313397D01*
Y144935D01*
X313374D01*
Y144889D01*
X313351D01*
Y144842D01*
X313328D01*
Y144819D01*
X313305D01*
Y144773D01*
X313281D01*
Y144750D01*
X313258D01*
Y144704D01*
X313235D01*
Y144681D01*
X313212D01*
Y144634D01*
X313189D01*
Y144588D01*
X313166D01*
Y144565D01*
X313143D01*
Y144519D01*
X313120D01*
Y144496D01*
X313097D01*
Y144450D01*
X313073D01*
Y144427D01*
X313050D01*
Y144380D01*
X313027D01*
Y144334D01*
X313004D01*
Y144311D01*
X312981D01*
Y144265D01*
X312958D01*
Y144242D01*
X312935D01*
Y144195D01*
X312912D01*
Y144149D01*
X312889D01*
Y144126D01*
X312865D01*
Y144080D01*
X312842D01*
Y144057D01*
X312819D01*
Y144010D01*
X312796D01*
Y143987D01*
X312773D01*
Y143941D01*
X312750D01*
Y143895D01*
X312727D01*
Y143872D01*
X312704D01*
Y143826D01*
X312681D01*
Y143802D01*
X312658D01*
Y143756D01*
X312634D01*
Y143733D01*
X312611D01*
Y143687D01*
X312588D01*
Y143641D01*
X312565D01*
Y143618D01*
X312542D01*
Y143571D01*
X312519D01*
Y143548D01*
X312496D01*
Y143502D01*
X312473D01*
Y143456D01*
X312450D01*
Y143433D01*
X312426D01*
Y143387D01*
X312403D01*
Y143363D01*
X312380D01*
Y143317D01*
X312357D01*
Y143294D01*
X312334D01*
Y143248D01*
X312311D01*
Y143202D01*
X312288D01*
Y143179D01*
X312265D01*
Y143132D01*
X312242D01*
Y143109D01*
X312218D01*
Y143063D01*
X312195D01*
Y143017D01*
X312172D01*
Y142994D01*
X312149D01*
Y142947D01*
X312103D01*
Y143294D01*
X312080D01*
Y144010D01*
X312057D01*
Y144958D01*
X312034D01*
Y145420D01*
X312011D01*
Y145397D01*
X311987D01*
Y145351D01*
X311964D01*
Y145328D01*
X311941D01*
Y145282D01*
X311918D01*
Y145258D01*
X311895D01*
Y145212D01*
X311872D01*
Y145166D01*
X311849D01*
Y145143D01*
X311826D01*
Y145097D01*
X311803D01*
Y145073D01*
X311779D01*
Y145027D01*
X311756D01*
Y145004D01*
X311733D01*
Y144958D01*
X311710D01*
Y144912D01*
X311687D01*
Y144889D01*
X311664D01*
Y144842D01*
X311641D01*
Y144819D01*
X311618D01*
Y144773D01*
X311595D01*
Y144727D01*
X311571D01*
Y144704D01*
X311548D01*
Y144658D01*
X311525D01*
Y144634D01*
X311502D01*
Y144588D01*
X311479D01*
Y144565D01*
X311456D01*
Y144519D01*
X311433D01*
Y144473D01*
X311410D01*
Y144450D01*
X311387D01*
Y144403D01*
X311364D01*
Y144380D01*
X311340D01*
Y144334D01*
X311317D01*
Y144288D01*
X311294D01*
Y144265D01*
X311271D01*
Y144219D01*
X311248D01*
Y144195D01*
X311225D01*
Y144149D01*
X311202D01*
Y144126D01*
X311179D01*
Y144103D01*
X311156D01*
Y144034D01*
X311132D01*
Y144010D01*
X311109D01*
Y143964D01*
X311086D01*
Y143941D01*
X311063D01*
Y143918D01*
X311040D01*
Y143872D01*
X311017D01*
Y143826D01*
X310994D01*
Y143779D01*
X310971D01*
Y143756D01*
X310947D01*
Y143710D01*
X310924D01*
Y143687D01*
X310901D01*
Y143664D01*
X310878D01*
Y143595D01*
X310855D01*
Y143571D01*
X310832D01*
Y143525D01*
X310809D01*
Y143502D01*
X310786D01*
Y143479D01*
X310763D01*
Y143433D01*
X310739D01*
Y143387D01*
X310716D01*
Y143340D01*
X310693D01*
Y143317D01*
X310670D01*
Y143294D01*
X310647D01*
Y143248D01*
X310624D01*
Y143225D01*
X310601D01*
Y143179D01*
X310578D01*
Y143132D01*
X310555D01*
Y143086D01*
X310531D01*
Y143063D01*
X310508D01*
Y143040D01*
X310485D01*
Y142994D01*
X310462D01*
Y142947D01*
X310439D01*
Y142901D01*
X310416D01*
Y142878D01*
X310393D01*
Y142855D01*
X310370D01*
Y142809D01*
X310347D01*
Y142786D01*
X310324D01*
Y142739D01*
X310300D01*
Y142693D01*
X310277D01*
Y142670D01*
X310254D01*
Y142624D01*
X310231D01*
Y142601D01*
X310208D01*
Y142555D01*
X310185D01*
Y142532D01*
X310162D01*
Y142462D01*
X310139D01*
Y142439D01*
X310116D01*
Y142416D01*
X310092D01*
Y142370D01*
X310069D01*
Y142347D01*
X310046D01*
Y142300D01*
X306765D01*
Y150666D01*
X310000D01*
Y147500D01*
X310046D01*
Y147546D01*
X310069D01*
Y147569D01*
X310092D01*
Y147616D01*
X310116D01*
Y147639D01*
X310139D01*
Y147685D01*
X310162D01*
Y147731D01*
X310185D01*
Y147754D01*
X310208D01*
Y147800D01*
X310231D01*
Y147824D01*
X310254D01*
Y147870D01*
X310277D01*
Y147916D01*
X310300D01*
Y147939D01*
X310324D01*
Y147985D01*
X310347D01*
Y148008D01*
X310370D01*
Y148055D01*
X310393D01*
Y148078D01*
X310416D01*
Y148124D01*
X310439D01*
Y148170D01*
X310462D01*
Y148193D01*
X310485D01*
Y148240D01*
X310508D01*
Y148263D01*
X310531D01*
Y148309D01*
X310555D01*
Y148355D01*
X310578D01*
Y148378D01*
X310601D01*
Y148424D01*
X310624D01*
Y148448D01*
X310647D01*
Y148494D01*
X310670D01*
Y148517D01*
X310693D01*
Y148563D01*
X310716D01*
Y148609D01*
X310739D01*
Y148632D01*
X310763D01*
Y148679D01*
X310786D01*
Y148702D01*
X310809D01*
Y148748D01*
X310832D01*
Y148794D01*
X310855D01*
Y148817D01*
X310878D01*
Y148863D01*
X310901D01*
Y148887D01*
X310924D01*
Y148933D01*
X310947D01*
Y148956D01*
X310971D01*
Y149002D01*
X310994D01*
Y149048D01*
X311017D01*
Y149071D01*
X311040D01*
Y149118D01*
X311063D01*
Y149141D01*
X311086D01*
Y149187D01*
X311109D01*
Y149233D01*
X311132D01*
Y149256D01*
X311156D01*
Y149302D01*
X311179D01*
Y149326D01*
X311202D01*
Y149372D01*
X311225D01*
Y149395D01*
X311248D01*
Y149441D01*
X311271D01*
Y149487D01*
X311294D01*
Y149511D01*
X311317D01*
Y149557D01*
X311340D01*
Y149580D01*
X311364D01*
Y149626D01*
X311387D01*
Y149672D01*
X311410D01*
Y149695D01*
X311433D01*
Y149742D01*
X311456D01*
Y149765D01*
X311479D01*
Y149811D01*
X311502D01*
Y149834D01*
X311525D01*
Y149880D01*
X311548D01*
Y149926D01*
X311571D01*
Y149950D01*
X311595D01*
Y149996D01*
X311618D01*
Y150019D01*
X311641D01*
Y150065D01*
X311664D01*
Y150111D01*
X311687D01*
Y150134D01*
X311710D01*
Y150181D01*
X311733D01*
Y150204D01*
X311756D01*
Y150250D01*
X311779D01*
Y150273D01*
X311803D01*
Y150319D01*
X311826D01*
Y150365D01*
X311849D01*
Y150389D01*
X311872D01*
Y150435D01*
X311895D01*
Y150458D01*
X311918D01*
Y150504D01*
X311941D01*
Y150550D01*
X311964D01*
Y150574D01*
X311987D01*
Y150620D01*
X312011D01*
Y150666D01*
X315315D01*
Y147916D01*
D02*
G37*
G36*
X315269Y146668D02*
X315292D01*
Y146576D01*
X315315D01*
Y145744D01*
Y145721D01*
Y142300D01*
X312773D01*
Y142324D01*
X312565D01*
Y142347D01*
X312473D01*
Y142416D01*
X312496D01*
Y142462D01*
X312519D01*
Y142485D01*
X312542D01*
Y142532D01*
X312565D01*
Y142578D01*
X312588D01*
Y142601D01*
X312611D01*
Y142647D01*
X312634D01*
Y142670D01*
X312658D01*
Y142716D01*
X312681D01*
Y142739D01*
X312704D01*
Y142809D01*
X312727D01*
Y142832D01*
X312750D01*
Y142878D01*
X312773D01*
Y142901D01*
X312796D01*
Y142947D01*
X312819D01*
Y142994D01*
X312842D01*
Y143017D01*
X312865D01*
Y143063D01*
X312889D01*
Y143109D01*
X312912D01*
Y143132D01*
X312935D01*
Y143179D01*
X312958D01*
Y143202D01*
X312981D01*
Y143248D01*
X313004D01*
Y143271D01*
X313027D01*
Y143317D01*
X313050D01*
Y143363D01*
X313073D01*
Y143387D01*
X313097D01*
Y143433D01*
X313120D01*
Y143456D01*
X313143D01*
Y143502D01*
X313166D01*
Y143548D01*
X313189D01*
Y143571D01*
X313212D01*
Y143618D01*
X313235D01*
Y143641D01*
X313258D01*
Y143687D01*
X313281D01*
Y143710D01*
X313305D01*
Y143756D01*
X313328D01*
Y143802D01*
X313351D01*
Y143826D01*
X313374D01*
Y143872D01*
X313397D01*
Y143895D01*
X313420D01*
Y143941D01*
X313443D01*
Y143964D01*
X313466D01*
Y144010D01*
X313490D01*
Y144057D01*
X313513D01*
Y144080D01*
X313536D01*
Y144126D01*
X313559D01*
Y144172D01*
X313582D01*
Y144195D01*
X313605D01*
Y144242D01*
X313628D01*
Y144265D01*
X313651D01*
Y144311D01*
X313674D01*
Y144334D01*
X313698D01*
Y144380D01*
X313721D01*
Y144427D01*
X313744D01*
Y144450D01*
X313767D01*
Y144496D01*
X313790D01*
Y144519D01*
X313813D01*
Y144565D01*
X313836D01*
Y144611D01*
X313859D01*
Y144634D01*
X313882D01*
Y144681D01*
X313906D01*
Y144704D01*
X313929D01*
Y144773D01*
X313952D01*
Y144796D01*
X313975D01*
Y144819D01*
X313998D01*
Y144866D01*
X314021D01*
Y144889D01*
X314044D01*
Y144935D01*
X314067D01*
Y144958D01*
X314090D01*
Y145004D01*
X314113D01*
Y145050D01*
X314137D01*
Y145073D01*
X314160D01*
Y145120D01*
X314183D01*
Y145143D01*
X314206D01*
Y145212D01*
X314229D01*
Y145235D01*
X314252D01*
Y145282D01*
X314275D01*
Y145305D01*
X314298D01*
Y145328D01*
X314321D01*
Y145374D01*
X314345D01*
Y145420D01*
X314368D01*
Y145443D01*
X314391D01*
Y145490D01*
X314414D01*
Y145513D01*
X314437D01*
Y145559D01*
X314460D01*
Y145582D01*
X314483D01*
Y145628D01*
X314506D01*
Y145674D01*
X314529D01*
Y145721D01*
X314552D01*
Y145744D01*
X314576D01*
Y145790D01*
X314599D01*
Y145836D01*
X314622D01*
Y145859D01*
X314645D01*
Y145905D01*
X314668D01*
Y145929D01*
X314691D01*
Y145952D01*
X314714D01*
Y145998D01*
X314737D01*
Y146021D01*
X314760D01*
Y146067D01*
X314784D01*
Y146090D01*
X314807D01*
Y146137D01*
X314830D01*
Y146183D01*
X314853D01*
Y146206D01*
X314876D01*
Y146252D01*
X314899D01*
Y146275D01*
X314922D01*
Y146321D01*
X314945D01*
Y146368D01*
X314968D01*
Y146391D01*
X314992D01*
Y146437D01*
X315015D01*
Y146460D01*
X315038D01*
Y146506D01*
X315061D01*
Y146529D01*
X315084D01*
Y146576D01*
X315107D01*
Y146622D01*
X315130D01*
Y146645D01*
X315153D01*
Y146691D01*
X315177D01*
Y146714D01*
X315200D01*
Y146784D01*
X315269D01*
Y146668D01*
D02*
G37*
G36*
X291258Y143017D02*
X293708D01*
Y142994D01*
X293731D01*
Y142971D01*
X293708D01*
Y142947D01*
X293685D01*
Y142901D01*
X293662D01*
Y142878D01*
X293639D01*
Y142832D01*
X293616D01*
Y142809D01*
X293592D01*
Y142763D01*
X293569D01*
Y142739D01*
X293546D01*
Y142716D01*
X293523D01*
Y142647D01*
X293500D01*
Y142624D01*
X293477D01*
Y142578D01*
X293454D01*
Y142555D01*
X293431D01*
Y142532D01*
X293408D01*
Y142485D01*
X293385D01*
Y142462D01*
X293361D01*
Y142416D01*
X293338D01*
Y142393D01*
X293315D01*
Y142347D01*
X293292D01*
Y142300D01*
X293269D01*
Y142277D01*
X293246D01*
Y142231D01*
X293223D01*
Y142208D01*
X293200D01*
Y142162D01*
X293177D01*
Y142139D01*
X293153D01*
Y142092D01*
X293130D01*
Y142046D01*
X293107D01*
Y142023D01*
X293084D01*
Y141977D01*
X293061D01*
Y141954D01*
X293038D01*
Y141908D01*
X293015D01*
Y141884D01*
X292992D01*
Y141861D01*
X292969D01*
Y141815D01*
X292945D01*
Y141769D01*
X292922D01*
Y141746D01*
X292899D01*
Y141700D01*
X292876D01*
Y141676D01*
X292853D01*
Y141630D01*
X292830D01*
Y141607D01*
X292807D01*
Y141561D01*
X292784D01*
Y141515D01*
X292760D01*
Y141492D01*
X292737D01*
Y141445D01*
X292714D01*
Y141422D01*
X292691D01*
Y141376D01*
X292668D01*
Y141353D01*
X292645D01*
Y141307D01*
X292622D01*
Y141284D01*
X292599D01*
Y141237D01*
X292576D01*
Y141191D01*
X292552D01*
Y141168D01*
X292529D01*
Y141122D01*
X292506D01*
Y141099D01*
X292483D01*
Y141052D01*
X292460D01*
Y141029D01*
X292437D01*
Y141006D01*
X292414D01*
Y140960D01*
X292391D01*
Y140914D01*
X292368D01*
Y140891D01*
X292344D01*
Y140845D01*
X292321D01*
Y140821D01*
X292298D01*
Y140775D01*
X292275D01*
Y140752D01*
X292252D01*
Y140706D01*
X292229D01*
Y140683D01*
X292206D01*
Y140637D01*
X292183D01*
Y140590D01*
X292160D01*
Y140567D01*
X292137D01*
Y140521D01*
X292113D01*
Y140498D01*
X292090D01*
Y140452D01*
X292067D01*
Y140429D01*
X292044D01*
Y140382D01*
X292021D01*
Y140359D01*
X291998D01*
Y140313D01*
X291975D01*
Y140267D01*
X291952D01*
Y140244D01*
X291929D01*
Y140221D01*
X291905D01*
Y140174D01*
X291882D01*
Y140151D01*
X291859D01*
Y140105D01*
X291836D01*
Y140082D01*
X291813D01*
Y140036D01*
X291790D01*
Y139989D01*
X291767D01*
Y139966D01*
X291744D01*
Y139920D01*
X291721D01*
Y139897D01*
X291698D01*
Y139851D01*
X291674D01*
Y139828D01*
X291651D01*
Y139781D01*
X291628D01*
Y139735D01*
X291605D01*
Y139712D01*
X291582D01*
Y139666D01*
X291559D01*
Y139643D01*
X291536D01*
Y139597D01*
X291513D01*
Y139574D01*
X291490D01*
Y139527D01*
X291466D01*
Y139504D01*
X291443D01*
Y139458D01*
X291420D01*
Y139412D01*
X291397D01*
Y139389D01*
X291374D01*
Y139342D01*
X291351D01*
Y139319D01*
X291328D01*
Y139296D01*
X291305D01*
Y139250D01*
X291282D01*
Y139227D01*
X291258D01*
Y139181D01*
X291235D01*
Y139134D01*
X291212D01*
Y139111D01*
X291189D01*
Y139065D01*
X291166D01*
Y139042D01*
X291143D01*
Y138996D01*
X291120D01*
Y138973D01*
X291097D01*
Y138926D01*
X291073D01*
Y138880D01*
X291050D01*
Y138857D01*
X291027D01*
Y138811D01*
X291004D01*
Y138788D01*
X290981D01*
Y138742D01*
X290958D01*
Y138718D01*
X290935D01*
Y138672D01*
X290912D01*
Y138649D01*
X290889D01*
Y138603D01*
X290865D01*
Y138557D01*
X290842D01*
Y138534D01*
X290796D01*
Y139042D01*
X290773D01*
Y143017D01*
X290912D01*
Y143040D01*
X291258D01*
Y143017D01*
D02*
G37*
G36*
X301496Y143040D02*
X302166D01*
Y143017D01*
X302189D01*
Y134721D01*
X302166D01*
Y134697D01*
X298908D01*
Y134721D01*
X298885D01*
Y135345D01*
X298861D01*
Y136939D01*
X298838D01*
Y137008D01*
X298861D01*
Y137101D01*
X298838D01*
Y137124D01*
X298792D01*
Y137055D01*
X298769D01*
Y137031D01*
X298746D01*
Y136985D01*
X298723D01*
Y136939D01*
X298700D01*
Y136916D01*
X298676D01*
Y136893D01*
Y136870D01*
X298653D01*
Y136847D01*
X298630D01*
Y136800D01*
X298607D01*
Y136777D01*
X298584D01*
Y136731D01*
X298561D01*
Y136685D01*
X298538D01*
Y136662D01*
X298515D01*
Y136616D01*
X298492D01*
Y136592D01*
X298468D01*
Y136546D01*
X298445D01*
Y136523D01*
X298422D01*
Y136477D01*
X298399D01*
Y136431D01*
X298376D01*
Y136408D01*
X298353D01*
Y136361D01*
X298330D01*
Y136338D01*
X298307D01*
Y136292D01*
X298284D01*
Y136246D01*
X298260D01*
Y136223D01*
X298237D01*
Y136177D01*
X298214D01*
Y136153D01*
X298191D01*
Y136107D01*
X298168D01*
Y136084D01*
X298145D01*
Y136038D01*
X298122D01*
Y135992D01*
X298099D01*
Y135968D01*
X298076D01*
Y135922D01*
X298053D01*
Y135899D01*
X298029D01*
Y135853D01*
X298006D01*
Y135807D01*
X297983D01*
Y135784D01*
X297960D01*
Y135737D01*
X297937D01*
Y135714D01*
X297914D01*
Y135668D01*
X297891D01*
Y135622D01*
X297868D01*
Y135599D01*
X297845D01*
Y135553D01*
X297821D01*
Y135529D01*
X297798D01*
Y135483D01*
X297775D01*
Y135460D01*
X297752D01*
Y135414D01*
X297729D01*
Y135368D01*
X297706D01*
Y135345D01*
X297683D01*
Y135298D01*
X297660D01*
Y135275D01*
X297637D01*
Y135229D01*
X297614D01*
Y135183D01*
X297590D01*
Y135160D01*
X297567D01*
Y135113D01*
X297544D01*
Y135090D01*
X297521D01*
Y135044D01*
X297498D01*
Y134998D01*
X297475D01*
Y134975D01*
X297452D01*
Y134929D01*
X297429D01*
Y134906D01*
X297406D01*
Y134859D01*
X297382D01*
Y134836D01*
X297359D01*
Y134790D01*
X297336D01*
Y134744D01*
X297313D01*
Y134721D01*
X297290D01*
Y134697D01*
X294032D01*
Y134721D01*
X293731D01*
Y134744D01*
X293685D01*
Y134767D01*
X293662D01*
Y134813D01*
X293685D01*
Y134859D01*
X293708D01*
Y134882D01*
X293731D01*
Y134906D01*
X293754D01*
Y134975D01*
X293777D01*
Y134998D01*
X293800D01*
Y135044D01*
X293824D01*
Y135067D01*
X293847D01*
Y135113D01*
X293870D01*
Y135160D01*
X293893D01*
Y135183D01*
X293916D01*
Y135229D01*
X293939D01*
Y135252D01*
X293962D01*
Y135298D01*
X293985D01*
Y135345D01*
X294008D01*
Y135368D01*
X294032D01*
Y135414D01*
X294055D01*
Y135437D01*
X294078D01*
Y135483D01*
X294101D01*
Y135529D01*
X294124D01*
Y135553D01*
X294147D01*
Y135599D01*
X294170D01*
Y135622D01*
X294193D01*
Y135691D01*
X294216D01*
Y135714D01*
X294239D01*
Y135760D01*
X294263D01*
Y135784D01*
X294286D01*
Y135830D01*
X294309D01*
Y135853D01*
X294332D01*
Y135899D01*
X294355D01*
Y135945D01*
X294378D01*
Y135968D01*
X294401D01*
Y136015D01*
X294424D01*
Y136038D01*
X294447D01*
Y136084D01*
X294471D01*
Y136130D01*
X294494D01*
Y136153D01*
X294517D01*
Y136200D01*
X294540D01*
Y136223D01*
X294563D01*
Y136269D01*
X294586D01*
Y136315D01*
X294609D01*
Y136338D01*
X294632D01*
Y136384D01*
X294655D01*
Y136408D01*
X294679D01*
Y136454D01*
X294702D01*
Y136477D01*
X294725D01*
Y136500D01*
X294748D01*
Y136546D01*
X294771D01*
Y136569D01*
X294794D01*
Y136616D01*
X294817D01*
Y136639D01*
X294840D01*
Y136685D01*
X294864D01*
Y136731D01*
X294887D01*
Y136754D01*
X294910D01*
Y136800D01*
X294933D01*
Y136823D01*
X294956D01*
Y136870D01*
X294979D01*
Y136893D01*
X295002D01*
Y136939D01*
X295025D01*
Y136985D01*
X295048D01*
Y137008D01*
X295071D01*
Y137055D01*
X295094D01*
Y137078D01*
X295118D01*
Y137124D01*
X295141D01*
Y137170D01*
X295164D01*
Y137193D01*
X295187D01*
Y137240D01*
X295210D01*
Y137263D01*
X295233D01*
Y137309D01*
X295256D01*
Y137355D01*
X295279D01*
Y137378D01*
X295303D01*
Y137424D01*
X295326D01*
Y137448D01*
X295349D01*
Y137494D01*
X295372D01*
Y137517D01*
X295395D01*
Y137563D01*
X295418D01*
Y137609D01*
X295441D01*
Y137632D01*
X295464D01*
Y137679D01*
X295487D01*
Y137725D01*
X295511D01*
Y137771D01*
X295534D01*
Y137794D01*
X295557D01*
Y137840D01*
X295580D01*
Y137887D01*
X295603D01*
Y137910D01*
X295626D01*
Y137979D01*
X295603D01*
Y138002D01*
X295580D01*
Y138025D01*
X295557D01*
Y138048D01*
X295534D01*
Y138071D01*
X295511D01*
Y138094D01*
X295487D01*
Y138118D01*
X295464D01*
Y138164D01*
X295441D01*
Y138187D01*
X295418D01*
Y138210D01*
X295395D01*
Y138233D01*
X295372D01*
Y138256D01*
X295349D01*
Y138279D01*
X295326D01*
Y138303D01*
X295303D01*
Y138349D01*
X295279D01*
Y138372D01*
X295256D01*
Y138395D01*
X295233D01*
Y138418D01*
X295210D01*
Y138441D01*
X295187D01*
Y138487D01*
X295164D01*
Y138511D01*
X295141D01*
Y138557D01*
X295118D01*
Y138580D01*
X295094D01*
Y138626D01*
X295071D01*
Y138672D01*
X295048D01*
Y138695D01*
X295025D01*
Y138742D01*
X295002D01*
Y138788D01*
X294979D01*
Y138834D01*
X294956D01*
Y138880D01*
X294933D01*
Y138903D01*
X294910D01*
Y138973D01*
X294887D01*
Y139019D01*
X294864D01*
Y139088D01*
X294840D01*
Y139134D01*
X294817D01*
Y139204D01*
X294794D01*
Y139273D01*
X294771D01*
Y139342D01*
X294748D01*
Y139458D01*
X294725D01*
Y139527D01*
X294702D01*
Y139666D01*
X294679D01*
Y139828D01*
X294655D01*
Y140059D01*
X294632D01*
Y140336D01*
X294655D01*
Y140544D01*
X294679D01*
Y140729D01*
X294702D01*
Y140845D01*
X294725D01*
Y140937D01*
X294748D01*
Y141052D01*
X294771D01*
Y141099D01*
X294794D01*
Y141214D01*
X294817D01*
Y141261D01*
X294840D01*
Y141307D01*
X294864D01*
Y141376D01*
X294887D01*
Y141422D01*
X294910D01*
Y141492D01*
X294933D01*
Y141515D01*
X294956D01*
Y141561D01*
X294979D01*
Y141607D01*
X295002D01*
Y141653D01*
X295025D01*
Y141700D01*
X295048D01*
Y141723D01*
X295071D01*
Y141769D01*
X295094D01*
Y141792D01*
X295118D01*
Y141815D01*
X295141D01*
Y141861D01*
X295164D01*
Y141884D01*
X295187D01*
Y141931D01*
X295210D01*
Y141954D01*
X295233D01*
Y141977D01*
X295256D01*
Y142000D01*
X295279D01*
Y142023D01*
X295303D01*
Y142046D01*
X295326D01*
Y142069D01*
X295349D01*
Y142115D01*
X295372D01*
Y142139D01*
X295418D01*
Y142162D01*
X295441D01*
Y142185D01*
X295464D01*
Y142208D01*
X295487D01*
Y142231D01*
X295511D01*
Y142254D01*
X295534D01*
Y142277D01*
X295557D01*
Y142300D01*
X295603D01*
Y142324D01*
X295626D01*
Y142347D01*
X295672D01*
Y142370D01*
X295695D01*
Y142393D01*
X295719D01*
Y142416D01*
X295765D01*
Y142439D01*
X295788D01*
Y142462D01*
X295857D01*
Y142485D01*
X295880D01*
Y142508D01*
X295926D01*
Y142532D01*
X295973D01*
Y142555D01*
X296019D01*
Y142578D01*
X296065D01*
Y142601D01*
X296111D01*
Y142624D01*
X296158D01*
Y142647D01*
X296204D01*
Y142670D01*
X296250D01*
Y142693D01*
X296319D01*
Y142716D01*
X296365D01*
Y142739D01*
X296458D01*
Y142763D01*
X296504D01*
Y142786D01*
X296573D01*
Y142809D01*
X296620D01*
Y142832D01*
X296689D01*
Y142855D01*
X296805D01*
Y142878D01*
X296851D01*
Y142901D01*
X296989D01*
Y142924D01*
X297082D01*
Y142947D01*
X297198D01*
Y142971D01*
X297382D01*
Y142994D01*
X297475D01*
Y143017D01*
X298006D01*
Y143040D01*
X298746D01*
Y143063D01*
X301496D01*
Y143040D01*
D02*
G37*
G36*
X294008Y142347D02*
X294032D01*
Y141977D01*
X294055D01*
Y141261D01*
X294078D01*
Y136361D01*
X294055D01*
Y136338D01*
X294032D01*
Y136292D01*
X294008D01*
Y136246D01*
X293985D01*
Y136223D01*
X293962D01*
Y136177D01*
X293939D01*
Y136153D01*
X293916D01*
Y136107D01*
X293893D01*
Y136084D01*
X293870D01*
Y136038D01*
X293847D01*
Y135992D01*
X293824D01*
Y135968D01*
X293800D01*
Y135922D01*
X293777D01*
Y135899D01*
X293754D01*
Y135853D01*
X293731D01*
Y135807D01*
X293708D01*
Y135784D01*
X293685D01*
Y135737D01*
X293662D01*
Y135714D01*
X293639D01*
Y135668D01*
X293616D01*
Y135645D01*
X293592D01*
Y135599D01*
X293569D01*
Y135553D01*
X293546D01*
Y135529D01*
X293523D01*
Y135483D01*
X293500D01*
Y135460D01*
X293477D01*
Y135414D01*
X293454D01*
Y135391D01*
X293431D01*
Y135345D01*
X293408D01*
Y135298D01*
X293385D01*
Y135275D01*
X293361D01*
Y135229D01*
X293338D01*
Y135206D01*
X293315D01*
Y135160D01*
X293292D01*
Y135137D01*
X293269D01*
Y135090D01*
X293246D01*
Y135044D01*
X293223D01*
Y135021D01*
X293200D01*
Y134975D01*
X293177D01*
Y134952D01*
X293153D01*
Y134906D01*
X293130D01*
Y134882D01*
X293107D01*
Y134859D01*
X293084D01*
Y134813D01*
X293061D01*
Y134767D01*
X293038D01*
Y134744D01*
X293015D01*
Y134697D01*
X288092D01*
Y137355D01*
X290773D01*
Y137378D01*
X290796D01*
Y137401D01*
X290819D01*
Y137424D01*
X290842D01*
Y137471D01*
X290865D01*
Y137517D01*
X290889D01*
Y137540D01*
X290912D01*
Y137586D01*
X290935D01*
Y137609D01*
X290958D01*
Y137632D01*
X290981D01*
Y137679D01*
X291004D01*
Y137725D01*
X291027D01*
Y137771D01*
X291050D01*
Y137794D01*
X291073D01*
Y137840D01*
X291097D01*
Y137863D01*
X291120D01*
Y137887D01*
X291143D01*
Y137956D01*
X291166D01*
Y137979D01*
X291189D01*
Y138025D01*
X291212D01*
Y138048D01*
X291235D01*
Y138094D01*
X291258D01*
Y138141D01*
X291282D01*
Y138164D01*
X291305D01*
Y138210D01*
X291328D01*
Y138233D01*
X291351D01*
Y138279D01*
X291374D01*
Y138303D01*
X291397D01*
Y138326D01*
X291420D01*
Y138395D01*
X291443D01*
Y138418D01*
X291466D01*
Y138464D01*
X291490D01*
Y138487D01*
X291513D01*
Y138511D01*
X291536D01*
Y138557D01*
X291559D01*
Y138580D01*
X291582D01*
Y138626D01*
X291605D01*
Y138672D01*
X291628D01*
Y138695D01*
X291651D01*
Y138742D01*
X291674D01*
Y138765D01*
X291698D01*
Y138811D01*
X291721D01*
Y138857D01*
X291744D01*
Y138880D01*
X291767D01*
Y138926D01*
X291790D01*
Y138950D01*
X291813D01*
Y138996D01*
X291836D01*
Y139019D01*
X291859D01*
Y139065D01*
X291882D01*
Y139111D01*
X291905D01*
Y139134D01*
X291929D01*
Y139181D01*
X291952D01*
Y139204D01*
X291975D01*
Y139250D01*
X291998D01*
Y139273D01*
X292021D01*
Y139319D01*
X292044D01*
Y139365D01*
X292067D01*
Y139389D01*
X292090D01*
Y139435D01*
X292113D01*
Y139458D01*
X292137D01*
Y139504D01*
X292160D01*
Y139550D01*
X292183D01*
Y139574D01*
X292206D01*
Y139620D01*
X292229D01*
Y139643D01*
X292252D01*
Y139689D01*
X292275D01*
Y139712D01*
X292298D01*
Y139758D01*
X292321D01*
Y139805D01*
X292344D01*
Y139828D01*
X292368D01*
Y139874D01*
X292391D01*
Y139897D01*
X292414D01*
Y139943D01*
X292437D01*
Y139966D01*
X292460D01*
Y140013D01*
X292483D01*
Y140036D01*
X292506D01*
Y140059D01*
X292529D01*
Y140105D01*
X292552D01*
Y140151D01*
X292576D01*
Y140174D01*
X292599D01*
Y140221D01*
X292622D01*
Y140244D01*
X292645D01*
Y140290D01*
X292668D01*
Y140313D01*
X292691D01*
Y140359D01*
X292714D01*
Y140405D01*
X292737D01*
Y140429D01*
X292760D01*
Y140475D01*
X292784D01*
Y140498D01*
X292807D01*
Y140544D01*
X292830D01*
Y140567D01*
X292853D01*
Y140613D01*
X292876D01*
Y140660D01*
X292899D01*
Y140683D01*
X292922D01*
Y140729D01*
X292945D01*
Y140752D01*
X292969D01*
Y140798D01*
X292992D01*
Y140821D01*
X293015D01*
Y140868D01*
X293038D01*
Y140914D01*
X293061D01*
Y140937D01*
X293084D01*
Y140983D01*
X293107D01*
Y141006D01*
X293130D01*
Y141052D01*
X293153D01*
Y141076D01*
X293177D01*
Y141099D01*
X293200D01*
Y141145D01*
X293223D01*
Y141168D01*
X293246D01*
Y141237D01*
X293269D01*
Y141261D01*
X293292D01*
Y141284D01*
X293315D01*
Y141330D01*
X293338D01*
Y141353D01*
X293361D01*
Y141399D01*
X293385D01*
Y141422D01*
X293408D01*
Y141469D01*
X293431D01*
Y141515D01*
X293454D01*
Y141538D01*
X293477D01*
Y141584D01*
X293500D01*
Y141607D01*
X293523D01*
Y141653D01*
X293546D01*
Y141676D01*
X293569D01*
Y141723D01*
X293592D01*
Y141769D01*
X293616D01*
Y141792D01*
X293639D01*
Y141838D01*
X293662D01*
Y141861D01*
X293685D01*
Y141908D01*
X293708D01*
Y141954D01*
X293731D01*
Y141977D01*
X293754D01*
Y142023D01*
X293777D01*
Y142046D01*
X293800D01*
Y142092D01*
X293824D01*
Y142115D01*
X293847D01*
Y142162D01*
X293870D01*
Y142185D01*
X293893D01*
Y142208D01*
X293916D01*
Y142254D01*
X293939D01*
Y142300D01*
X293962D01*
Y142347D01*
X293985D01*
Y142370D01*
X294008D01*
Y142347D01*
D02*
G37*
G36*
X309227Y121477D02*
X309318D01*
Y121432D01*
X309409D01*
Y121341D01*
X309364D01*
Y121295D01*
X309318D01*
Y121250D01*
X309000D01*
Y121204D01*
X308773D01*
Y121159D01*
X308591D01*
Y121114D01*
X308545D01*
Y121023D01*
X308500D01*
Y119023D01*
X308454D01*
Y118886D01*
Y118841D01*
X308409D01*
Y118796D01*
X308273D01*
Y118841D01*
X308227D01*
Y120750D01*
X308182D01*
Y120841D01*
X308227D01*
Y120932D01*
X308182D01*
Y121068D01*
X308136D01*
Y121114D01*
X308091D01*
Y121159D01*
X308045D01*
Y121204D01*
X307864D01*
Y121250D01*
X307364D01*
Y121295D01*
X307318D01*
Y121341D01*
X307273D01*
Y121432D01*
X307364D01*
Y121477D01*
X307454D01*
Y121523D01*
X308318D01*
Y121477D01*
X308364D01*
Y121523D01*
X309227D01*
Y121477D01*
D02*
G37*
G36*
X302682Y121432D02*
X302773D01*
Y121386D01*
X302818D01*
Y121295D01*
X302773D01*
Y121204D01*
X302818D01*
Y120704D01*
X302773D01*
Y118977D01*
X302727D01*
Y118886D01*
X302682D01*
Y118841D01*
X302545D01*
Y119023D01*
X302500D01*
Y120114D01*
X302545D01*
Y120341D01*
X302500D01*
Y120477D01*
X302454D01*
Y120659D01*
X302409D01*
Y120704D01*
X302318D01*
Y120614D01*
X302273D01*
Y120523D01*
X302227D01*
Y120432D01*
X302182D01*
Y120386D01*
X302136D01*
Y120341D01*
X302091D01*
Y120250D01*
X302045D01*
Y120204D01*
X302000D01*
Y120114D01*
X301955D01*
Y120068D01*
X301909D01*
Y120023D01*
X301864D01*
Y119932D01*
X301818D01*
Y119841D01*
X301773D01*
Y119796D01*
X301727D01*
Y119750D01*
X301682D01*
Y119704D01*
X301636D01*
Y119659D01*
X301591D01*
Y119614D01*
X301454D01*
Y119750D01*
X301409D01*
Y119796D01*
X301364D01*
Y119841D01*
X301318D01*
Y119886D01*
X301273D01*
Y119932D01*
X301227D01*
Y120023D01*
X301182D01*
Y120068D01*
X301136D01*
Y120204D01*
X301091D01*
Y120250D01*
X301045D01*
Y120341D01*
X301000D01*
Y120432D01*
X300955D01*
Y120477D01*
X300909D01*
Y120523D01*
X300864D01*
Y120568D01*
X300773D01*
Y120659D01*
X300727D01*
Y120750D01*
X300591D01*
Y118886D01*
X300545D01*
Y118841D01*
X300500D01*
Y118796D01*
X300454D01*
Y118750D01*
X300409D01*
Y118796D01*
X300364D01*
Y118841D01*
X300318D01*
Y120386D01*
X300273D01*
Y121114D01*
X300318D01*
Y121204D01*
X300273D01*
Y121432D01*
X300364D01*
Y121477D01*
X300636D01*
Y121432D01*
X300682D01*
Y121386D01*
X300727D01*
Y121341D01*
X300773D01*
Y121250D01*
X300818D01*
Y121204D01*
X300864D01*
Y121159D01*
X300909D01*
Y121068D01*
X300955D01*
Y120977D01*
X301000D01*
Y120886D01*
X301045D01*
Y120841D01*
X301091D01*
Y120750D01*
X301136D01*
Y120704D01*
X301182D01*
Y120614D01*
X301227D01*
Y120568D01*
X301273D01*
Y120477D01*
X301318D01*
Y120432D01*
X301364D01*
Y120386D01*
Y120341D01*
X301409D01*
Y120296D01*
X301454D01*
Y120204D01*
X301591D01*
Y120250D01*
X301682D01*
Y120296D01*
X301727D01*
Y120341D01*
X301773D01*
Y120386D01*
X301818D01*
Y120477D01*
X301864D01*
Y120523D01*
X301909D01*
Y120614D01*
X301955D01*
Y120659D01*
X302000D01*
Y120750D01*
X302045D01*
Y120796D01*
X302091D01*
Y120886D01*
X302136D01*
Y120977D01*
X302182D01*
Y121023D01*
X302227D01*
Y121068D01*
X302273D01*
Y121159D01*
X302318D01*
Y121250D01*
X302364D01*
Y121295D01*
X302409D01*
Y121386D01*
X302454D01*
Y121432D01*
X302500D01*
Y121477D01*
X302682D01*
Y121432D01*
D02*
G37*
G36*
X325909Y128159D02*
X325955D01*
Y128114D01*
X326045D01*
Y128068D01*
X326136D01*
Y128023D01*
X326227D01*
Y127977D01*
X326318D01*
Y127932D01*
X326364D01*
Y127886D01*
X326454D01*
Y127841D01*
X326545D01*
Y127796D01*
X326591D01*
Y127750D01*
X326727D01*
Y127705D01*
X326773D01*
Y127659D01*
X326864D01*
Y127614D01*
X326909D01*
Y127568D01*
X327000D01*
Y127523D01*
X327091D01*
Y127477D01*
X327182D01*
Y127432D01*
X327273D01*
Y127386D01*
X327318D01*
Y127341D01*
X327364D01*
Y127295D01*
X327454D01*
Y127250D01*
X327500D01*
Y127205D01*
X327636D01*
Y127159D01*
X327682D01*
Y127114D01*
X327818D01*
Y127068D01*
X327864D01*
Y127023D01*
X327955D01*
Y126977D01*
X328000D01*
Y126932D01*
X328045D01*
Y126886D01*
X328136D01*
Y126841D01*
X328227D01*
Y126795D01*
X328318D01*
Y126750D01*
X328364D01*
Y126705D01*
X328409D01*
Y126659D01*
X328500D01*
Y126614D01*
X328591D01*
Y126568D01*
X328682D01*
Y126523D01*
X328727D01*
Y126477D01*
X328818D01*
Y126432D01*
X328864D01*
Y126386D01*
X328909D01*
Y126295D01*
X328955D01*
Y126068D01*
X329000D01*
Y125977D01*
X329045D01*
Y120296D01*
X329000D01*
Y120250D01*
X328955D01*
Y120204D01*
X328909D01*
Y120159D01*
X328773D01*
Y120204D01*
X328682D01*
Y120250D01*
X328591D01*
Y120296D01*
X328500D01*
Y120341D01*
X328409D01*
Y120386D01*
X328318D01*
Y120432D01*
X328273D01*
Y120477D01*
X328182D01*
Y120523D01*
X328136D01*
Y120568D01*
X328045D01*
Y120614D01*
X328000D01*
Y120659D01*
X327864D01*
Y120704D01*
X327773D01*
Y120750D01*
X327727D01*
Y120796D01*
X327682D01*
Y120841D01*
X327636D01*
Y120886D01*
X327500D01*
Y120932D01*
X327409D01*
Y120977D01*
X327364D01*
Y121023D01*
X327273D01*
Y121068D01*
X327227D01*
Y121114D01*
X327091D01*
Y121159D01*
X327045D01*
Y121204D01*
X326955D01*
Y121250D01*
X326909D01*
Y121295D01*
X326818D01*
Y121341D01*
X326727D01*
Y121386D01*
X326682D01*
Y121432D01*
X326591D01*
Y121477D01*
X326545D01*
Y121523D01*
X326454D01*
Y121568D01*
X326364D01*
Y121614D01*
X326318D01*
Y121659D01*
X326227D01*
Y121704D01*
X326182D01*
Y121750D01*
X326136D01*
Y121795D01*
X326091D01*
Y121841D01*
X326045D01*
Y122114D01*
X326000D01*
Y124977D01*
X325955D01*
Y125023D01*
X325909D01*
Y125068D01*
X325773D01*
Y125023D01*
X325727D01*
Y124977D01*
X325636D01*
Y124932D01*
X325545D01*
Y124886D01*
X325500D01*
Y124841D01*
X325409D01*
Y124795D01*
X325364D01*
Y124750D01*
X325273D01*
Y124705D01*
X325182D01*
Y124659D01*
X325136D01*
Y124614D01*
X325045D01*
Y124568D01*
X324955D01*
Y124523D01*
X324909D01*
Y124477D01*
X324818D01*
Y124432D01*
X324727D01*
Y124386D01*
X324636D01*
Y124341D01*
X324591D01*
Y124295D01*
X324454D01*
Y124250D01*
X324409D01*
Y124205D01*
X324364D01*
Y124159D01*
X324273D01*
Y124114D01*
X324227D01*
Y124068D01*
X324091D01*
Y124023D01*
X324045D01*
Y123977D01*
X323955D01*
Y123932D01*
X323909D01*
Y123886D01*
X323864D01*
Y123841D01*
X323727D01*
Y123795D01*
X323682D01*
Y123750D01*
X323591D01*
Y123705D01*
X323500D01*
Y123659D01*
X323409D01*
Y123614D01*
X323318D01*
Y123568D01*
X323273D01*
Y123523D01*
X323227D01*
Y123477D01*
X323136D01*
Y123432D01*
X323045D01*
Y123386D01*
X322955D01*
Y123341D01*
X322909D01*
Y123295D01*
X322818D01*
Y123250D01*
X322773D01*
Y123205D01*
X322682D01*
Y123159D01*
X322591D01*
Y123114D01*
X322545D01*
Y123068D01*
X322455D01*
Y123023D01*
X322364D01*
Y122977D01*
X322273D01*
Y122932D01*
X322227D01*
Y122886D01*
X322136D01*
Y122841D01*
X322091D01*
Y122795D01*
X322000D01*
Y122750D01*
X321909D01*
Y122705D01*
X321864D01*
Y122659D01*
X321773D01*
Y122614D01*
X321727D01*
Y122568D01*
X321636D01*
Y122523D01*
X321545D01*
Y122477D01*
X321500D01*
Y122432D01*
X321364D01*
Y122386D01*
X321318D01*
Y122341D01*
X321227D01*
Y122295D01*
X321136D01*
Y122250D01*
X321091D01*
Y122204D01*
X321045D01*
Y122159D01*
X320954D01*
Y122114D01*
X320864D01*
Y122068D01*
X320818D01*
Y122023D01*
X320727D01*
Y121977D01*
X320636D01*
Y121932D01*
X320591D01*
Y121886D01*
X320500D01*
Y121841D01*
X320455D01*
Y121795D01*
X320409D01*
Y121750D01*
X320364D01*
Y121704D01*
X320318D01*
Y121659D01*
X320227D01*
Y121568D01*
X320182D01*
Y121523D01*
X320136D01*
Y121432D01*
X320091D01*
Y119841D01*
X320045D01*
Y119659D01*
X320000D01*
Y115341D01*
X320045D01*
Y115114D01*
X320091D01*
Y114750D01*
X320136D01*
Y114614D01*
X320182D01*
Y114523D01*
X320227D01*
Y114477D01*
X320273D01*
Y114432D01*
X320364D01*
Y114386D01*
X320409D01*
Y114341D01*
X320500D01*
Y114295D01*
X320545D01*
Y114250D01*
X320636D01*
Y114205D01*
X320682D01*
Y114159D01*
X320773D01*
Y114114D01*
X320818D01*
Y114068D01*
X320909D01*
Y114023D01*
X321000D01*
Y113977D01*
X321045D01*
Y113932D01*
X321136D01*
Y113886D01*
X321182D01*
Y113841D01*
X321227D01*
Y113795D01*
X321364D01*
Y113750D01*
X321409D01*
Y113705D01*
X321500D01*
Y113659D01*
X321591D01*
Y113614D01*
X321682D01*
Y113568D01*
X321727D01*
Y113523D01*
X321773D01*
Y113477D01*
X321864D01*
Y113432D01*
X321909D01*
Y113386D01*
X322045D01*
Y113341D01*
X322136D01*
Y113295D01*
X322182D01*
Y113250D01*
X322273D01*
Y113205D01*
X322318D01*
Y113159D01*
X322409D01*
Y113114D01*
X322500D01*
Y113068D01*
X322591D01*
Y113023D01*
X322636D01*
Y112977D01*
X322727D01*
Y112932D01*
X322818D01*
Y112886D01*
X322864D01*
Y112841D01*
X322909D01*
Y112795D01*
X323000D01*
Y112750D01*
X323091D01*
Y112705D01*
X323182D01*
Y112659D01*
X323227D01*
Y112614D01*
X323318D01*
Y112568D01*
X323364D01*
Y112523D01*
X323454D01*
Y112477D01*
X323545D01*
Y112432D01*
X323636D01*
Y112386D01*
X323727D01*
Y112341D01*
X323773D01*
Y112295D01*
X323864D01*
Y112250D01*
X323909D01*
Y112205D01*
X324000D01*
Y112159D01*
X324045D01*
Y112114D01*
X324136D01*
Y112068D01*
X324227D01*
Y112023D01*
X324318D01*
Y111977D01*
X324364D01*
Y111932D01*
X324454D01*
Y111886D01*
X324500D01*
Y111841D01*
X324636D01*
Y111795D01*
X324682D01*
Y111750D01*
X324773D01*
Y111705D01*
X324864D01*
Y111659D01*
X324909D01*
Y111614D01*
X325000D01*
Y111568D01*
X325045D01*
Y111523D01*
X325136D01*
Y111477D01*
X325227D01*
Y111432D01*
X325318D01*
Y111386D01*
X325409D01*
Y111341D01*
X325454D01*
Y111295D01*
X325500D01*
Y111250D01*
X325545D01*
Y111205D01*
X325682D01*
Y111159D01*
X325727D01*
Y111114D01*
X325773D01*
Y111068D01*
X325909D01*
Y111114D01*
X325955D01*
Y111205D01*
X326000D01*
Y114023D01*
X325955D01*
Y114477D01*
X325909D01*
Y114614D01*
X325864D01*
Y114659D01*
X325773D01*
Y114705D01*
X325727D01*
Y114750D01*
X325636D01*
Y114795D01*
X325591D01*
Y114841D01*
X325545D01*
Y114886D01*
X325454D01*
Y114932D01*
X325364D01*
Y114977D01*
X325273D01*
Y115023D01*
X325182D01*
Y115068D01*
X325136D01*
Y115114D01*
X325045D01*
Y115159D01*
X325000D01*
Y115205D01*
X324909D01*
Y115250D01*
X324818D01*
Y115296D01*
X324727D01*
Y115341D01*
X324636D01*
Y115386D01*
X324591D01*
Y115432D01*
X324545D01*
Y115477D01*
X324454D01*
Y115523D01*
X324409D01*
Y115568D01*
X324273D01*
Y115614D01*
X324227D01*
Y115659D01*
X324136D01*
Y115705D01*
X324045D01*
Y115750D01*
X324000D01*
Y115796D01*
X323909D01*
Y115841D01*
X323864D01*
Y115886D01*
X323773D01*
Y115932D01*
X323682D01*
Y115977D01*
X323591D01*
Y116023D01*
X323545D01*
Y116068D01*
X323454D01*
Y116114D01*
X323409D01*
Y116159D01*
X323364D01*
Y116205D01*
X323227D01*
Y116250D01*
X323182D01*
Y116296D01*
X323136D01*
Y116341D01*
X323091D01*
Y116386D01*
X323045D01*
Y116477D01*
X323000D01*
Y119523D01*
X323045D01*
Y119659D01*
X323091D01*
Y119750D01*
X323182D01*
Y119796D01*
X323364D01*
Y119750D01*
X323409D01*
Y119704D01*
X323500D01*
Y119659D01*
X323545D01*
Y119614D01*
X323682D01*
Y119568D01*
X323773D01*
Y119523D01*
X323818D01*
Y119477D01*
X323909D01*
Y119432D01*
X323955D01*
Y119386D01*
X324045D01*
Y119341D01*
X324136D01*
Y119296D01*
X324182D01*
Y119250D01*
X324273D01*
Y119204D01*
X324364D01*
Y119159D01*
X324454D01*
Y119114D01*
X324500D01*
Y119068D01*
X324591D01*
Y119023D01*
X324636D01*
Y118977D01*
X324727D01*
Y118932D01*
X324818D01*
Y118886D01*
X324909D01*
Y118841D01*
X324955D01*
Y118796D01*
X325000D01*
Y118750D01*
X325091D01*
Y118704D01*
X325182D01*
Y118659D01*
X325227D01*
Y118614D01*
X325364D01*
Y118568D01*
X325409D01*
Y118523D01*
X325500D01*
Y118477D01*
X325591D01*
Y118432D01*
X325636D01*
Y118386D01*
X325727D01*
Y118341D01*
X325773D01*
Y118296D01*
X325864D01*
Y118250D01*
X325955D01*
Y118204D01*
X326000D01*
Y118159D01*
X326091D01*
Y118114D01*
X326136D01*
Y118068D01*
X326227D01*
Y118023D01*
X326318D01*
Y117977D01*
X326409D01*
Y117932D01*
X326500D01*
Y117886D01*
X326545D01*
Y117841D01*
X326682D01*
Y117796D01*
X326727D01*
Y117750D01*
X326773D01*
Y117704D01*
X326864D01*
Y117659D01*
X326909D01*
Y117614D01*
X327045D01*
Y117568D01*
X327091D01*
Y117523D01*
X327182D01*
Y117477D01*
X327227D01*
Y117432D01*
X327318D01*
Y117386D01*
X327409D01*
Y117341D01*
X327454D01*
Y117296D01*
X327591D01*
Y117250D01*
X327636D01*
Y117204D01*
X327727D01*
Y117159D01*
X327773D01*
Y117114D01*
X327818D01*
Y117068D01*
X327909D01*
Y117023D01*
X328000D01*
Y116977D01*
X328091D01*
Y116932D01*
X328136D01*
Y116886D01*
X328182D01*
Y116841D01*
X328273D01*
Y116796D01*
X328318D01*
Y116750D01*
X328454D01*
Y116704D01*
X328500D01*
Y116659D01*
X328545D01*
Y116614D01*
X328636D01*
Y116568D01*
X328682D01*
Y116523D01*
X328773D01*
Y116477D01*
X328818D01*
Y116432D01*
X328864D01*
Y116386D01*
X328909D01*
Y116341D01*
X328955D01*
Y116205D01*
X329000D01*
Y116159D01*
X329045D01*
Y110114D01*
X329000D01*
Y110068D01*
X328955D01*
Y109841D01*
X328909D01*
Y109795D01*
X328864D01*
Y109750D01*
X328818D01*
Y109704D01*
X328773D01*
Y109659D01*
X328682D01*
Y109614D01*
X328636D01*
Y109568D01*
X328545D01*
Y109523D01*
X328454D01*
Y109477D01*
X328409D01*
Y109432D01*
X328318D01*
Y109386D01*
X328273D01*
Y109341D01*
X328182D01*
Y109295D01*
X328091D01*
Y109250D01*
X328000D01*
Y109204D01*
X327955D01*
Y109159D01*
X327909D01*
Y109114D01*
X327818D01*
Y109068D01*
X327727D01*
Y109023D01*
X327636D01*
Y108977D01*
X327591D01*
Y108932D01*
X327500D01*
Y108886D01*
X327409D01*
Y108841D01*
X327364D01*
Y108795D01*
X327273D01*
Y108750D01*
X327227D01*
Y108704D01*
X327136D01*
Y108659D01*
X327045D01*
Y108614D01*
X326955D01*
Y108568D01*
X326909D01*
Y108523D01*
X326864D01*
Y108477D01*
X326727D01*
Y108432D01*
X326682D01*
Y108386D01*
X326591D01*
Y108341D01*
X326500D01*
Y108296D01*
X326454D01*
Y108250D01*
X326318D01*
Y108204D01*
X326273D01*
Y108159D01*
X326182D01*
Y108114D01*
X326091D01*
Y108068D01*
X326045D01*
Y108023D01*
X325909D01*
Y107977D01*
X325864D01*
Y107932D01*
X325818D01*
Y107886D01*
X325727D01*
Y107841D01*
X325273D01*
Y107886D01*
X325136D01*
Y107932D01*
X325091D01*
Y107977D01*
X325000D01*
Y108023D01*
X324864D01*
Y108068D01*
X324818D01*
Y108114D01*
X324727D01*
Y108159D01*
X324682D01*
Y108204D01*
X324591D01*
Y108250D01*
X324500D01*
Y108296D01*
X324409D01*
Y108341D01*
X324364D01*
Y108386D01*
X324318D01*
Y108432D01*
X324227D01*
Y108477D01*
X324136D01*
Y108523D01*
X324045D01*
Y108568D01*
X323955D01*
Y108614D01*
X323909D01*
Y108659D01*
X323818D01*
Y108704D01*
X323727D01*
Y108750D01*
X323682D01*
Y108795D01*
X323591D01*
Y108841D01*
X323545D01*
Y108886D01*
X323454D01*
Y108932D01*
X323364D01*
Y108977D01*
X323318D01*
Y109023D01*
X323227D01*
Y109068D01*
X323182D01*
Y109114D01*
X323091D01*
Y109159D01*
X323000D01*
Y109204D01*
X322909D01*
Y109250D01*
X322818D01*
Y109295D01*
X322773D01*
Y109341D01*
X322636D01*
Y109386D01*
X322591D01*
Y109432D01*
X322545D01*
Y109477D01*
X322455D01*
Y109523D01*
X322364D01*
Y109568D01*
X322273D01*
Y109614D01*
X322227D01*
Y109659D01*
X322136D01*
Y109704D01*
X322091D01*
Y109750D01*
X322000D01*
Y109795D01*
X321909D01*
Y109841D01*
X321864D01*
Y109886D01*
X321773D01*
Y109932D01*
X321682D01*
Y109977D01*
X321591D01*
Y110023D01*
X321545D01*
Y110068D01*
X321455D01*
Y110114D01*
X321364D01*
Y110159D01*
X321318D01*
Y110205D01*
X321227D01*
Y110250D01*
X321136D01*
Y110295D01*
X321091D01*
Y110341D01*
X321045D01*
Y110386D01*
X320954D01*
Y110432D01*
X320864D01*
Y110477D01*
X320773D01*
Y110523D01*
X320727D01*
Y110568D01*
X320636D01*
Y110614D01*
X320545D01*
Y110659D01*
X320455D01*
Y110705D01*
X320409D01*
Y110750D01*
X320318D01*
Y110795D01*
X320273D01*
Y110841D01*
X320182D01*
Y110886D01*
X320091D01*
Y110932D01*
X320045D01*
Y110977D01*
X319954D01*
Y111023D01*
X319909D01*
Y111068D01*
X319818D01*
Y111114D01*
X319727D01*
Y111159D01*
X319682D01*
Y111205D01*
X319545D01*
Y111250D01*
X319500D01*
Y111295D01*
X319409D01*
Y111341D01*
X319364D01*
Y111386D01*
X319273D01*
Y111432D01*
X319182D01*
Y111477D01*
X319136D01*
Y111523D01*
X319045D01*
Y111568D01*
X319000D01*
Y111614D01*
X318909D01*
Y111659D01*
X318818D01*
Y111705D01*
X318773D01*
Y111750D01*
X318682D01*
Y111795D01*
X318591D01*
Y111841D01*
X318500D01*
Y111886D01*
X318455D01*
Y111932D01*
X318364D01*
Y111977D01*
X318273D01*
Y112023D01*
X318227D01*
Y112068D01*
X318136D01*
Y112114D01*
X318045D01*
Y112159D01*
X317954D01*
Y112205D01*
X317909D01*
Y112250D01*
X317864D01*
Y112295D01*
X317773D01*
Y112341D01*
X317727D01*
Y112386D01*
X317636D01*
Y112432D01*
X317591D01*
Y112477D01*
X317500D01*
Y112523D01*
X317409D01*
Y112568D01*
X317364D01*
Y112614D01*
X317273D01*
Y112705D01*
X317227D01*
Y112750D01*
X317182D01*
Y112795D01*
X317136D01*
Y112886D01*
X317091D01*
Y112977D01*
X317045D01*
Y123114D01*
X317091D01*
Y123205D01*
X317136D01*
Y123250D01*
X317182D01*
Y123341D01*
X317227D01*
Y123386D01*
X317273D01*
Y123432D01*
X317318D01*
Y123477D01*
X317364D01*
Y123523D01*
X317409D01*
Y123568D01*
X317500D01*
Y123614D01*
X317591D01*
Y123659D01*
X317682D01*
Y123705D01*
X317727D01*
Y123750D01*
X317773D01*
Y123795D01*
X317818D01*
Y123841D01*
X317909D01*
Y123886D01*
X318000D01*
Y123932D01*
X318091D01*
Y123977D01*
X318136D01*
Y124023D01*
X318227D01*
Y124068D01*
X318318D01*
Y124114D01*
X318364D01*
Y124159D01*
X318455D01*
Y124205D01*
X318500D01*
Y124250D01*
X318591D01*
Y124295D01*
X318682D01*
Y124341D01*
X318727D01*
Y124386D01*
X318818D01*
Y124432D01*
X318864D01*
Y124477D01*
X318954D01*
Y124523D01*
X319045D01*
Y124568D01*
X319136D01*
Y124614D01*
X319227D01*
Y124659D01*
X319273D01*
Y124705D01*
X319364D01*
Y124750D01*
X319455D01*
Y124795D01*
X319500D01*
Y124841D01*
X319545D01*
Y124886D01*
X319636D01*
Y124932D01*
X319727D01*
Y124977D01*
X319818D01*
Y125023D01*
X319864D01*
Y125068D01*
X319954D01*
Y125114D01*
X320000D01*
Y125159D01*
X320136D01*
Y125205D01*
X320182D01*
Y125250D01*
X320273D01*
Y125295D01*
X320318D01*
Y125341D01*
X320409D01*
Y125386D01*
X320500D01*
Y125432D01*
X320545D01*
Y125477D01*
X320636D01*
Y125523D01*
X320682D01*
Y125568D01*
X320773D01*
Y125614D01*
X320864D01*
Y125659D01*
X320954D01*
Y125705D01*
X321000D01*
Y125750D01*
X321045D01*
Y125795D01*
X321182D01*
Y125841D01*
X321227D01*
Y125886D01*
X321318D01*
Y125932D01*
X321409D01*
Y125977D01*
X321455D01*
Y126023D01*
X321545D01*
Y126068D01*
X321636D01*
Y126114D01*
X321682D01*
Y126159D01*
X321773D01*
Y126205D01*
X321818D01*
Y126250D01*
X321954D01*
Y126295D01*
X322000D01*
Y126341D01*
X322045D01*
Y126386D01*
X322136D01*
Y126432D01*
X322182D01*
Y126477D01*
X322318D01*
Y126523D01*
X322364D01*
Y126568D01*
X322500D01*
Y126614D01*
X322545D01*
Y126659D01*
X322636D01*
Y126705D01*
X322682D01*
Y126750D01*
X322773D01*
Y126795D01*
X322864D01*
Y126841D01*
X322909D01*
Y126886D01*
X323000D01*
Y126932D01*
X323045D01*
Y126977D01*
X323136D01*
Y127023D01*
X323182D01*
Y127068D01*
X323273D01*
Y127114D01*
X323364D01*
Y127159D01*
X323454D01*
Y127205D01*
X323545D01*
Y127250D01*
X323591D01*
Y127295D01*
X323682D01*
Y127341D01*
X323773D01*
Y127386D01*
X323818D01*
Y127432D01*
X323909D01*
Y127477D01*
X324000D01*
Y127523D01*
X324045D01*
Y127568D01*
X324136D01*
Y127614D01*
X324227D01*
Y127659D01*
X324318D01*
Y127705D01*
X324364D01*
Y127750D01*
X324454D01*
Y127796D01*
X324500D01*
Y127841D01*
X324591D01*
Y127886D01*
X324682D01*
Y127932D01*
X324727D01*
Y127977D01*
X324818D01*
Y128023D01*
X324909D01*
Y128068D01*
X325000D01*
Y128114D01*
X325091D01*
Y128159D01*
X325136D01*
Y128205D01*
X325909D01*
Y128159D01*
D02*
G37*
G36*
X311091Y121386D02*
X311136D01*
Y121295D01*
X311091D01*
Y121204D01*
X311136D01*
Y119068D01*
X311091D01*
Y118886D01*
X311045D01*
Y118841D01*
X311000D01*
Y118796D01*
X310954D01*
Y118750D01*
X309545D01*
Y118796D01*
X309454D01*
Y118841D01*
X309409D01*
Y119023D01*
X309454D01*
Y119068D01*
X309545D01*
Y119114D01*
X310591D01*
Y119068D01*
X310682D01*
Y119114D01*
X310773D01*
Y119159D01*
X310818D01*
Y119250D01*
X310864D01*
Y119341D01*
X310818D01*
Y120796D01*
Y120841D01*
Y121386D01*
X310864D01*
Y121432D01*
X311091D01*
Y121386D01*
D02*
G37*
G36*
X305636Y121432D02*
X305727D01*
Y119614D01*
X305682D01*
Y119432D01*
X305636D01*
Y119341D01*
X305591D01*
Y119250D01*
X305545D01*
Y119159D01*
X305500D01*
Y119114D01*
X305454D01*
Y119023D01*
X305409D01*
Y118977D01*
X305364D01*
Y118932D01*
X305227D01*
Y118886D01*
X305182D01*
Y118841D01*
X305045D01*
Y118796D01*
X304955D01*
Y118750D01*
X304727D01*
Y118704D01*
X304591D01*
Y118750D01*
X304318D01*
Y118796D01*
X304227D01*
Y118841D01*
X304136D01*
Y118886D01*
X304045D01*
Y118932D01*
X303955D01*
Y118977D01*
X303909D01*
Y119023D01*
X303864D01*
Y119068D01*
X303818D01*
Y119114D01*
X303773D01*
Y119159D01*
X303727D01*
Y119250D01*
X303682D01*
Y119341D01*
X303636D01*
Y119477D01*
X303591D01*
Y119568D01*
X303545D01*
Y121432D01*
X303591D01*
Y121477D01*
X303773D01*
Y121432D01*
X303864D01*
Y119932D01*
X303909D01*
Y119704D01*
X303955D01*
Y119523D01*
Y119477D01*
X304000D01*
Y119386D01*
X304045D01*
Y119296D01*
X304091D01*
Y119204D01*
X304136D01*
Y119159D01*
X304227D01*
Y119114D01*
X304318D01*
Y119068D01*
X304454D01*
Y119023D01*
X304773D01*
Y119068D01*
X304909D01*
Y119114D01*
X305000D01*
Y119159D01*
X305136D01*
Y119204D01*
X305182D01*
Y119296D01*
X305227D01*
Y119341D01*
X305273D01*
Y119477D01*
X305318D01*
Y119614D01*
X305364D01*
Y119977D01*
X305409D01*
Y121432D01*
X305500D01*
Y121477D01*
X305636D01*
Y121432D01*
D02*
G37*
G36*
X313091Y121477D02*
X313136D01*
Y121432D01*
X313182D01*
Y121386D01*
X313227D01*
Y121250D01*
X313273D01*
Y121204D01*
X313318D01*
Y121068D01*
X313364D01*
Y120932D01*
X313409D01*
Y120841D01*
X313455D01*
Y120750D01*
X313500D01*
Y120704D01*
X313545D01*
Y120523D01*
X313591D01*
Y120432D01*
X313636D01*
Y120341D01*
X313682D01*
Y120204D01*
X313727D01*
Y120159D01*
X313773D01*
Y119977D01*
X313818D01*
Y119932D01*
X313864D01*
Y119841D01*
X313909D01*
Y119704D01*
X313954D01*
Y119614D01*
X314000D01*
Y119477D01*
X314045D01*
Y119386D01*
X314091D01*
Y119296D01*
X314136D01*
Y119204D01*
X314182D01*
Y119114D01*
X314227D01*
Y118841D01*
X314182D01*
Y118796D01*
X314045D01*
Y118841D01*
X314000D01*
Y118886D01*
X313954D01*
Y118977D01*
X313909D01*
Y119068D01*
X313864D01*
Y119159D01*
X313818D01*
Y119250D01*
X313773D01*
Y119386D01*
X313727D01*
Y119432D01*
X313682D01*
Y119477D01*
X313545D01*
Y119523D01*
X312409D01*
Y119477D01*
X312318D01*
Y119432D01*
X312273D01*
Y119341D01*
X312227D01*
Y119296D01*
X312182D01*
Y119204D01*
X312136D01*
Y119023D01*
X312091D01*
Y118977D01*
X312045D01*
Y118886D01*
X312000D01*
Y118841D01*
X311864D01*
Y118796D01*
X311727D01*
Y119023D01*
X311773D01*
Y119114D01*
X311818D01*
Y119296D01*
X311864D01*
Y119341D01*
X311909D01*
Y119477D01*
X311954D01*
Y119568D01*
X312000D01*
Y119614D01*
X312045D01*
Y119750D01*
X312091D01*
Y119841D01*
X312136D01*
Y119977D01*
X312182D01*
Y120068D01*
X312227D01*
Y120159D01*
X312273D01*
Y120296D01*
X312318D01*
Y120386D01*
X312364D01*
Y120523D01*
X312409D01*
Y120614D01*
X312455D01*
Y120750D01*
X312500D01*
Y120841D01*
X312545D01*
Y120932D01*
X312591D01*
Y121023D01*
X312636D01*
Y121114D01*
X312682D01*
Y121159D01*
Y121250D01*
X312727D01*
Y121341D01*
X312773D01*
Y121432D01*
X312818D01*
Y121477D01*
X312909D01*
Y121523D01*
X313091D01*
Y121477D01*
D02*
G37*
G36*
X306636D02*
X306682D01*
Y121432D01*
X306727D01*
Y119114D01*
X306773D01*
Y119068D01*
X306727D01*
Y118886D01*
X306682D01*
Y118796D01*
X306636D01*
Y118750D01*
X306591D01*
Y118796D01*
X306545D01*
Y118841D01*
X306500D01*
Y118886D01*
X306454D01*
Y118977D01*
X306409D01*
Y121386D01*
X306454D01*
Y121432D01*
X306545D01*
Y121477D01*
X306591D01*
Y121523D01*
X306636D01*
Y121477D01*
D02*
G37*
G36*
X302136Y117614D02*
X302273D01*
Y117568D01*
X302318D01*
Y115114D01*
X302273D01*
Y115023D01*
X302227D01*
Y114932D01*
X302000D01*
Y114886D01*
X301909D01*
Y114932D01*
X301682D01*
Y114977D01*
X301636D01*
Y115023D01*
X301591D01*
Y116068D01*
X301545D01*
Y116159D01*
X301454D01*
Y116114D01*
X301409D01*
Y116023D01*
X301318D01*
Y115977D01*
X301273D01*
Y115932D01*
X301227D01*
Y115886D01*
X301182D01*
Y115796D01*
X301136D01*
Y115750D01*
X301091D01*
Y115705D01*
X301045D01*
Y115614D01*
X301000D01*
Y115523D01*
X300955D01*
Y115477D01*
X300909D01*
Y115432D01*
X300864D01*
Y115386D01*
X300818D01*
Y115341D01*
X300773D01*
Y115250D01*
X300727D01*
Y115205D01*
X300682D01*
Y115114D01*
X300591D01*
Y115023D01*
X300500D01*
Y114977D01*
X300454D01*
Y114932D01*
X300227D01*
Y114886D01*
X300091D01*
Y114932D01*
X299909D01*
Y114977D01*
X299864D01*
Y115023D01*
X299818D01*
Y117568D01*
X299864D01*
Y117614D01*
X300000D01*
Y117659D01*
X300409D01*
Y117614D01*
X300545D01*
Y117523D01*
X300591D01*
Y116477D01*
X300636D01*
Y116432D01*
X300682D01*
Y116477D01*
X300727D01*
Y116568D01*
X300773D01*
Y116614D01*
X300864D01*
Y116659D01*
X300909D01*
Y116750D01*
X300955D01*
Y116796D01*
X301000D01*
Y116841D01*
X301045D01*
Y116886D01*
X301091D01*
Y116932D01*
X301136D01*
Y117023D01*
X301182D01*
Y117068D01*
X301227D01*
Y117159D01*
X301273D01*
Y117204D01*
X301318D01*
Y117250D01*
X301364D01*
Y117341D01*
X301409D01*
Y117386D01*
X301454D01*
Y117432D01*
X301500D01*
Y117523D01*
X301545D01*
Y117568D01*
X301591D01*
Y117614D01*
X301727D01*
Y117659D01*
X302136D01*
Y117614D01*
D02*
G37*
G36*
X304227D02*
X304409D01*
Y117568D01*
X304500D01*
Y117523D01*
X304591D01*
Y117477D01*
X304636D01*
Y117432D01*
X304727D01*
Y117386D01*
X304818D01*
Y117296D01*
X304909D01*
Y117204D01*
X304955D01*
Y117159D01*
X305000D01*
Y117114D01*
X305045D01*
Y117023D01*
X305091D01*
Y116977D01*
X305136D01*
Y116886D01*
X305182D01*
Y116796D01*
X305227D01*
Y116659D01*
X305273D01*
Y116159D01*
Y116114D01*
Y115886D01*
X305227D01*
Y115796D01*
X305182D01*
Y115659D01*
X305136D01*
Y115568D01*
X305091D01*
Y115523D01*
X305045D01*
Y115432D01*
X305000D01*
Y115386D01*
X304955D01*
Y115341D01*
X304909D01*
Y115296D01*
X304864D01*
Y115250D01*
X304818D01*
Y115205D01*
X304773D01*
Y115159D01*
X304727D01*
Y115114D01*
X304636D01*
Y115068D01*
X304545D01*
Y115023D01*
X304454D01*
Y114977D01*
X304364D01*
Y114932D01*
X304273D01*
Y114886D01*
X303500D01*
Y114932D01*
X303364D01*
Y114977D01*
X303273D01*
Y115023D01*
X303182D01*
Y115068D01*
X303091D01*
Y115114D01*
X302955D01*
Y115159D01*
X302909D01*
Y115205D01*
X302864D01*
Y115250D01*
X302818D01*
Y115296D01*
X302773D01*
Y115386D01*
X302727D01*
Y116341D01*
X302773D01*
Y116477D01*
X302818D01*
Y116523D01*
X303227D01*
Y116568D01*
X303273D01*
Y116523D01*
X303864D01*
Y116477D01*
X303909D01*
Y116432D01*
X303955D01*
Y115977D01*
X303864D01*
Y115932D01*
X303727D01*
Y115977D01*
X303682D01*
Y115932D01*
X303591D01*
Y115886D01*
X303454D01*
Y115750D01*
X303500D01*
Y115659D01*
X303545D01*
Y115568D01*
X303682D01*
Y115523D01*
X303955D01*
Y115568D01*
X304091D01*
Y115614D01*
X304136D01*
Y115659D01*
X304227D01*
Y115705D01*
X304318D01*
Y115750D01*
X304364D01*
Y115796D01*
X304409D01*
Y115886D01*
X304454D01*
Y115977D01*
X304500D01*
Y116068D01*
X304545D01*
Y116205D01*
X304591D01*
Y116296D01*
X304545D01*
Y116432D01*
X304500D01*
Y116568D01*
X304454D01*
Y116614D01*
X304409D01*
Y116750D01*
X304318D01*
Y116796D01*
X304273D01*
Y116841D01*
X304227D01*
Y116886D01*
X304136D01*
Y116932D01*
X304045D01*
Y116977D01*
X303636D01*
Y116932D01*
X303545D01*
Y116886D01*
X303454D01*
Y116841D01*
X303318D01*
Y116796D01*
X303227D01*
Y116841D01*
X303136D01*
Y116886D01*
X303091D01*
Y116977D01*
X303045D01*
Y117023D01*
X303000D01*
Y117068D01*
X302955D01*
Y117159D01*
X302909D01*
Y117386D01*
X302955D01*
Y117432D01*
X303045D01*
Y117477D01*
X303136D01*
Y117523D01*
X303227D01*
Y117568D01*
X303318D01*
Y117614D01*
X303636D01*
Y117659D01*
X304227D01*
Y117614D01*
D02*
G37*
G36*
X314091D02*
X314227D01*
Y117523D01*
X314273D01*
Y117386D01*
X314227D01*
Y115023D01*
X314182D01*
Y114932D01*
X313954D01*
Y114886D01*
X313227D01*
Y114932D01*
X312909D01*
Y114977D01*
X312773D01*
Y115023D01*
X312591D01*
Y115068D01*
X312545D01*
Y115114D01*
X312409D01*
Y115159D01*
X312318D01*
Y115205D01*
X312273D01*
Y115250D01*
X312182D01*
Y115296D01*
X312136D01*
Y115341D01*
X312091D01*
Y115386D01*
X312045D01*
Y115477D01*
X312000D01*
Y115523D01*
X311954D01*
Y115568D01*
X311909D01*
Y115705D01*
X311864D01*
Y115750D01*
Y115796D01*
X311818D01*
Y115977D01*
X311773D01*
Y116659D01*
X311818D01*
Y116932D01*
X311864D01*
Y116977D01*
X311909D01*
Y117068D01*
X311954D01*
Y117159D01*
X312045D01*
Y117204D01*
X312091D01*
Y117250D01*
X312136D01*
Y117296D01*
X312182D01*
Y117386D01*
X312273D01*
Y117432D01*
X312364D01*
Y117477D01*
X312455D01*
Y117523D01*
X312591D01*
Y117568D01*
X312682D01*
Y117614D01*
X313000D01*
Y117659D01*
X314091D01*
Y117614D01*
D02*
G37*
G36*
X311182D02*
X311364D01*
Y117477D01*
X311409D01*
Y115114D01*
X311364D01*
Y114977D01*
X311318D01*
Y114932D01*
X311136D01*
Y114886D01*
X309545D01*
Y114932D01*
X309364D01*
Y114977D01*
X309318D01*
Y115023D01*
X309273D01*
Y115205D01*
X309227D01*
Y115432D01*
X309273D01*
Y115477D01*
X309318D01*
Y115523D01*
X309364D01*
Y115568D01*
X310318D01*
Y115614D01*
X310500D01*
Y115659D01*
X310545D01*
Y115705D01*
X310591D01*
Y115750D01*
X310636D01*
Y115886D01*
X310591D01*
Y115932D01*
X310545D01*
Y115977D01*
X309636D01*
Y116023D01*
X309545D01*
Y116068D01*
X309500D01*
Y116114D01*
X309454D01*
Y116205D01*
X309409D01*
Y116523D01*
X309454D01*
Y116568D01*
X309500D01*
Y116614D01*
X310455D01*
Y116659D01*
X310545D01*
Y116704D01*
X310591D01*
Y116796D01*
X310636D01*
Y116932D01*
X310591D01*
Y116977D01*
X310455D01*
Y117023D01*
X310364D01*
Y116977D01*
X309727D01*
Y117023D01*
X309591D01*
Y116977D01*
X309409D01*
Y117023D01*
X309318D01*
Y117068D01*
X309273D01*
Y117114D01*
X309227D01*
Y117204D01*
X309273D01*
Y117614D01*
X309409D01*
Y117659D01*
X311182D01*
Y117614D01*
D02*
G37*
G36*
X307955Y117659D02*
X308227D01*
Y117614D01*
X308409D01*
Y117568D01*
X308500D01*
Y117523D01*
X308591D01*
Y117477D01*
X308636D01*
Y117432D01*
X308682D01*
Y117386D01*
X308773D01*
Y117296D01*
X308818D01*
Y117250D01*
X308864D01*
Y117159D01*
X308909D01*
Y117023D01*
X308955D01*
Y116659D01*
X308909D01*
Y116523D01*
X308864D01*
Y116432D01*
X308818D01*
Y116386D01*
X308773D01*
Y116341D01*
X308727D01*
Y116296D01*
X308682D01*
Y116250D01*
X308636D01*
Y116205D01*
X308500D01*
Y116159D01*
X308454D01*
Y116114D01*
X308364D01*
Y116068D01*
X308273D01*
Y116023D01*
X308136D01*
Y115977D01*
X308000D01*
Y115932D01*
X307909D01*
Y115886D01*
X307727D01*
Y115841D01*
X307682D01*
Y115796D01*
X307636D01*
Y115705D01*
X307591D01*
Y115614D01*
X307636D01*
Y115568D01*
X307773D01*
Y115523D01*
X308000D01*
Y115568D01*
X308182D01*
Y115614D01*
X308227D01*
Y115659D01*
X308364D01*
Y115705D01*
X308454D01*
Y115750D01*
X308727D01*
Y115705D01*
X308773D01*
Y115659D01*
X308818D01*
Y115614D01*
X308864D01*
Y115523D01*
X308909D01*
Y115477D01*
X308955D01*
Y115432D01*
X309000D01*
Y115296D01*
X308909D01*
Y115205D01*
X308864D01*
Y115159D01*
X308818D01*
Y115114D01*
X308682D01*
Y115068D01*
X308636D01*
Y115023D01*
X308500D01*
Y114977D01*
X308409D01*
Y114932D01*
X308273D01*
Y114886D01*
X307454D01*
Y114932D01*
X307318D01*
Y114977D01*
X307227D01*
Y115023D01*
X307182D01*
Y115068D01*
X307091D01*
Y115114D01*
X307045D01*
Y115159D01*
X307000D01*
Y115205D01*
X306955D01*
Y115250D01*
X306909D01*
Y115341D01*
X306864D01*
Y115386D01*
X306818D01*
Y115477D01*
X306773D01*
Y115796D01*
X306727D01*
Y115841D01*
X306773D01*
Y116023D01*
X306818D01*
Y116114D01*
X306864D01*
Y116159D01*
X306909D01*
Y116205D01*
X306955D01*
Y116250D01*
X307000D01*
Y116296D01*
X307045D01*
Y116341D01*
X307091D01*
Y116386D01*
X307182D01*
Y116432D01*
X307273D01*
Y116477D01*
X307318D01*
Y116523D01*
X307454D01*
Y116568D01*
X307636D01*
Y116614D01*
X307818D01*
Y116659D01*
X307909D01*
Y116704D01*
X308000D01*
Y116750D01*
X308045D01*
Y116796D01*
X308091D01*
Y116841D01*
X308136D01*
Y116932D01*
X308091D01*
Y116977D01*
X307909D01*
Y117023D01*
X307864D01*
Y116977D01*
X307545D01*
Y116932D01*
X307454D01*
Y116886D01*
X307364D01*
Y116841D01*
X307227D01*
Y116886D01*
X307136D01*
Y116932D01*
X307091D01*
Y116977D01*
X307045D01*
Y117023D01*
X307000D01*
Y117068D01*
X306955D01*
Y117114D01*
X306909D01*
Y117386D01*
X306955D01*
Y117432D01*
X307000D01*
Y117477D01*
X307045D01*
Y117523D01*
X307182D01*
Y117568D01*
X307273D01*
Y117614D01*
X307500D01*
Y117659D01*
X307682D01*
Y117704D01*
X307955D01*
Y117659D01*
D02*
G37*
G36*
X306227Y117614D02*
X306364D01*
Y117568D01*
X306409D01*
Y115023D01*
X306364D01*
Y114977D01*
X306318D01*
Y114932D01*
X306182D01*
Y114886D01*
X305955D01*
Y114932D01*
X305727D01*
Y115068D01*
X305682D01*
Y115341D01*
Y115386D01*
Y117568D01*
X305727D01*
Y117614D01*
X305773D01*
Y117659D01*
X306227D01*
Y117614D01*
D02*
G37*
G36*
X299182D02*
X299318D01*
Y117568D01*
X299364D01*
Y117477D01*
X299409D01*
Y115205D01*
X299364D01*
Y115023D01*
X299318D01*
Y114977D01*
X299273D01*
Y114932D01*
X299136D01*
Y114886D01*
X297500D01*
Y114932D01*
X297364D01*
Y114977D01*
X297318D01*
Y115023D01*
X297273D01*
Y115159D01*
X297227D01*
Y115432D01*
X297273D01*
Y115477D01*
X297318D01*
Y115523D01*
X297409D01*
Y115568D01*
X298545D01*
Y115614D01*
X298591D01*
Y115705D01*
X298636D01*
Y115886D01*
X298591D01*
Y115977D01*
X297545D01*
Y116023D01*
X297455D01*
Y116068D01*
X297409D01*
Y116523D01*
X297545D01*
Y116568D01*
X298545D01*
Y116614D01*
X298591D01*
Y116659D01*
X298636D01*
Y116932D01*
X298591D01*
Y116977D01*
X298454D01*
Y117023D01*
X298364D01*
Y116977D01*
X297409D01*
Y117023D01*
X297364D01*
Y117068D01*
X297273D01*
Y117114D01*
X297227D01*
Y117523D01*
X297273D01*
Y117568D01*
X297318D01*
Y117614D01*
X297409D01*
Y117659D01*
X299182D01*
Y117614D01*
D02*
G37*
G36*
X296636D02*
X296818D01*
Y117568D01*
X296864D01*
Y117386D01*
X296909D01*
Y117296D01*
X296864D01*
Y116750D01*
X296909D01*
Y115886D01*
X296864D01*
Y114977D01*
X296773D01*
Y114932D01*
X296636D01*
Y114886D01*
X296409D01*
Y114932D01*
X296273D01*
Y114977D01*
X296227D01*
Y115068D01*
X296182D01*
Y115614D01*
X296136D01*
Y115659D01*
X296045D01*
Y115705D01*
X296000D01*
Y115750D01*
X295909D01*
Y115705D01*
X295864D01*
Y115659D01*
X295773D01*
Y115568D01*
X295727D01*
Y115523D01*
X295682D01*
Y115432D01*
X295636D01*
Y115386D01*
X295591D01*
Y115296D01*
X295545D01*
Y115250D01*
X295500D01*
Y115159D01*
X295455D01*
Y115068D01*
X295409D01*
Y115023D01*
X295364D01*
Y114977D01*
X295318D01*
Y114932D01*
X295091D01*
Y114886D01*
X294818D01*
Y114932D01*
X294591D01*
Y115159D01*
X294636D01*
Y115250D01*
X294682D01*
Y115296D01*
X294727D01*
Y115341D01*
X294773D01*
Y115432D01*
X294818D01*
Y115523D01*
X294864D01*
Y115568D01*
X294909D01*
Y115659D01*
X294954D01*
Y115705D01*
X295000D01*
Y115796D01*
X295045D01*
Y115841D01*
X295000D01*
Y115886D01*
X294954D01*
Y115932D01*
X294909D01*
Y115977D01*
X294864D01*
Y116023D01*
X294818D01*
Y116114D01*
X294773D01*
Y116205D01*
X294727D01*
Y116250D01*
X294682D01*
Y116296D01*
X294636D01*
Y116386D01*
X294591D01*
Y117068D01*
X294636D01*
Y117114D01*
X294682D01*
Y117204D01*
X294727D01*
Y117296D01*
X294773D01*
Y117341D01*
X294818D01*
Y117386D01*
X294864D01*
Y117432D01*
X294954D01*
Y117477D01*
X295000D01*
Y117523D01*
X295091D01*
Y117568D01*
X295227D01*
Y117614D01*
X295500D01*
Y117659D01*
X296636D01*
Y117614D01*
D02*
G37*
G36*
X279435Y131112D02*
X279642D01*
Y131043D01*
X280195D01*
Y130974D01*
X280540D01*
Y130904D01*
X280748D01*
Y130835D01*
X281162D01*
Y130766D01*
X281300D01*
Y130697D01*
X281577D01*
Y130628D01*
X281715D01*
Y130559D01*
X281922D01*
Y130490D01*
X282129D01*
Y130421D01*
X282337D01*
Y130352D01*
X282544D01*
Y130283D01*
X282682D01*
Y130214D01*
X282889D01*
Y130145D01*
X283028D01*
Y130075D01*
X283166D01*
Y130006D01*
X283373D01*
Y129937D01*
X283442D01*
Y129868D01*
X283649D01*
Y129799D01*
X283788D01*
Y129730D01*
X283857D01*
Y129661D01*
X283995D01*
Y129592D01*
X284133D01*
Y129523D01*
X284202D01*
Y129454D01*
X284341D01*
Y129384D01*
X284479D01*
Y129315D01*
X284548D01*
Y129246D01*
X284686D01*
Y129177D01*
X284824D01*
Y129108D01*
X284893D01*
Y129039D01*
X285031D01*
Y128970D01*
X285101D01*
Y128901D01*
X285170D01*
Y128832D01*
X285308D01*
Y128763D01*
X285377D01*
Y128693D01*
X285515D01*
Y128624D01*
X285584D01*
Y128555D01*
X285722D01*
Y128486D01*
X285791D01*
Y128417D01*
X285861D01*
Y128348D01*
X285930D01*
Y128279D01*
X286068D01*
Y128210D01*
X286137D01*
Y128141D01*
X286206D01*
Y128072D01*
X286275D01*
Y128003D01*
X286344D01*
Y127933D01*
X286413D01*
Y127864D01*
X286551D01*
Y127795D01*
X286621D01*
Y127726D01*
X286690D01*
Y127657D01*
X286828D01*
Y127519D01*
X286897D01*
Y127450D01*
X286966D01*
Y127381D01*
X287035D01*
Y127312D01*
X287104D01*
Y127243D01*
X287173D01*
Y127173D01*
X287243D01*
Y127104D01*
X287312D01*
Y127035D01*
X287381D01*
Y126966D01*
X287450D01*
Y126897D01*
X287519D01*
Y126828D01*
X287588D01*
Y126759D01*
X287657D01*
Y126621D01*
X287726D01*
Y126551D01*
X287795D01*
Y126482D01*
X287864D01*
Y126413D01*
X287933D01*
Y126344D01*
X288002D01*
Y126206D01*
X288072D01*
Y126137D01*
X288141D01*
Y126068D01*
X288210D01*
Y125999D01*
X288279D01*
Y125930D01*
X288348D01*
Y125792D01*
X288417D01*
Y125722D01*
X288486D01*
Y125584D01*
X288555D01*
Y125515D01*
X288624D01*
Y125377D01*
X288693D01*
Y125239D01*
X288763D01*
Y125170D01*
X288832D01*
Y125031D01*
X288901D01*
Y124962D01*
X288970D01*
Y124824D01*
X289039D01*
Y124686D01*
X289108D01*
Y124617D01*
X289177D01*
Y124479D01*
X289246D01*
Y124340D01*
X289315D01*
Y124202D01*
X289384D01*
Y124133D01*
X289454D01*
Y123995D01*
X289523D01*
Y123857D01*
X289592D01*
Y123719D01*
X289661D01*
Y123580D01*
X289730D01*
Y123442D01*
X289799D01*
Y123235D01*
X289868D01*
Y123097D01*
X289937D01*
Y122959D01*
X290006D01*
Y122820D01*
X290075D01*
Y122682D01*
X290144D01*
Y122406D01*
X290214D01*
Y122268D01*
X290283D01*
Y121991D01*
X290352D01*
Y121784D01*
X290421D01*
Y121577D01*
X290490D01*
Y121300D01*
X290559D01*
Y121024D01*
X290628D01*
Y120609D01*
X290697D01*
Y120333D01*
X290766D01*
Y119918D01*
X290835D01*
Y119227D01*
X290904D01*
Y119158D01*
X290974D01*
Y116394D01*
X290904D01*
Y116256D01*
X290835D01*
Y115773D01*
X290766D01*
Y115427D01*
X290697D01*
Y115082D01*
X290628D01*
Y114736D01*
X290559D01*
Y114598D01*
X290490D01*
Y114252D01*
X290421D01*
Y113976D01*
X290352D01*
Y113838D01*
X290283D01*
Y113562D01*
X290214D01*
Y113423D01*
X290144D01*
Y113216D01*
X290075D01*
Y113009D01*
X290006D01*
Y112802D01*
X289937D01*
Y112663D01*
X289868D01*
Y112525D01*
X289799D01*
Y112318D01*
X289730D01*
Y112180D01*
X289661D01*
Y111972D01*
X289592D01*
Y111834D01*
X289523D01*
Y111765D01*
X289454D01*
Y111558D01*
X289384D01*
Y111489D01*
X289315D01*
Y111351D01*
X289246D01*
Y111212D01*
X289177D01*
Y111074D01*
X289108D01*
Y111005D01*
X289039D01*
Y110867D01*
X288970D01*
Y110729D01*
X288901D01*
Y110660D01*
X288832D01*
Y110521D01*
X288763D01*
Y110452D01*
X288693D01*
Y110314D01*
X288624D01*
Y110176D01*
X288555D01*
Y110107D01*
X288486D01*
Y109969D01*
X288417D01*
Y109899D01*
X288348D01*
Y109830D01*
X288279D01*
Y109692D01*
X288210D01*
Y109623D01*
X288141D01*
Y109554D01*
X288072D01*
Y109485D01*
X288002D01*
Y109347D01*
X287933D01*
Y109278D01*
X287864D01*
Y109209D01*
X287795D01*
Y109070D01*
X287726D01*
Y109001D01*
X287657D01*
Y108932D01*
X287588D01*
Y108863D01*
X287519D01*
Y108794D01*
X287450D01*
Y108725D01*
X287381D01*
Y108656D01*
X287312D01*
Y108587D01*
X287243D01*
Y108518D01*
X287173D01*
Y108449D01*
X287104D01*
Y108379D01*
X287035D01*
Y108310D01*
X286966D01*
Y108241D01*
X286897D01*
Y108172D01*
X286828D01*
Y108103D01*
X286690D01*
Y107965D01*
X286551D01*
Y107827D01*
X286482D01*
Y107757D01*
X286344D01*
Y107619D01*
X286206D01*
Y107550D01*
X286137D01*
Y107481D01*
X285999D01*
Y107412D01*
X285930D01*
Y107343D01*
X285861D01*
Y107274D01*
X285791D01*
Y107205D01*
X285653D01*
Y107136D01*
X285584D01*
Y107067D01*
X285515D01*
Y106998D01*
X285377D01*
Y106928D01*
X285308D01*
Y106859D01*
X285170D01*
Y106790D01*
X285101D01*
Y106721D01*
X284962D01*
Y106652D01*
X284824D01*
Y106583D01*
X284755D01*
Y106514D01*
X284617D01*
Y106445D01*
X284548D01*
Y106376D01*
X284409D01*
Y106307D01*
X284271D01*
Y106237D01*
X284202D01*
Y106168D01*
X283995D01*
Y106099D01*
X283926D01*
Y106030D01*
X283788D01*
Y105961D01*
X283649D01*
Y105892D01*
X283580D01*
Y105823D01*
X283373D01*
Y105754D01*
X283235D01*
Y105685D01*
X283028D01*
Y105616D01*
X282820D01*
Y105546D01*
X282682D01*
Y105477D01*
X282475D01*
Y105408D01*
X282337D01*
Y105339D01*
X282129D01*
Y105270D01*
X281922D01*
Y105201D01*
X281715D01*
Y105132D01*
X281507D01*
Y105063D01*
X281369D01*
Y104994D01*
X281024D01*
Y104925D01*
X280817D01*
Y104856D01*
X280471D01*
Y104786D01*
X280195D01*
Y104717D01*
X279849D01*
Y104648D01*
X279366D01*
Y104579D01*
X278813D01*
Y104510D01*
X276464D01*
Y104579D01*
X276118D01*
Y104648D01*
X275358D01*
Y104717D01*
X275151D01*
Y104786D01*
X274805D01*
Y104856D01*
X274529D01*
Y104925D01*
X274253D01*
Y104994D01*
X273907D01*
Y105063D01*
X273769D01*
Y105132D01*
X273493D01*
Y105201D01*
X273285D01*
Y105270D01*
X273078D01*
Y105339D01*
X272871D01*
Y105408D01*
X272732D01*
Y105477D01*
X272525D01*
Y105546D01*
X272387D01*
Y105616D01*
X272249D01*
Y105685D01*
X272042D01*
Y105754D01*
X271903D01*
Y105823D01*
X271696D01*
Y105892D01*
X271627D01*
Y105961D01*
X271489D01*
Y106030D01*
X271351D01*
Y106099D01*
X271281D01*
Y106168D01*
X271143D01*
Y106237D01*
X271005D01*
Y106307D01*
X270867D01*
Y106376D01*
X270798D01*
Y106445D01*
X270659D01*
Y106514D01*
X270521D01*
Y106583D01*
X270452D01*
Y106652D01*
X270383D01*
Y106721D01*
X270245D01*
Y106790D01*
X270176D01*
Y106859D01*
X270038D01*
Y106928D01*
X269969D01*
Y106998D01*
X269900D01*
Y107067D01*
X269830D01*
Y107136D01*
X269692D01*
Y107205D01*
X269623D01*
Y107274D01*
X269485D01*
Y107343D01*
X269416D01*
Y107412D01*
X269347D01*
Y107481D01*
X269209D01*
Y107550D01*
X269139D01*
Y107619D01*
X269070D01*
Y107688D01*
X269001D01*
Y107757D01*
X268932D01*
Y107827D01*
X268794D01*
Y107896D01*
X268725D01*
Y107965D01*
X268656D01*
Y108034D01*
X268587D01*
Y108103D01*
X268518D01*
Y108172D01*
X268448D01*
Y108241D01*
X268379D01*
Y108310D01*
X268310D01*
Y108379D01*
X268241D01*
Y108449D01*
X268172D01*
Y108518D01*
X268103D01*
Y108587D01*
X268034D01*
Y108656D01*
X267965D01*
Y108725D01*
X267896D01*
Y108794D01*
X267827D01*
Y108863D01*
X267758D01*
Y108932D01*
X267688D01*
Y109001D01*
X267619D01*
Y109139D01*
X267550D01*
Y109209D01*
X267481D01*
Y109278D01*
X267412D01*
Y109416D01*
X267343D01*
Y109485D01*
X267274D01*
Y109554D01*
X267205D01*
Y109623D01*
X267136D01*
Y109761D01*
X267067D01*
Y109830D01*
X266998D01*
Y109899D01*
X266928D01*
Y110038D01*
X266859D01*
Y110107D01*
X266790D01*
Y110245D01*
X266721D01*
Y110314D01*
X266652D01*
Y110452D01*
X266583D01*
Y110521D01*
X266514D01*
Y110591D01*
X266445D01*
Y110729D01*
X266376D01*
Y110798D01*
X266306D01*
Y110936D01*
X266237D01*
Y111074D01*
X266168D01*
Y111143D01*
X266099D01*
Y111351D01*
X266030D01*
Y111420D01*
X265961D01*
Y111558D01*
X265892D01*
Y111696D01*
X265823D01*
Y111834D01*
X265754D01*
Y111972D01*
X265685D01*
Y112041D01*
X265616D01*
Y112249D01*
X265546D01*
Y112387D01*
X265477D01*
Y112594D01*
X265408D01*
Y112732D01*
X265339D01*
Y112871D01*
X265270D01*
Y113078D01*
X265201D01*
Y113216D01*
X265132D01*
Y113423D01*
X265063D01*
Y113631D01*
X264994D01*
Y113838D01*
X264925D01*
Y114045D01*
X264856D01*
Y114252D01*
X264786D01*
Y114460D01*
X264717D01*
Y114667D01*
X264648D01*
Y115151D01*
X264579D01*
Y115427D01*
X264510D01*
Y115773D01*
X264441D01*
Y116602D01*
X264372D01*
Y117085D01*
X264303D01*
Y118882D01*
X264372D01*
Y119297D01*
X264441D01*
Y119918D01*
X264510D01*
Y120264D01*
X264579D01*
Y120609D01*
X264648D01*
Y121024D01*
X264717D01*
Y121162D01*
X264786D01*
Y121508D01*
X264856D01*
Y121715D01*
X264925D01*
Y121922D01*
X264994D01*
Y122129D01*
X265063D01*
Y122268D01*
X265132D01*
Y122475D01*
X265201D01*
Y122682D01*
X265270D01*
Y122889D01*
X265339D01*
Y123028D01*
X265408D01*
Y123166D01*
X265477D01*
Y123373D01*
X265546D01*
Y123511D01*
X265616D01*
Y123650D01*
X265685D01*
Y123788D01*
X265754D01*
Y123926D01*
X265823D01*
Y124133D01*
X265892D01*
Y124202D01*
X265961D01*
Y124340D01*
X266030D01*
Y124479D01*
X266099D01*
Y124548D01*
X266168D01*
Y124686D01*
X266237D01*
Y124824D01*
X266306D01*
Y124962D01*
X266376D01*
Y125031D01*
X266445D01*
Y125170D01*
X266514D01*
Y125239D01*
X266583D01*
Y125377D01*
X266652D01*
Y125446D01*
X266721D01*
Y125515D01*
X266790D01*
Y125653D01*
X266859D01*
Y125722D01*
X266928D01*
Y125861D01*
X266998D01*
Y125930D01*
X267067D01*
Y125999D01*
X267136D01*
Y126137D01*
X267205D01*
Y126206D01*
X267274D01*
Y126275D01*
X267343D01*
Y126344D01*
X267412D01*
Y126413D01*
X267481D01*
Y126551D01*
X267550D01*
Y126621D01*
X267619D01*
Y126690D01*
X267688D01*
Y126759D01*
X267758D01*
Y126828D01*
X267827D01*
Y126897D01*
X267896D01*
Y126966D01*
X267965D01*
Y127104D01*
X268034D01*
Y127173D01*
X268103D01*
Y127243D01*
X268172D01*
Y127312D01*
X268241D01*
Y127381D01*
X268310D01*
Y127450D01*
X268379D01*
Y127519D01*
X268448D01*
Y127588D01*
X268518D01*
Y127657D01*
X268587D01*
Y127726D01*
X268725D01*
Y127795D01*
X268794D01*
Y127864D01*
X268863D01*
Y127933D01*
X268932D01*
Y128003D01*
X269001D01*
Y128072D01*
X269070D01*
Y128141D01*
X269209D01*
Y128210D01*
X269278D01*
Y128279D01*
X269347D01*
Y128348D01*
X269416D01*
Y128417D01*
X269554D01*
Y128486D01*
X269623D01*
Y128555D01*
X269692D01*
Y128624D01*
X269761D01*
Y128693D01*
X269900D01*
Y128763D01*
X269969D01*
Y128832D01*
X270107D01*
Y128901D01*
X270176D01*
Y128970D01*
X270245D01*
Y129039D01*
X270383D01*
Y129108D01*
X270452D01*
Y129177D01*
X270590D01*
Y129246D01*
X270659D01*
Y129315D01*
X270798D01*
Y129384D01*
X270936D01*
Y129454D01*
X271005D01*
Y129523D01*
X271212D01*
Y129592D01*
X271281D01*
Y129661D01*
X271420D01*
Y129730D01*
X271558D01*
Y129799D01*
X271696D01*
Y129868D01*
X271834D01*
Y129937D01*
X271972D01*
Y130006D01*
X272111D01*
Y130075D01*
X272249D01*
Y130145D01*
X272387D01*
Y130214D01*
X272594D01*
Y130283D01*
X272732D01*
Y130352D01*
X272871D01*
Y130421D01*
X273009D01*
Y130490D01*
X273285D01*
Y130559D01*
X273562D01*
Y130628D01*
X273700D01*
Y130697D01*
X273976D01*
Y130766D01*
X274114D01*
Y130835D01*
X274667D01*
Y130904D01*
X274943D01*
Y130974D01*
X275358D01*
Y131043D01*
X276395D01*
Y131112D01*
X276602D01*
Y131181D01*
X279435D01*
Y131112D01*
D02*
G37*
%LPC*%
G36*
X298861Y140683D02*
X298053D01*
Y140660D01*
X297960D01*
Y140637D01*
X297845D01*
Y140613D01*
X297821D01*
Y140590D01*
X297798D01*
Y140567D01*
X297752D01*
Y140544D01*
X297729D01*
Y140521D01*
X297706D01*
Y140498D01*
X297683D01*
Y140452D01*
X297660D01*
Y140429D01*
X297637D01*
Y140382D01*
X297614D01*
Y140336D01*
X297590D01*
Y140290D01*
X297567D01*
Y140036D01*
X297590D01*
Y139989D01*
X297614D01*
Y139943D01*
X297637D01*
Y139897D01*
X297660D01*
Y139874D01*
X297683D01*
Y139851D01*
X297706D01*
Y139828D01*
X297729D01*
Y139805D01*
X297752D01*
Y139781D01*
X297775D01*
Y139758D01*
X297798D01*
Y139735D01*
X297868D01*
Y139712D01*
X297937D01*
Y139689D01*
X298861D01*
Y139712D01*
X298885D01*
Y139874D01*
Y139897D01*
Y140660D01*
X298861D01*
Y140683D01*
D02*
G37*
G36*
X313091Y120932D02*
X313000D01*
Y120886D01*
X312954D01*
Y120841D01*
X312909D01*
Y120750D01*
X312864D01*
Y120704D01*
X312818D01*
Y120659D01*
X312773D01*
Y120523D01*
X312727D01*
Y120432D01*
X312682D01*
Y120296D01*
X312636D01*
Y120250D01*
X312591D01*
Y120114D01*
X312545D01*
Y119841D01*
X312591D01*
Y119796D01*
X313364D01*
Y119841D01*
X313455D01*
Y120114D01*
X313409D01*
Y120204D01*
X313364D01*
Y120250D01*
Y120296D01*
X313318D01*
Y120477D01*
X313273D01*
Y120568D01*
X313227D01*
Y120614D01*
X313182D01*
Y120704D01*
X313136D01*
Y120886D01*
X313091D01*
Y120932D01*
D02*
G37*
G36*
X313364Y116977D02*
X313136D01*
Y116932D01*
X313045D01*
Y116886D01*
X312909D01*
Y116841D01*
X312818D01*
Y116796D01*
X312773D01*
Y116750D01*
X312682D01*
Y116659D01*
X312636D01*
Y116614D01*
X312591D01*
Y116523D01*
X312545D01*
Y116386D01*
X312500D01*
Y116159D01*
X312545D01*
Y116068D01*
X312591D01*
Y115977D01*
X312636D01*
Y115886D01*
X312682D01*
Y115796D01*
X312773D01*
Y115750D01*
X312818D01*
Y115705D01*
X312954D01*
Y115659D01*
X313182D01*
Y115614D01*
X313364D01*
Y115659D01*
X313455D01*
Y115750D01*
X313500D01*
Y115796D01*
X313545D01*
Y116750D01*
X313500D01*
Y116841D01*
X313455D01*
Y116932D01*
X313364D01*
Y116977D01*
D02*
G37*
G36*
X296000Y117023D02*
X295818D01*
Y116977D01*
X295409D01*
Y116932D01*
X295364D01*
Y116886D01*
X295318D01*
Y116796D01*
X295273D01*
Y116568D01*
X295318D01*
Y116477D01*
X295364D01*
Y116432D01*
X295455D01*
Y116386D01*
X295545D01*
Y116341D01*
X296000D01*
Y116386D01*
X296045D01*
Y116432D01*
X296136D01*
Y116477D01*
X296182D01*
Y116932D01*
X296136D01*
Y116977D01*
X296000D01*
Y117023D01*
D02*
G37*
G36*
X277915Y129799D02*
X277776D01*
Y129730D01*
X276602D01*
Y129661D01*
X275842D01*
Y129592D01*
X275634D01*
Y129523D01*
X275220D01*
Y129454D01*
X274943D01*
Y129384D01*
X274667D01*
Y129315D01*
X274391D01*
Y129246D01*
X274183D01*
Y129177D01*
X273976D01*
Y129108D01*
X273838D01*
Y129039D01*
X273562D01*
Y128970D01*
X273423D01*
Y128901D01*
X273216D01*
Y128832D01*
X273009D01*
Y128763D01*
X272940D01*
Y128693D01*
X272732D01*
Y128624D01*
X272594D01*
Y128555D01*
X272456D01*
Y128486D01*
X272318D01*
Y128417D01*
X272180D01*
Y128348D01*
X272042D01*
Y128279D01*
X271972D01*
Y128210D01*
X271834D01*
Y128141D01*
X271696D01*
Y128072D01*
X271627D01*
Y128003D01*
X271489D01*
Y127933D01*
X271351D01*
Y127864D01*
X271212D01*
Y127795D01*
X271143D01*
Y127726D01*
X271074D01*
Y127657D01*
X270936D01*
Y127588D01*
X270867D01*
Y127519D01*
X270798D01*
Y127450D01*
X270729D01*
Y127381D01*
X270590D01*
Y127312D01*
X270521D01*
Y127243D01*
X270452D01*
Y127173D01*
X270314D01*
Y127104D01*
X270245D01*
Y127035D01*
X270176D01*
Y126966D01*
X270107D01*
Y126897D01*
X269969D01*
Y126828D01*
X269900D01*
Y126759D01*
X269830D01*
Y126690D01*
X269761D01*
Y126621D01*
X269692D01*
Y126551D01*
X269554D01*
Y126482D01*
X269485D01*
Y126413D01*
X269416D01*
Y126344D01*
X269347D01*
Y126275D01*
X269278D01*
Y126206D01*
X269209D01*
Y126137D01*
X269139D01*
Y126068D01*
X269070D01*
Y125999D01*
X269001D01*
Y125930D01*
X268932D01*
Y125861D01*
X268863D01*
Y125792D01*
X268794D01*
Y125722D01*
X268725D01*
Y125653D01*
X268656D01*
Y125515D01*
X268587D01*
Y125446D01*
X268518D01*
Y125377D01*
X268448D01*
Y125308D01*
X268379D01*
Y125170D01*
X268310D01*
Y125101D01*
X268241D01*
Y125031D01*
X268172D01*
Y124962D01*
X268103D01*
Y124824D01*
X268034D01*
Y124755D01*
X267965D01*
Y124686D01*
X267896D01*
Y124548D01*
X267827D01*
Y124409D01*
X267758D01*
Y124340D01*
X267688D01*
Y124271D01*
X267619D01*
Y124133D01*
X267550D01*
Y124064D01*
X267481D01*
Y123926D01*
X267412D01*
Y123788D01*
X267343D01*
Y123650D01*
X267274D01*
Y123511D01*
X267205D01*
Y123373D01*
X267136D01*
Y123235D01*
X267067D01*
Y123097D01*
X266998D01*
Y122959D01*
X266928D01*
Y122820D01*
X266859D01*
Y122751D01*
X266790D01*
Y122544D01*
X266721D01*
Y122475D01*
X266652D01*
Y122198D01*
X266583D01*
Y122060D01*
X266514D01*
Y121853D01*
X266445D01*
Y121646D01*
X266376D01*
Y121438D01*
X266306D01*
Y121231D01*
X266237D01*
Y121024D01*
X266168D01*
Y120678D01*
X266099D01*
Y120264D01*
X266030D01*
Y119987D01*
X265961D01*
Y119504D01*
X265892D01*
Y118467D01*
X265823D01*
Y117293D01*
X265892D01*
Y116187D01*
X265961D01*
Y115703D01*
X266030D01*
Y115496D01*
X266099D01*
Y115082D01*
X266168D01*
Y114736D01*
X266237D01*
Y114529D01*
X266306D01*
Y114252D01*
X266376D01*
Y114114D01*
X266445D01*
Y113907D01*
X266514D01*
Y113700D01*
X266583D01*
Y113493D01*
X266652D01*
Y113285D01*
X266721D01*
Y113147D01*
X266790D01*
Y113009D01*
X266859D01*
Y112871D01*
X266928D01*
Y112732D01*
X266998D01*
Y112594D01*
X267067D01*
Y112456D01*
X267136D01*
Y112318D01*
X267205D01*
Y112249D01*
X267274D01*
Y112110D01*
X267343D01*
Y111972D01*
X267412D01*
Y111834D01*
X267481D01*
Y111696D01*
X267550D01*
Y111627D01*
X267619D01*
Y111558D01*
X267688D01*
Y111489D01*
X267758D01*
Y111351D01*
X267827D01*
Y111281D01*
X267896D01*
Y111143D01*
X267965D01*
Y111074D01*
X268034D01*
Y111005D01*
X268103D01*
Y110867D01*
X268172D01*
Y110798D01*
X268241D01*
Y110660D01*
X268310D01*
Y110591D01*
X268379D01*
Y110521D01*
X268448D01*
Y110452D01*
X268518D01*
Y110383D01*
X268587D01*
Y110245D01*
X268656D01*
Y110176D01*
X268725D01*
Y110107D01*
X268794D01*
Y110038D01*
X268863D01*
Y109969D01*
X268932D01*
Y109899D01*
X269001D01*
Y109830D01*
X269070D01*
Y109761D01*
X269139D01*
Y109623D01*
X269278D01*
Y109485D01*
X269416D01*
Y109416D01*
X269485D01*
Y109347D01*
X269554D01*
Y109278D01*
X269623D01*
Y109209D01*
X269692D01*
Y109139D01*
X269761D01*
Y109070D01*
X269830D01*
Y109001D01*
X269900D01*
Y108932D01*
X269969D01*
Y108863D01*
X270038D01*
Y108794D01*
X270107D01*
Y108725D01*
X270176D01*
Y108656D01*
X270314D01*
Y108587D01*
X270383D01*
Y108518D01*
X270452D01*
Y108449D01*
X270521D01*
Y108379D01*
X270590D01*
Y108310D01*
X270729D01*
Y108241D01*
X270798D01*
Y108172D01*
X270936D01*
Y108103D01*
X271005D01*
Y108034D01*
X271074D01*
Y107965D01*
X271212D01*
Y107896D01*
X271281D01*
Y107827D01*
X271420D01*
Y107757D01*
X271489D01*
Y107688D01*
X271627D01*
Y107619D01*
X271765D01*
Y107550D01*
X271834D01*
Y107481D01*
X272042D01*
Y107412D01*
X272111D01*
Y107343D01*
X272249D01*
Y107274D01*
X272387D01*
Y107205D01*
X272525D01*
Y107136D01*
X272663D01*
Y107067D01*
X272801D01*
Y106998D01*
X272940D01*
Y106928D01*
X273078D01*
Y106859D01*
X273216D01*
Y106790D01*
X273493D01*
Y106721D01*
X273631D01*
Y106652D01*
X273838D01*
Y106583D01*
X274045D01*
Y106514D01*
X274253D01*
Y106445D01*
X274460D01*
Y106376D01*
X274736D01*
Y106307D01*
X275151D01*
Y106237D01*
X275427D01*
Y106168D01*
X275911D01*
Y106099D01*
X276878D01*
Y106030D01*
X278398D01*
Y106099D01*
X279366D01*
Y106168D01*
X279849D01*
Y106237D01*
X280057D01*
Y106307D01*
X280540D01*
Y106376D01*
X280817D01*
Y106445D01*
X281024D01*
Y106514D01*
X281231D01*
Y106583D01*
X281438D01*
Y106652D01*
X281646D01*
Y106721D01*
X281784D01*
Y106790D01*
X282060D01*
Y106859D01*
X282199D01*
Y106928D01*
X282337D01*
Y106998D01*
X282475D01*
Y107067D01*
X282613D01*
Y107136D01*
X282751D01*
Y107205D01*
X282889D01*
Y107274D01*
X283028D01*
Y107343D01*
X283166D01*
Y107412D01*
X283304D01*
Y107481D01*
X283442D01*
Y107550D01*
X283580D01*
Y107619D01*
X283719D01*
Y107688D01*
X283788D01*
Y107757D01*
X283857D01*
Y107827D01*
X283995D01*
Y107896D01*
X284133D01*
Y107965D01*
X284202D01*
Y108034D01*
X284271D01*
Y108103D01*
X284409D01*
Y108172D01*
X284548D01*
Y108241D01*
X284617D01*
Y108310D01*
X284755D01*
Y108379D01*
X284824D01*
Y108449D01*
X284893D01*
Y108518D01*
X284962D01*
Y108587D01*
X285031D01*
Y108656D01*
X285101D01*
Y108725D01*
X285170D01*
Y108794D01*
X285308D01*
Y108863D01*
X285377D01*
Y108932D01*
X285446D01*
Y109001D01*
X285515D01*
Y109070D01*
X285584D01*
Y109139D01*
X285653D01*
Y109209D01*
X285722D01*
Y109278D01*
X285791D01*
Y109347D01*
X285861D01*
Y109416D01*
X285930D01*
Y109485D01*
X285999D01*
Y109554D01*
X286068D01*
Y109623D01*
X286137D01*
Y109692D01*
X286206D01*
Y109761D01*
X286275D01*
Y109830D01*
X286344D01*
Y109969D01*
X286413D01*
Y110038D01*
X286482D01*
Y110107D01*
X286551D01*
Y110176D01*
X286621D01*
Y110245D01*
X286690D01*
Y110314D01*
X286759D01*
Y110383D01*
X286828D01*
Y110452D01*
X286897D01*
Y110521D01*
X286966D01*
Y110660D01*
X287035D01*
Y110729D01*
X287104D01*
Y110798D01*
X287173D01*
Y110936D01*
X287243D01*
Y111005D01*
X287312D01*
Y111143D01*
X287381D01*
Y111212D01*
X287450D01*
Y111281D01*
X287519D01*
Y111420D01*
X287588D01*
Y111558D01*
X287657D01*
Y111627D01*
X287726D01*
Y111696D01*
X287795D01*
Y111834D01*
X287864D01*
Y111972D01*
X287933D01*
Y112110D01*
X288002D01*
Y112249D01*
X288072D01*
Y112318D01*
X288141D01*
Y112525D01*
X288210D01*
Y112594D01*
X288279D01*
Y112732D01*
X288348D01*
Y112871D01*
X288417D01*
Y113009D01*
X288486D01*
Y113147D01*
X288555D01*
Y113285D01*
X288624D01*
Y113493D01*
X288693D01*
Y113700D01*
X288763D01*
Y113907D01*
X288832D01*
Y114114D01*
X288901D01*
Y114252D01*
X288970D01*
Y114529D01*
X289039D01*
Y114736D01*
X289108D01*
Y115082D01*
X289177D01*
Y115427D01*
X289246D01*
Y115703D01*
X289315D01*
Y116256D01*
X289384D01*
Y117293D01*
X289454D01*
Y119297D01*
X289384D01*
Y119780D01*
X289315D01*
Y120333D01*
X289246D01*
Y120609D01*
X289177D01*
Y120817D01*
X289108D01*
Y121093D01*
X289039D01*
Y121300D01*
X288970D01*
Y121508D01*
X288901D01*
Y121646D01*
X288832D01*
Y121853D01*
X288763D01*
Y122060D01*
X288693D01*
Y122198D01*
X288624D01*
Y122406D01*
X288555D01*
Y122613D01*
X288486D01*
Y122751D01*
X288417D01*
Y122889D01*
X288348D01*
Y123028D01*
X288279D01*
Y123166D01*
X288210D01*
Y123235D01*
X288141D01*
Y123442D01*
X288072D01*
Y123511D01*
X288002D01*
Y123650D01*
X287933D01*
Y123788D01*
X287864D01*
Y123926D01*
X287795D01*
Y123995D01*
X287726D01*
Y124133D01*
X287657D01*
Y124202D01*
X287588D01*
Y124340D01*
X287519D01*
Y124409D01*
X287450D01*
Y124479D01*
X287381D01*
Y124617D01*
X287312D01*
Y124686D01*
X287243D01*
Y124824D01*
X287173D01*
Y124893D01*
X287104D01*
Y124962D01*
X287035D01*
Y125101D01*
X286966D01*
Y125170D01*
X286897D01*
Y125239D01*
X286828D01*
Y125308D01*
X286759D01*
Y125377D01*
X286690D01*
Y125515D01*
X286621D01*
Y125584D01*
X286551D01*
Y125653D01*
X286482D01*
Y125722D01*
X286413D01*
Y125792D01*
X286344D01*
Y125930D01*
X286275D01*
Y125999D01*
X286206D01*
Y126068D01*
X286137D01*
Y126137D01*
X286068D01*
Y126206D01*
X285999D01*
Y126275D01*
X285930D01*
Y126344D01*
X285861D01*
Y126413D01*
X285791D01*
Y126482D01*
X285722D01*
Y126551D01*
X285653D01*
Y126621D01*
X285584D01*
Y126690D01*
X285515D01*
Y126759D01*
X285446D01*
Y126828D01*
X285377D01*
Y126897D01*
X285308D01*
Y126966D01*
X285239D01*
Y127035D01*
X285101D01*
Y127104D01*
X285031D01*
Y127173D01*
X284962D01*
Y127243D01*
X284824D01*
Y127312D01*
X284755D01*
Y127381D01*
X284617D01*
Y127450D01*
X284548D01*
Y127519D01*
X284479D01*
Y127588D01*
X284409D01*
Y127657D01*
X284271D01*
Y127726D01*
X284202D01*
Y127795D01*
X284064D01*
Y127864D01*
X283995D01*
Y127933D01*
X283857D01*
Y128003D01*
X283719D01*
Y128072D01*
X283580D01*
Y128141D01*
X283511D01*
Y128210D01*
X283373D01*
Y128279D01*
X283304D01*
Y128348D01*
X283166D01*
Y128417D01*
X283028D01*
Y128486D01*
X282889D01*
Y128555D01*
X282751D01*
Y128624D01*
X282613D01*
Y128693D01*
X282406D01*
Y128763D01*
X282268D01*
Y128832D01*
X282060D01*
Y128901D01*
X281922D01*
Y128970D01*
X281784D01*
Y129039D01*
X281577D01*
Y129108D01*
X281369D01*
Y129177D01*
X281162D01*
Y129246D01*
X280955D01*
Y129315D01*
X280748D01*
Y129384D01*
X280402D01*
Y129454D01*
X280195D01*
Y129523D01*
X279780D01*
Y129592D01*
X279366D01*
Y129661D01*
X278675D01*
Y129730D01*
X277915D01*
Y129799D01*
D02*
G37*
%LPD*%
G36*
X278467Y128901D02*
X278536D01*
Y127588D01*
X278467D01*
Y126897D01*
X278260D01*
Y126828D01*
X277085D01*
Y126759D01*
X276947D01*
Y128970D01*
X278467D01*
Y128901D01*
D02*
G37*
G36*
X277846Y125031D02*
X277915D01*
Y124893D01*
X277984D01*
Y124064D01*
X278053D01*
Y120955D01*
X278122D01*
Y120886D01*
X278191D01*
Y120817D01*
X278260D01*
Y120747D01*
X278467D01*
Y120678D01*
X278606D01*
Y120609D01*
X278744D01*
Y120540D01*
X278951D01*
Y120471D01*
X279089D01*
Y120402D01*
X279296D01*
Y120333D01*
X279366D01*
Y120264D01*
X279573D01*
Y120195D01*
X279642D01*
Y120126D01*
X279711D01*
Y120056D01*
X279849D01*
Y119987D01*
X279918D01*
Y119918D01*
X279987D01*
Y119849D01*
X280057D01*
Y119780D01*
X280126D01*
Y119711D01*
X280195D01*
Y119573D01*
X280264D01*
Y119435D01*
X280333D01*
Y119297D01*
X280402D01*
Y119158D01*
X280471D01*
Y119020D01*
X280540D01*
Y118813D01*
X280609D01*
Y118675D01*
X280678D01*
Y118536D01*
X280748D01*
Y118398D01*
X280817D01*
Y118329D01*
X280886D01*
Y118260D01*
X280955D01*
Y118191D01*
X281162D01*
Y118260D01*
X281231D01*
Y118191D01*
X285031D01*
Y118122D01*
X285170D01*
Y118053D01*
X285239D01*
Y117984D01*
X285308D01*
Y117707D01*
X285239D01*
Y117638D01*
X285170D01*
Y117569D01*
X284064D01*
Y117500D01*
X282544D01*
Y117431D01*
X281231D01*
Y117224D01*
X281300D01*
Y117155D01*
X281369D01*
Y116878D01*
X281438D01*
Y116809D01*
X281507D01*
Y116602D01*
X281577D01*
Y116464D01*
X281646D01*
Y116325D01*
X281715D01*
Y116118D01*
X281784D01*
Y115980D01*
X281853D01*
Y115773D01*
X281922D01*
Y115634D01*
X281991D01*
Y115427D01*
X282060D01*
Y115289D01*
X282129D01*
Y115151D01*
X282199D01*
Y114944D01*
X282268D01*
Y114805D01*
X282337D01*
Y114598D01*
X282406D01*
Y114460D01*
X282475D01*
Y114322D01*
X282544D01*
Y114114D01*
X282613D01*
Y113976D01*
X282682D01*
Y113769D01*
X282751D01*
Y113562D01*
X282820D01*
Y113423D01*
X282889D01*
Y113216D01*
X282959D01*
Y113078D01*
X283028D01*
Y112871D01*
X283097D01*
Y112732D01*
X283166D01*
Y112594D01*
X283235D01*
Y112387D01*
X283304D01*
Y112249D01*
X283373D01*
Y112041D01*
X283442D01*
Y111903D01*
X283304D01*
Y111972D01*
X283097D01*
Y112041D01*
X283028D01*
Y112110D01*
X282820D01*
Y112180D01*
X282613D01*
Y112249D01*
X282475D01*
Y112318D01*
X282268D01*
Y112387D01*
X282129D01*
Y112456D01*
X281922D01*
Y112525D01*
X281784D01*
Y112594D01*
X281646D01*
Y112663D01*
X281438D01*
Y112732D01*
X281300D01*
Y112802D01*
X281093D01*
Y112871D01*
X280955D01*
Y112940D01*
X280748D01*
Y113009D01*
X280609D01*
Y113078D01*
X280402D01*
Y113147D01*
X280195D01*
Y113216D01*
X280057D01*
Y113285D01*
X279849D01*
Y113354D01*
X279711D01*
Y113423D01*
X279504D01*
Y113493D01*
X279366D01*
Y113562D01*
X279158D01*
Y113631D01*
X278951D01*
Y113700D01*
X278813D01*
Y113769D01*
X278606D01*
Y113838D01*
X278398D01*
Y113907D01*
X278191D01*
Y113976D01*
X278122D01*
Y113907D01*
X278053D01*
Y111834D01*
X277984D01*
Y110452D01*
X277915D01*
Y110314D01*
X277846D01*
Y110245D01*
X277776D01*
Y110176D01*
X277569D01*
Y110245D01*
X277500D01*
Y110314D01*
X277431D01*
Y110383D01*
X277362D01*
Y111143D01*
X277293D01*
Y112249D01*
X277224D01*
Y114460D01*
X277154D01*
Y114598D01*
X276878D01*
Y114667D01*
X276809D01*
Y114736D01*
X276602D01*
Y114805D01*
X276395D01*
Y114874D01*
X276256D01*
Y114944D01*
X276118D01*
Y115013D01*
X275980D01*
Y115082D01*
X275842D01*
Y115151D01*
X275704D01*
Y115220D01*
X275565D01*
Y115289D01*
X275496D01*
Y115358D01*
X275427D01*
Y115427D01*
X275358D01*
Y115565D01*
X275289D01*
Y115634D01*
X275220D01*
Y115703D01*
X275151D01*
Y115842D01*
X275082D01*
Y115980D01*
X275013D01*
Y116118D01*
X274943D01*
Y116256D01*
X274874D01*
Y116464D01*
X274805D01*
Y116602D01*
X274736D01*
Y116809D01*
X274667D01*
Y116878D01*
X274598D01*
Y117155D01*
X274529D01*
Y117293D01*
X274460D01*
Y117362D01*
X274391D01*
Y117500D01*
X271420D01*
Y117569D01*
X270314D01*
Y117638D01*
X270245D01*
Y117707D01*
X270176D01*
Y117984D01*
X270245D01*
Y118053D01*
X270314D01*
Y118122D01*
X270452D01*
Y118191D01*
X271351D01*
Y118260D01*
X273285D01*
Y118329D01*
X274045D01*
Y118467D01*
X273976D01*
Y118605D01*
X273907D01*
Y118813D01*
X273838D01*
Y118951D01*
X273769D01*
Y119089D01*
X273700D01*
Y119297D01*
X273631D01*
Y119366D01*
X273562D01*
Y119642D01*
X273493D01*
Y119711D01*
X273423D01*
Y119918D01*
X273354D01*
Y120056D01*
X273285D01*
Y120195D01*
X273216D01*
Y120402D01*
X273147D01*
Y120540D01*
X273078D01*
Y120678D01*
X273009D01*
Y120817D01*
X272940D01*
Y121024D01*
X272871D01*
Y121162D01*
X272801D01*
Y121369D01*
X272732D01*
Y121577D01*
X272663D01*
Y121715D01*
X272594D01*
Y121922D01*
X272525D01*
Y122060D01*
X272456D01*
Y122198D01*
X272387D01*
Y122406D01*
X272318D01*
Y122544D01*
X272249D01*
Y122820D01*
X272180D01*
Y122959D01*
X272111D01*
Y123166D01*
X272042D01*
Y123304D01*
X272318D01*
Y123235D01*
X272594D01*
Y123166D01*
X272801D01*
Y123097D01*
X273009D01*
Y123028D01*
X273147D01*
Y122959D01*
X273285D01*
Y122889D01*
X273493D01*
Y122820D01*
X273631D01*
Y122751D01*
X273838D01*
Y122682D01*
X273976D01*
Y122613D01*
X274114D01*
Y122544D01*
X274322D01*
Y122475D01*
X274460D01*
Y122406D01*
X274667D01*
Y122337D01*
X274805D01*
Y122268D01*
X274943D01*
Y122198D01*
X275151D01*
Y122129D01*
X275220D01*
Y122060D01*
X275427D01*
Y121991D01*
X275565D01*
Y121922D01*
X275773D01*
Y121853D01*
X275911D01*
Y121784D01*
X276049D01*
Y121715D01*
X276256D01*
Y121646D01*
X276325D01*
Y121577D01*
X276602D01*
Y121508D01*
X276671D01*
Y121438D01*
X276878D01*
Y121369D01*
X277154D01*
Y121438D01*
X277224D01*
Y122544D01*
X277293D01*
Y123788D01*
X277362D01*
Y125031D01*
X277431D01*
Y125101D01*
X277500D01*
Y125170D01*
X277846D01*
Y125031D01*
D02*
G37*
G36*
X288624Y118536D02*
X288693D01*
Y117224D01*
X288624D01*
Y117155D01*
X286551D01*
Y118536D01*
X286621D01*
Y118605D01*
X288624D01*
Y118536D01*
D02*
G37*
G36*
X268656D02*
X268725D01*
Y118467D01*
X268794D01*
Y118329D01*
X268725D01*
Y117569D01*
Y117500D01*
Y117155D01*
X266652D01*
Y117293D01*
X266583D01*
Y118536D01*
X266652D01*
Y118605D01*
X268656D01*
Y118536D01*
D02*
G37*
G36*
X278329Y108863D02*
X278398D01*
Y106859D01*
X278329D01*
Y106790D01*
X276947D01*
Y108794D01*
X276878D01*
Y108863D01*
X276947D01*
Y108932D01*
X278329D01*
Y108863D01*
D02*
G37*
%LPC*%
G36*
X279504Y119158D02*
X279296D01*
Y119089D01*
X279227D01*
Y119020D01*
X279158D01*
Y118951D01*
X279089D01*
Y118882D01*
X279020D01*
Y118813D01*
X278951D01*
Y118744D01*
X278813D01*
Y118675D01*
X278744D01*
Y118605D01*
X278675D01*
Y118536D01*
X278606D01*
Y118467D01*
X278536D01*
Y118398D01*
X278467D01*
Y118329D01*
X278398D01*
Y118260D01*
X278329D01*
Y118191D01*
X278260D01*
Y118122D01*
X278191D01*
Y118053D01*
X278053D01*
Y117915D01*
X277915D01*
Y117845D01*
X277846D01*
Y117776D01*
X277776D01*
Y117707D01*
X277707D01*
Y117638D01*
X277638D01*
Y117569D01*
X277569D01*
Y117500D01*
X277500D01*
Y117431D01*
X277431D01*
Y117362D01*
X277362D01*
Y117293D01*
X277293D01*
Y117224D01*
X277224D01*
Y117085D01*
X277085D01*
Y116947D01*
X277016D01*
Y116878D01*
X276947D01*
Y116809D01*
X276878D01*
Y116740D01*
X276809D01*
Y116671D01*
X276740D01*
Y116602D01*
X276671D01*
Y116533D01*
X276602D01*
Y116464D01*
X276533D01*
Y116394D01*
X276464D01*
Y116325D01*
X276395D01*
Y116187D01*
X276325D01*
Y116118D01*
X276256D01*
Y115842D01*
X276325D01*
Y115773D01*
X276533D01*
Y115703D01*
X276671D01*
Y115634D01*
X276809D01*
Y115565D01*
X276947D01*
Y115496D01*
X277085D01*
Y115427D01*
X277224D01*
Y115358D01*
X277362D01*
Y115289D01*
X277569D01*
Y115220D01*
X277707D01*
Y115151D01*
X277846D01*
Y115082D01*
X278053D01*
Y115013D01*
X278122D01*
Y114944D01*
X278329D01*
Y114874D01*
X278467D01*
Y114805D01*
X278606D01*
Y114736D01*
X278813D01*
Y114667D01*
X278951D01*
Y114598D01*
X279089D01*
Y114529D01*
X279227D01*
Y114460D01*
X279435D01*
Y114391D01*
X279573D01*
Y114322D01*
X279711D01*
Y114252D01*
X279918D01*
Y114183D01*
X280057D01*
Y114114D01*
X280264D01*
Y114045D01*
X280402D01*
Y113976D01*
X280609D01*
Y113907D01*
X280748D01*
Y113838D01*
X280955D01*
Y113769D01*
X281162D01*
Y113700D01*
X281300D01*
Y113631D01*
X281577D01*
Y113562D01*
X281715D01*
Y113493D01*
X281784D01*
Y113562D01*
X281853D01*
Y113631D01*
X281784D01*
Y113838D01*
X281715D01*
Y114045D01*
X281646D01*
Y114183D01*
X281577D01*
Y114391D01*
X281507D01*
Y114529D01*
X281438D01*
Y114667D01*
X281369D01*
Y114874D01*
X281300D01*
Y115013D01*
X281231D01*
Y115220D01*
X281162D01*
Y115358D01*
X281093D01*
Y115496D01*
X281024D01*
Y115703D01*
X280955D01*
Y115842D01*
X280886D01*
Y116049D01*
X280817D01*
Y116187D01*
X280748D01*
Y116325D01*
X280678D01*
Y116533D01*
X280609D01*
Y116602D01*
X280540D01*
Y116809D01*
X280471D01*
Y116947D01*
X280402D01*
Y117085D01*
X280333D01*
Y117293D01*
X280264D01*
Y117362D01*
X280195D01*
Y117569D01*
X280126D01*
Y117707D01*
X280057D01*
Y117915D01*
X279987D01*
Y118053D01*
X279918D01*
Y118191D01*
X279849D01*
Y118398D01*
X279780D01*
Y118467D01*
X279711D01*
Y118675D01*
X279642D01*
Y118813D01*
X279573D01*
Y119020D01*
X279504D01*
Y119158D01*
D02*
G37*
%LPD*%
M02*
