M48
;Layer_Color=9474304
;FILE_FORMAT=2:4
INCH,TZ
;TYPE=PLATED
T1F00S00C0.0280
T2F00S00C0.0300
T3F00S00C0.0640
T4F00S00C0.1340
%
T01
X33100Y10700
X26050Y19300
X16150Y18750
T02
X24050Y16000
Y17000
Y18000
Y19000
X27600Y18800
Y19800
Y20800
Y17800
X11700Y18000
Y19000
Y17000
Y16000
T03
X11500Y11500
X14000
X34000Y19000
Y21000
T04
X16250Y12000
X22250
X34250Y11750
X11250Y20750
M30
