G04*
G04 #@! TF.GenerationSoftware,Altium Limited,Altium Designer,22.9.1 (49)*
G04*
G04 Layer_Color=65535*
%FSLAX25Y25*%
%MOIN*%
G70*
G04*
G04 #@! TF.SameCoordinates,DEE7DE5E-5230-4543-89B2-9CAB29215946*
G04*
G04*
G04 #@! TF.FilePolarity,Positive*
G04*
G01*
G75*
%ADD10C,0.00787*%
%ADD11C,0.01575*%
%ADD12C,0.01000*%
G36*
X195720Y130680D02*
X195742D01*
Y130614D01*
X195764D01*
Y130547D01*
X195786D01*
Y130570D01*
X195808D01*
Y130658D01*
X195831D01*
Y130680D01*
X195853D01*
Y130658D01*
X195875D01*
Y130614D01*
X195897D01*
Y130592D01*
X195919D01*
Y130570D01*
X195941D01*
Y130547D01*
X195964D01*
Y130503D01*
X195986D01*
Y130481D01*
X196008D01*
Y130459D01*
X196030D01*
Y130437D01*
X196052D01*
Y130414D01*
X196074D01*
Y130370D01*
X196097D01*
Y130348D01*
X196119D01*
Y130326D01*
X196141D01*
Y130281D01*
X196163D01*
Y130259D01*
X196185D01*
Y130237D01*
X196207D01*
Y130215D01*
X196230D01*
Y130193D01*
X196252D01*
Y130148D01*
X196296D01*
Y130104D01*
X196318D01*
Y130037D01*
X196230D01*
Y130060D01*
X196207D01*
Y130082D01*
X196141D01*
Y130104D01*
X196119D01*
Y130126D01*
X196052D01*
Y130148D01*
X195986D01*
Y130171D01*
X195964D01*
Y130193D01*
X195919D01*
Y130215D01*
X195875D01*
Y130148D01*
X195897D01*
Y130126D01*
X195941D01*
Y130104D01*
X195986D01*
Y130082D01*
X196008D01*
Y130060D01*
X196030D01*
Y130037D01*
X196097D01*
Y130015D01*
X196119D01*
Y129993D01*
X196163D01*
Y129971D01*
X196252D01*
Y129949D01*
X196296D01*
Y129927D01*
X196363D01*
Y129904D01*
X196407D01*
Y129882D01*
X196451D01*
Y129860D01*
X196496D01*
Y129838D01*
X196540D01*
Y129816D01*
X196584D01*
Y129794D01*
X196629D01*
Y129771D01*
X196673D01*
Y129749D01*
X196695D01*
Y129727D01*
X196717D01*
Y129705D01*
X196739D01*
Y129683D01*
X196762D01*
Y129639D01*
X196784D01*
Y129616D01*
X196806D01*
Y129572D01*
X196828D01*
Y129505D01*
X196850D01*
Y129461D01*
X196872D01*
Y129417D01*
X196895D01*
Y129395D01*
X196917D01*
Y129372D01*
X196939D01*
Y129350D01*
X196961D01*
Y129328D01*
X196983D01*
Y129306D01*
X197028D01*
Y129284D01*
X197072D01*
Y129262D01*
X197116D01*
Y129239D01*
X197183D01*
Y129217D01*
X197227D01*
Y129195D01*
X197338D01*
Y129173D01*
X197427D01*
Y129151D01*
X197471D01*
Y129129D01*
X197582D01*
Y129106D01*
X197626D01*
Y129084D01*
X197693D01*
Y129062D01*
X197715D01*
Y129040D01*
X197759D01*
Y129018D01*
X197781D01*
Y128996D01*
X197803D01*
Y128973D01*
X197826D01*
Y128951D01*
X197848D01*
Y128929D01*
X197870D01*
Y128907D01*
X197892D01*
Y128796D01*
X197870D01*
Y128752D01*
X197848D01*
Y128729D01*
X197826D01*
Y128685D01*
X197803D01*
Y128663D01*
X197781D01*
Y128619D01*
X197759D01*
Y128596D01*
X197737D01*
Y128552D01*
X197715D01*
Y128530D01*
X197693D01*
Y128486D01*
X197670D01*
Y128463D01*
X197648D01*
Y128441D01*
X197626D01*
Y128419D01*
X197604D01*
Y128397D01*
X197582D01*
Y128375D01*
X197560D01*
Y128353D01*
X197515D01*
Y128331D01*
X197471D01*
Y128308D01*
X197449D01*
Y128286D01*
X197405D01*
Y128264D01*
X197338D01*
Y128242D01*
X197205D01*
Y128220D01*
X197094D01*
Y128198D01*
X197005D01*
Y128175D01*
X196828D01*
Y128153D01*
X196739D01*
Y128131D01*
X196606D01*
Y128109D01*
X196451D01*
Y128087D01*
X196363D01*
Y128065D01*
X196230D01*
Y128042D01*
X196119D01*
Y128020D01*
X196052D01*
Y127998D01*
X196030D01*
Y127954D01*
X196008D01*
Y127931D01*
X195986D01*
Y127887D01*
X195964D01*
Y127821D01*
X195941D01*
Y127776D01*
X195919D01*
Y127732D01*
X195897D01*
Y127688D01*
X195875D01*
Y127621D01*
X195853D01*
Y127577D01*
X195831D01*
Y127532D01*
X195808D01*
Y127444D01*
X195786D01*
Y127399D01*
X195764D01*
Y127355D01*
X195742D01*
Y127311D01*
X195720D01*
Y127222D01*
X195697D01*
Y127200D01*
X195675D01*
Y127155D01*
X195653D01*
Y127045D01*
X195631D01*
Y127000D01*
X195609D01*
Y126934D01*
X195587D01*
Y126867D01*
X195564D01*
Y126823D01*
X195542D01*
Y126779D01*
X195520D01*
Y126734D01*
X195498D01*
Y126623D01*
X195476D01*
Y126579D01*
X195454D01*
Y126513D01*
X195431D01*
Y126424D01*
X195409D01*
Y126380D01*
X195387D01*
Y126269D01*
X195365D01*
Y126224D01*
X195343D01*
Y126158D01*
X195321D01*
Y126069D01*
X195298D01*
Y125870D01*
X195276D01*
Y125759D01*
X195254D01*
Y125648D01*
X195232D01*
Y125426D01*
X195210D01*
Y125293D01*
X195188D01*
Y125182D01*
X195165D01*
Y124916D01*
X195143D01*
Y124717D01*
X195121D01*
Y124606D01*
X195099D01*
Y124384D01*
X195077D01*
Y123609D01*
X195099D01*
Y123365D01*
X195121D01*
Y123187D01*
X195143D01*
Y122943D01*
X195165D01*
Y122833D01*
X195188D01*
Y122766D01*
X195210D01*
Y122744D01*
X195232D01*
Y122699D01*
X195254D01*
Y122677D01*
X195276D01*
Y122633D01*
X195298D01*
Y122611D01*
X195321D01*
Y122589D01*
X195343D01*
Y122566D01*
X195365D01*
Y122544D01*
X195431D01*
Y122522D01*
X195964D01*
Y122500D01*
X196074D01*
Y122522D01*
X196584D01*
Y122500D01*
X197028D01*
Y122478D01*
X197161D01*
Y122456D01*
X197205D01*
Y122433D01*
X197338D01*
Y122411D01*
X197405D01*
Y122389D01*
X197493D01*
Y122367D01*
X197538D01*
Y122345D01*
X197582D01*
Y122323D01*
X197670D01*
Y122301D01*
X197715D01*
Y122278D01*
X197781D01*
Y122256D01*
X197826D01*
Y122234D01*
X197848D01*
Y122212D01*
X197914D01*
Y122190D01*
X197959D01*
Y122168D01*
X198025D01*
Y122145D01*
X198070D01*
Y122123D01*
X198136D01*
Y122101D01*
X198203D01*
Y122079D01*
X198225D01*
Y122057D01*
X198269D01*
Y122034D01*
X198291D01*
Y122012D01*
X198336D01*
Y121990D01*
X198402D01*
Y121968D01*
X198424D01*
Y121946D01*
X198469D01*
Y121924D01*
X198491D01*
Y121901D01*
X198535D01*
Y121879D01*
X198557D01*
Y121857D01*
X198602D01*
Y121835D01*
X198624D01*
Y121813D01*
X198646D01*
Y121791D01*
X198690D01*
Y121768D01*
X198713D01*
Y121746D01*
X198757D01*
Y121724D01*
X198779D01*
Y121702D01*
X198801D01*
Y121680D01*
X198823D01*
Y121658D01*
X198846D01*
Y121635D01*
X198868D01*
Y121613D01*
X198890D01*
Y121591D01*
X198912D01*
Y121569D01*
X198934D01*
Y121547D01*
X198956D01*
Y121525D01*
X198978D01*
Y121502D01*
X199001D01*
Y121480D01*
X199023D01*
Y121458D01*
X199045D01*
Y121436D01*
X199067D01*
Y121391D01*
X199089D01*
Y121369D01*
X199111D01*
Y121325D01*
X199134D01*
Y121281D01*
X199156D01*
Y121236D01*
X199178D01*
Y121192D01*
X199200D01*
Y121148D01*
X199222D01*
Y120948D01*
X199244D01*
Y120882D01*
X199222D01*
Y120682D01*
X199200D01*
Y120638D01*
X199178D01*
Y120594D01*
X199156D01*
Y120571D01*
X199134D01*
Y120527D01*
X199111D01*
Y120483D01*
X199089D01*
Y120460D01*
X199067D01*
Y120416D01*
X199045D01*
Y120394D01*
X199023D01*
Y120372D01*
X199001D01*
Y120350D01*
X198978D01*
Y120327D01*
X198956D01*
Y120305D01*
X198934D01*
Y120283D01*
X198912D01*
Y120261D01*
X198890D01*
Y120239D01*
X198868D01*
Y120217D01*
X198846D01*
Y120172D01*
X198823D01*
Y120150D01*
X198801D01*
Y120128D01*
X198779D01*
Y120106D01*
X198735D01*
Y120084D01*
X198713D01*
Y120061D01*
X198690D01*
Y120039D01*
X198646D01*
Y120017D01*
X198624D01*
Y119995D01*
X198580D01*
Y119973D01*
X198557D01*
Y119950D01*
X198535D01*
Y119928D01*
X198491D01*
Y119906D01*
X198447D01*
Y119884D01*
X198424D01*
Y119862D01*
X198380D01*
Y119840D01*
X198336D01*
Y119817D01*
X198269D01*
Y119795D01*
X198247D01*
Y119773D01*
X198203D01*
Y119751D01*
X198180D01*
Y119729D01*
X198114D01*
Y119707D01*
X198047D01*
Y119685D01*
X198025D01*
Y119662D01*
X197981D01*
Y119640D01*
X197937D01*
Y119618D01*
X197870D01*
Y119596D01*
X197826D01*
Y119574D01*
X197759D01*
Y119552D01*
X197715D01*
Y119529D01*
X197670D01*
Y119507D01*
X197560D01*
Y119485D01*
X197515D01*
Y119463D01*
X197449D01*
Y119441D01*
X197360D01*
Y119419D01*
X197272D01*
Y119396D01*
X197139D01*
Y119374D01*
X197028D01*
Y119352D01*
X196917D01*
Y119330D01*
X196673D01*
Y119308D01*
X188980D01*
Y119330D01*
X188382D01*
Y119352D01*
X188138D01*
Y119374D01*
X188027D01*
Y119352D01*
X188005D01*
Y119374D01*
X187983D01*
Y119352D01*
X187916D01*
Y119374D01*
X187872D01*
Y119396D01*
X187628D01*
Y119419D01*
X187561D01*
Y119396D01*
X187517D01*
Y119419D01*
X187428D01*
Y119441D01*
X187251D01*
Y119463D01*
X187074D01*
Y119485D01*
X187007D01*
Y119507D01*
X186741D01*
Y119529D01*
X186675D01*
Y119552D01*
X186564D01*
Y119574D01*
X186497D01*
Y119596D01*
X186409D01*
Y119618D01*
X186231D01*
Y119640D01*
X186143D01*
Y119662D01*
X186054D01*
Y119685D01*
X185965D01*
Y119707D01*
X185854D01*
Y119729D01*
X185766D01*
Y119751D01*
X185699D01*
Y119773D01*
X185655D01*
Y119795D01*
X185588D01*
Y119817D01*
X185477D01*
Y119840D01*
X185389D01*
Y119862D01*
X185322D01*
Y119884D01*
X185256D01*
Y119906D01*
X185212D01*
Y119928D01*
X185101D01*
Y119950D01*
X185012D01*
Y119973D01*
X184968D01*
Y119995D01*
X184901D01*
Y120017D01*
X184835D01*
Y120039D01*
X184702D01*
Y120017D01*
X184657D01*
Y119995D01*
X184635D01*
Y119973D01*
X184613D01*
Y119950D01*
X184591D01*
Y119906D01*
X184569D01*
Y119862D01*
X184546D01*
Y119840D01*
X184524D01*
Y119795D01*
X184502D01*
Y119773D01*
X184480D01*
Y119707D01*
X184458D01*
Y119685D01*
X184435D01*
Y119618D01*
X184413D01*
Y119574D01*
X184391D01*
Y119552D01*
X184369D01*
Y119507D01*
X184347D01*
Y119485D01*
X184325D01*
Y119463D01*
X184302D01*
Y119441D01*
X184280D01*
Y119419D01*
X184258D01*
Y119396D01*
X184214D01*
Y119374D01*
X184192D01*
Y119352D01*
X184125D01*
Y119330D01*
X183970D01*
Y119352D01*
X183904D01*
Y119374D01*
X183881D01*
Y119396D01*
X183859D01*
Y119441D01*
X183837D01*
Y120350D01*
X183815D01*
Y120394D01*
X183793D01*
Y120416D01*
X183748D01*
Y120438D01*
X183726D01*
Y120460D01*
X183704D01*
Y120483D01*
X183660D01*
Y120505D01*
X183593D01*
Y120527D01*
X183549D01*
Y120549D01*
X183504D01*
Y120571D01*
X183371D01*
Y120594D01*
X183327D01*
Y120616D01*
X183261D01*
Y120638D01*
X183216D01*
Y120660D01*
X183150D01*
Y120682D01*
X183105D01*
Y120704D01*
X183061D01*
Y120660D01*
X183039D01*
Y120616D01*
X183017D01*
Y120571D01*
X183039D01*
Y120061D01*
X183017D01*
Y120039D01*
X182994D01*
Y120017D01*
X182906D01*
Y120039D01*
X182839D01*
Y120084D01*
X182817D01*
Y120549D01*
X182839D01*
Y120749D01*
X182817D01*
Y120771D01*
X182795D01*
Y120815D01*
X182751D01*
Y120837D01*
X182684D01*
Y120860D01*
X182640D01*
Y120882D01*
X182618D01*
Y120948D01*
X182640D01*
Y120970D01*
X182684D01*
Y120993D01*
X182729D01*
Y121015D01*
X182751D01*
Y121037D01*
X182773D01*
Y121059D01*
X182795D01*
Y121081D01*
X182817D01*
Y121103D01*
X182839D01*
Y121369D01*
X182817D01*
Y121680D01*
X182795D01*
Y121702D01*
X182817D01*
Y121768D01*
X182839D01*
Y121813D01*
X182861D01*
Y121835D01*
X182972D01*
Y121813D01*
X182994D01*
Y121791D01*
X183017D01*
Y121768D01*
X183039D01*
Y121281D01*
X183017D01*
Y121192D01*
X183039D01*
Y121170D01*
X183061D01*
Y121148D01*
X183128D01*
Y121170D01*
X183172D01*
Y121192D01*
X183238D01*
Y121214D01*
X183305D01*
Y121236D01*
X183327D01*
Y121258D01*
X183438D01*
Y121281D01*
X183482D01*
Y121303D01*
X183527D01*
Y121325D01*
X183593D01*
Y121347D01*
X183637D01*
Y121369D01*
X183726D01*
Y121391D01*
X183771D01*
Y121414D01*
X183793D01*
Y121436D01*
X183815D01*
Y121480D01*
X183837D01*
Y122367D01*
X183859D01*
Y122411D01*
X183881D01*
Y122433D01*
X183926D01*
Y122456D01*
X183970D01*
Y122478D01*
X184081D01*
Y122500D01*
X184125D01*
Y122478D01*
X184236D01*
Y122456D01*
X184258D01*
Y122433D01*
X184280D01*
Y122411D01*
X184302D01*
Y122389D01*
X184325D01*
Y122345D01*
X184347D01*
Y122323D01*
X184369D01*
Y122278D01*
X184391D01*
Y122212D01*
X184413D01*
Y122190D01*
X184435D01*
Y122123D01*
X184458D01*
Y122101D01*
X184480D01*
Y122034D01*
X184502D01*
Y122012D01*
X184524D01*
Y121968D01*
X184546D01*
Y121924D01*
X184569D01*
Y121901D01*
X184591D01*
Y121857D01*
X184613D01*
Y121835D01*
X184657D01*
Y121813D01*
X184679D01*
Y121791D01*
X184857D01*
Y121813D01*
X184923D01*
Y121835D01*
X184990D01*
Y121857D01*
X185056D01*
Y121879D01*
X185145D01*
Y121901D01*
X185234D01*
Y121924D01*
X185278D01*
Y121946D01*
X185367D01*
Y121968D01*
X185433D01*
Y121990D01*
X185500D01*
Y122012D01*
X185610D01*
Y122034D01*
X185677D01*
Y122057D01*
X185766D01*
Y122079D01*
X185854D01*
Y122101D01*
X185965D01*
Y122123D01*
X186054D01*
Y122145D01*
X186098D01*
Y122168D01*
X186209D01*
Y122190D01*
X186298D01*
Y122212D01*
X186475D01*
Y122234D01*
X186564D01*
Y122256D01*
X186608D01*
Y122278D01*
X186785D01*
Y122301D01*
X186874D01*
Y122323D01*
X187051D01*
Y122345D01*
X187140D01*
Y122367D01*
X187251D01*
Y122389D01*
X187451D01*
Y122411D01*
X187584D01*
Y122433D01*
X187672D01*
Y122456D01*
X187694D01*
Y122500D01*
X187717D01*
Y122522D01*
X187739D01*
Y122589D01*
X187761D01*
Y122677D01*
X187783D01*
Y122966D01*
X187805D01*
Y123276D01*
X187827D01*
Y124052D01*
X187850D01*
Y124096D01*
X187872D01*
Y124118D01*
X187894D01*
Y124141D01*
X187916D01*
Y124163D01*
X187938D01*
Y124185D01*
X187983D01*
Y124207D01*
X188005D01*
Y124229D01*
X188027D01*
Y124251D01*
X188049D01*
Y124274D01*
X188071D01*
Y124296D01*
X188093D01*
Y124318D01*
X188116D01*
Y124340D01*
X188138D01*
Y124362D01*
X188160D01*
Y124384D01*
X188182D01*
Y124407D01*
X188204D01*
Y124429D01*
X188226D01*
Y124451D01*
X188249D01*
Y124495D01*
X188271D01*
Y124517D01*
X188293D01*
Y124540D01*
X188315D01*
Y124584D01*
X188337D01*
Y124606D01*
X188359D01*
Y124628D01*
X188382D01*
Y124650D01*
X188404D01*
Y124673D01*
X188426D01*
Y124717D01*
X188448D01*
Y124739D01*
X188470D01*
Y124783D01*
X188493D01*
Y124806D01*
X188515D01*
Y124850D01*
X188537D01*
Y124872D01*
X188559D01*
Y124916D01*
X188581D01*
Y124961D01*
X188603D01*
Y124983D01*
X188626D01*
Y125049D01*
X188648D01*
Y125072D01*
X188670D01*
Y125116D01*
X188692D01*
Y125182D01*
X188714D01*
Y125205D01*
X188736D01*
Y125271D01*
X188759D01*
Y125315D01*
X188781D01*
Y125360D01*
X188803D01*
Y125426D01*
X188825D01*
Y125449D01*
X188847D01*
Y125559D01*
X188869D01*
Y125626D01*
X188891D01*
Y125692D01*
X188914D01*
Y125847D01*
X188936D01*
Y125936D01*
X188958D01*
Y126047D01*
X188980D01*
Y126380D01*
X189002D01*
Y126535D01*
X188980D01*
Y126579D01*
X188958D01*
Y126601D01*
X188914D01*
Y126557D01*
X188891D01*
Y126513D01*
X188869D01*
Y126468D01*
X188847D01*
Y126402D01*
X188825D01*
Y126357D01*
X188803D01*
Y126291D01*
X188781D01*
Y126247D01*
X188759D01*
Y126180D01*
X188736D01*
Y126136D01*
X188714D01*
Y126091D01*
X188692D01*
Y126003D01*
X188670D01*
Y125958D01*
X188648D01*
Y125870D01*
X188626D01*
Y125737D01*
X188603D01*
Y125670D01*
X188581D01*
Y125559D01*
X188559D01*
Y125471D01*
X188537D01*
Y125360D01*
X188515D01*
Y125338D01*
X188493D01*
Y125315D01*
X188426D01*
Y125338D01*
X188404D01*
Y125360D01*
X188382D01*
Y125382D01*
X188337D01*
Y125404D01*
X188271D01*
Y125426D01*
X188226D01*
Y125404D01*
X188204D01*
Y125382D01*
X188182D01*
Y125360D01*
X188160D01*
Y125315D01*
X188138D01*
Y125293D01*
X188116D01*
Y125271D01*
X188093D01*
Y125249D01*
X188071D01*
Y125227D01*
X188049D01*
Y125205D01*
X188027D01*
Y125182D01*
X188005D01*
Y125160D01*
X187983D01*
Y125138D01*
X187960D01*
Y125116D01*
X187938D01*
Y125094D01*
X187894D01*
Y125072D01*
X187872D01*
Y125049D01*
X187850D01*
Y125027D01*
X187827D01*
Y125005D01*
X187805D01*
Y124983D01*
X187783D01*
Y124961D01*
X187739D01*
Y124939D01*
X187717D01*
Y124916D01*
X187672D01*
Y124894D01*
X187628D01*
Y124872D01*
X187584D01*
Y124828D01*
X187539D01*
Y124806D01*
X187495D01*
Y124783D01*
X187451D01*
Y124761D01*
X187406D01*
Y124739D01*
X187362D01*
Y124717D01*
X187295D01*
Y124695D01*
X187251D01*
Y124673D01*
X187162D01*
Y124650D01*
X187118D01*
Y124628D01*
X187074D01*
Y124606D01*
X186941D01*
Y124584D01*
X186874D01*
Y124562D01*
X186763D01*
Y124540D01*
X186564D01*
Y124517D01*
X186542D01*
Y124540D01*
X186497D01*
Y124517D01*
X186475D01*
Y124540D01*
X186431D01*
Y124517D01*
X186364D01*
Y124540D01*
X186320D01*
Y124562D01*
X186298D01*
Y124606D01*
X186320D01*
Y124628D01*
X186342D01*
Y124673D01*
X186364D01*
Y124717D01*
X186386D01*
Y124739D01*
X186409D01*
Y124783D01*
X186431D01*
Y124806D01*
X186453D01*
Y124850D01*
X186475D01*
Y124872D01*
X186497D01*
Y124916D01*
X186519D01*
Y124939D01*
X186542D01*
Y124983D01*
X186564D01*
Y125005D01*
X186586D01*
Y125027D01*
X186608D01*
Y125072D01*
X186630D01*
Y125094D01*
X186653D01*
Y125138D01*
X186675D01*
Y125160D01*
X186697D01*
Y125182D01*
X186719D01*
Y125227D01*
X186741D01*
Y125249D01*
X186763D01*
Y125271D01*
X186785D01*
Y125293D01*
X186808D01*
Y125315D01*
X186830D01*
Y125360D01*
X186852D01*
Y125382D01*
X186874D01*
Y125404D01*
X186896D01*
Y125449D01*
X186918D01*
Y125471D01*
X186941D01*
Y125493D01*
X186963D01*
Y125515D01*
X186985D01*
Y125559D01*
X187029D01*
Y125604D01*
X187051D01*
Y125626D01*
X187074D01*
Y125648D01*
X187096D01*
Y125670D01*
X187118D01*
Y125692D01*
X187140D01*
Y125715D01*
X187162D01*
Y125737D01*
X187185D01*
Y125759D01*
X187207D01*
Y125781D01*
X187229D01*
Y125803D01*
X187251D01*
Y125825D01*
X187273D01*
Y125847D01*
X187295D01*
Y125870D01*
X187318D01*
Y125892D01*
X187340D01*
Y125914D01*
X187362D01*
Y125936D01*
X187384D01*
Y125958D01*
X187406D01*
Y125981D01*
X187428D01*
Y126003D01*
X187451D01*
Y126025D01*
X187473D01*
Y126047D01*
X187517D01*
Y126091D01*
X187561D01*
Y126114D01*
X187584D01*
Y126136D01*
X187606D01*
Y126158D01*
X187628D01*
Y126202D01*
X187672D01*
Y126224D01*
X187694D01*
Y126247D01*
X187717D01*
Y126269D01*
X187761D01*
Y126291D01*
X187783D01*
Y126313D01*
X187827D01*
Y126335D01*
X187850D01*
Y126357D01*
X187872D01*
Y126380D01*
X187894D01*
Y126402D01*
X187916D01*
Y126424D01*
X187960D01*
Y126446D01*
X187983D01*
Y126468D01*
X188005D01*
Y126490D01*
X188049D01*
Y126513D01*
X188071D01*
Y126535D01*
X188116D01*
Y126557D01*
X188138D01*
Y126579D01*
X188160D01*
Y126601D01*
X188204D01*
Y126623D01*
X188226D01*
Y126646D01*
X188271D01*
Y126668D01*
X188293D01*
Y126690D01*
X188337D01*
Y126712D01*
X188359D01*
Y126734D01*
X188404D01*
Y126757D01*
X188426D01*
Y126779D01*
X188470D01*
Y126801D01*
X188515D01*
Y126823D01*
X188537D01*
Y126845D01*
X188581D01*
Y126867D01*
X188603D01*
Y126890D01*
X188648D01*
Y126912D01*
X188692D01*
Y126934D01*
X188736D01*
Y126956D01*
X188781D01*
Y126978D01*
X188803D01*
Y127000D01*
X188869D01*
Y127023D01*
X188891D01*
Y127045D01*
X188936D01*
Y127067D01*
X188980D01*
Y127089D01*
X189025D01*
Y127111D01*
X189091D01*
Y127133D01*
X189135D01*
Y127155D01*
X189180D01*
Y127178D01*
X189224D01*
Y127200D01*
X189291D01*
Y127222D01*
X189335D01*
Y127244D01*
X189379D01*
Y127266D01*
X189446D01*
Y127288D01*
X189490D01*
Y127311D01*
X189557D01*
Y127333D01*
X189645D01*
Y127355D01*
X189690D01*
Y127377D01*
X189756D01*
Y127399D01*
X189823D01*
Y127422D01*
X189911D01*
Y127444D01*
X189978D01*
Y127466D01*
X190067D01*
Y127488D01*
X190155D01*
Y127510D01*
X190222D01*
Y127532D01*
X190377D01*
Y127555D01*
X190488D01*
Y127577D01*
X190554D01*
Y127599D01*
X190732D01*
Y127621D01*
X190975D01*
Y127643D01*
X191264D01*
Y127665D01*
X191596D01*
Y127621D01*
X191574D01*
Y127577D01*
X191552D01*
Y127555D01*
X191530D01*
Y127532D01*
X191507D01*
Y127510D01*
X191485D01*
Y127488D01*
X191463D01*
Y127444D01*
X191441D01*
Y127399D01*
X191530D01*
Y127422D01*
X191574D01*
Y127444D01*
X191596D01*
Y127466D01*
X191640D01*
Y127488D01*
X191707D01*
Y127510D01*
X191729D01*
Y127532D01*
X191796D01*
Y127555D01*
X191840D01*
Y127577D01*
X191884D01*
Y127599D01*
X191951D01*
Y127621D01*
X192017D01*
Y127643D01*
X192062D01*
Y127665D01*
X192106D01*
Y127688D01*
X192195D01*
Y127710D01*
X192239D01*
Y127732D01*
X192283D01*
Y127754D01*
X192394D01*
Y127776D01*
X192461D01*
Y127798D01*
X192527D01*
Y127821D01*
X192572D01*
Y127843D01*
X192616D01*
Y127865D01*
X192660D01*
Y127887D01*
X192705D01*
Y127909D01*
X192749D01*
Y127931D01*
X192771D01*
Y127954D01*
X192793D01*
Y127976D01*
X192815D01*
Y127998D01*
X192838D01*
Y128020D01*
X192882D01*
Y128042D01*
X192904D01*
Y128065D01*
X192926D01*
Y128087D01*
X192948D01*
Y128109D01*
X192971D01*
Y128131D01*
X192993D01*
Y128153D01*
X193015D01*
Y128198D01*
X193037D01*
Y128220D01*
X193059D01*
Y128242D01*
X193081D01*
Y128286D01*
X193104D01*
Y128308D01*
X193126D01*
Y128331D01*
X193148D01*
Y128375D01*
X193170D01*
Y128397D01*
X193192D01*
Y128441D01*
X193214D01*
Y128486D01*
X193237D01*
Y128508D01*
X193259D01*
Y128530D01*
X193281D01*
Y128552D01*
X193303D01*
Y128596D01*
X193325D01*
Y128641D01*
X193348D01*
Y128663D01*
X193370D01*
Y128685D01*
X193392D01*
Y128707D01*
X193414D01*
Y128752D01*
X193436D01*
Y128774D01*
X193458D01*
Y128796D01*
X193481D01*
Y128818D01*
X193525D01*
Y128840D01*
X193547D01*
Y128863D01*
X193569D01*
Y128885D01*
X193614D01*
Y128907D01*
X193636D01*
Y128929D01*
X193680D01*
Y128951D01*
X193702D01*
Y128973D01*
X193769D01*
Y128996D01*
X193791D01*
Y129018D01*
X193769D01*
Y129040D01*
X193591D01*
Y129062D01*
X193547D01*
Y129084D01*
X193525D01*
Y129106D01*
X193547D01*
Y129129D01*
X193591D01*
Y129151D01*
X193614D01*
Y129173D01*
X193636D01*
Y129195D01*
X193680D01*
Y129217D01*
X193702D01*
Y129239D01*
X193747D01*
Y129262D01*
X193769D01*
Y129284D01*
X193813D01*
Y129306D01*
X193835D01*
Y129328D01*
X193880D01*
Y129350D01*
X193924D01*
Y129372D01*
X193946D01*
Y129395D01*
X194013D01*
Y129417D01*
X194035D01*
Y129439D01*
X194057D01*
Y129461D01*
X194079D01*
Y129483D01*
X194101D01*
Y129505D01*
X194168D01*
Y129528D01*
X194190D01*
Y129550D01*
X194234D01*
Y129572D01*
X194256D01*
Y129594D01*
X194279D01*
Y129616D01*
X194323D01*
Y129639D01*
X194345D01*
Y129661D01*
X194389D01*
Y129683D01*
X194434D01*
Y129705D01*
X194456D01*
Y129727D01*
X194478D01*
Y129749D01*
X194500D01*
Y129816D01*
X194478D01*
Y129838D01*
X194456D01*
Y129882D01*
X194478D01*
Y129904D01*
X194500D01*
Y129927D01*
X194567D01*
Y129949D01*
X194611D01*
Y129971D01*
X194678D01*
Y129993D01*
X194744D01*
Y130015D01*
X194789D01*
Y130037D01*
X194877D01*
Y130060D01*
X194922D01*
Y130082D01*
X194966D01*
Y130104D01*
X195032D01*
Y130126D01*
X195099D01*
Y130148D01*
X195165D01*
Y130171D01*
X195210D01*
Y130193D01*
X195276D01*
Y130215D01*
X195298D01*
Y130237D01*
X195321D01*
Y130259D01*
X195343D01*
Y130304D01*
X195365D01*
Y130326D01*
X195387D01*
Y130370D01*
X195409D01*
Y130392D01*
X195431D01*
Y130414D01*
X195454D01*
Y130459D01*
X195476D01*
Y130481D01*
X195498D01*
Y130525D01*
X195520D01*
Y130547D01*
X195542D01*
Y130570D01*
X195564D01*
Y130614D01*
X195587D01*
Y130636D01*
X195609D01*
Y130658D01*
X195631D01*
Y130680D01*
X195653D01*
Y130725D01*
X195720D01*
Y130680D01*
D02*
G37*
G36*
X183460Y116559D02*
X183482D01*
Y116160D01*
X183460D01*
Y116137D01*
X183394D01*
Y116160D01*
X183371D01*
Y116137D01*
X182950D01*
Y116160D01*
X182928D01*
Y116137D01*
X182906D01*
Y116093D01*
X182884D01*
Y115184D01*
Y115162D01*
Y114098D01*
X182906D01*
Y114076D01*
X182884D01*
Y114009D01*
X182374D01*
Y114031D01*
X182352D01*
Y116137D01*
X182329D01*
Y116160D01*
X182285D01*
Y116137D01*
X181886D01*
Y116160D01*
X181864D01*
Y116137D01*
X181797D01*
Y116160D01*
X181775D01*
Y116559D01*
X181797D01*
Y116581D01*
X183460D01*
Y116559D01*
D02*
G37*
G36*
X201661Y116603D02*
X201772D01*
Y116581D01*
X201860D01*
Y116559D01*
X201905D01*
Y116536D01*
X201949D01*
Y116514D01*
X201971D01*
Y116492D01*
X201993D01*
Y116470D01*
X202038D01*
Y116426D01*
X202060D01*
Y116403D01*
X202082D01*
Y116381D01*
X202104D01*
Y116337D01*
X202127D01*
Y116293D01*
X202149D01*
Y116204D01*
X202171D01*
Y116115D01*
X202193D01*
Y115938D01*
X202171D01*
Y115916D01*
X201993D01*
Y115938D01*
X201971D01*
Y115960D01*
X201949D01*
Y116137D01*
X201927D01*
Y116226D01*
X201905D01*
Y116248D01*
X201883D01*
Y116315D01*
X201838D01*
Y116337D01*
X201816D01*
Y116359D01*
X201794D01*
Y116381D01*
X201750D01*
Y116403D01*
X201683D01*
Y116426D01*
X201351D01*
Y116403D01*
X201306D01*
Y116381D01*
X201240D01*
Y116359D01*
X201195D01*
Y116337D01*
X201173D01*
Y116315D01*
X201151D01*
Y116293D01*
X201129D01*
Y116226D01*
X201107D01*
Y116182D01*
X201085D01*
Y115849D01*
X201107D01*
Y115805D01*
X201129D01*
Y115761D01*
X201151D01*
Y115738D01*
X201173D01*
Y115694D01*
X201195D01*
Y115672D01*
X201218D01*
Y115650D01*
X201240D01*
Y115628D01*
X201284D01*
Y115605D01*
X201306D01*
Y115583D01*
X201351D01*
Y115561D01*
X201395D01*
Y115539D01*
X201417D01*
Y115517D01*
X201462D01*
Y115495D01*
X201484D01*
Y115472D01*
X201528D01*
Y115450D01*
X201550D01*
Y115428D01*
X201594D01*
Y115406D01*
X201617D01*
Y115384D01*
X201661D01*
Y115361D01*
X201683D01*
Y115339D01*
X201728D01*
Y115317D01*
X201750D01*
Y115295D01*
X201794D01*
Y115273D01*
X201816D01*
Y115251D01*
X201860D01*
Y115228D01*
X201883D01*
Y115206D01*
X201927D01*
Y115184D01*
X201949D01*
Y115162D01*
X201971D01*
Y115140D01*
X202016D01*
Y115118D01*
X202038D01*
Y115095D01*
X202060D01*
Y115073D01*
X202082D01*
Y115029D01*
X202104D01*
Y114985D01*
X202127D01*
Y114962D01*
X202149D01*
Y114874D01*
X202171D01*
Y114830D01*
X202193D01*
Y114785D01*
Y114763D01*
Y114453D01*
X202171D01*
Y114386D01*
X202149D01*
Y114297D01*
X202127D01*
Y114253D01*
X202104D01*
Y114209D01*
X202082D01*
Y114187D01*
X202060D01*
Y114164D01*
X202038D01*
Y114142D01*
X202016D01*
Y114120D01*
X201993D01*
Y114098D01*
X201971D01*
Y114076D01*
X201949D01*
Y114053D01*
X201905D01*
Y114031D01*
X201838D01*
Y114009D01*
X201794D01*
Y113987D01*
X201705D01*
Y113965D01*
X201328D01*
Y113987D01*
X201218D01*
Y114009D01*
X201173D01*
Y114031D01*
X201107D01*
Y114053D01*
X201085D01*
Y114076D01*
X201062D01*
Y114098D01*
X201018D01*
Y114120D01*
X200996D01*
Y114142D01*
X200974D01*
Y114164D01*
X200952D01*
Y114209D01*
X200929D01*
Y114231D01*
X200907D01*
Y114275D01*
X200885D01*
Y114320D01*
X200863D01*
Y114386D01*
X200841D01*
Y114475D01*
X200819D01*
Y114719D01*
X200841D01*
Y114741D01*
X201018D01*
Y114719D01*
X201040D01*
Y114697D01*
X201062D01*
Y114475D01*
X201085D01*
Y114386D01*
X201107D01*
Y114342D01*
X201129D01*
Y114297D01*
X201151D01*
Y114275D01*
X201173D01*
Y114253D01*
X201195D01*
Y114231D01*
X201240D01*
Y114209D01*
X201262D01*
Y114187D01*
X201351D01*
Y114164D01*
X201462D01*
Y114142D01*
X201617D01*
Y114164D01*
X201683D01*
Y114187D01*
X201772D01*
Y114209D01*
X201794D01*
Y114231D01*
X201816D01*
Y114253D01*
X201860D01*
Y114275D01*
X201883D01*
Y114320D01*
X201905D01*
Y114342D01*
X201927D01*
Y114408D01*
X201949D01*
Y114475D01*
X201971D01*
Y114719D01*
X201949D01*
Y114785D01*
X201927D01*
Y114852D01*
X201905D01*
Y114896D01*
X201883D01*
Y114918D01*
X201860D01*
Y114940D01*
X201838D01*
Y114962D01*
X201816D01*
Y114985D01*
X201794D01*
Y115007D01*
X201772D01*
Y115029D01*
X201750D01*
Y115051D01*
X201728D01*
Y115073D01*
X201683D01*
Y115095D01*
X201661D01*
Y115118D01*
X201617D01*
Y115140D01*
X201572D01*
Y115162D01*
X201550D01*
Y115184D01*
X201528D01*
Y115206D01*
X201462D01*
Y115228D01*
X201439D01*
Y115251D01*
X201395D01*
Y115273D01*
X201373D01*
Y115295D01*
X201328D01*
Y115317D01*
X201306D01*
Y115339D01*
X201284D01*
Y115361D01*
X201218D01*
Y115384D01*
X201195D01*
Y115406D01*
X201173D01*
Y115428D01*
X201151D01*
Y115450D01*
X201107D01*
Y115472D01*
X201085D01*
Y115495D01*
X201062D01*
Y115517D01*
X201040D01*
Y115539D01*
X201018D01*
Y115561D01*
X200996D01*
Y115583D01*
X200974D01*
Y115605D01*
X200952D01*
Y115628D01*
X200929D01*
Y115672D01*
X200907D01*
Y115716D01*
X200885D01*
Y115761D01*
X200863D01*
Y116204D01*
X200885D01*
Y116270D01*
X200907D01*
Y116315D01*
X200929D01*
Y116359D01*
X200952D01*
Y116381D01*
X200974D01*
Y116426D01*
X201018D01*
Y116470D01*
X201062D01*
Y116492D01*
X201085D01*
Y116514D01*
X201107D01*
Y116536D01*
X201173D01*
Y116559D01*
X201195D01*
Y116581D01*
X201306D01*
Y116603D01*
X201395D01*
Y116625D01*
X201661D01*
Y116603D01*
D02*
G37*
G36*
X181021Y116581D02*
X181155D01*
Y116559D01*
X181199D01*
Y116536D01*
X181265D01*
Y116514D01*
X181288D01*
Y116492D01*
X181332D01*
Y116470D01*
X181354D01*
Y116448D01*
X181376D01*
Y116426D01*
X181398D01*
Y116403D01*
X181421D01*
Y116381D01*
X181443D01*
Y116337D01*
X181465D01*
Y116293D01*
X181487D01*
Y116248D01*
X181509D01*
Y116182D01*
X181531D01*
Y116093D01*
X181553D01*
Y115871D01*
X181531D01*
Y115849D01*
X181044D01*
Y115871D01*
X181021D01*
Y116049D01*
X180999D01*
Y116093D01*
X180977D01*
Y116137D01*
X180955D01*
Y116160D01*
X180933D01*
Y116182D01*
X180911D01*
Y116204D01*
X180866D01*
Y116226D01*
X180667D01*
Y116204D01*
X180622D01*
Y116182D01*
X180600D01*
Y116160D01*
X180556D01*
Y116115D01*
X180534D01*
Y116071D01*
X180512D01*
Y115960D01*
Y115938D01*
Y115849D01*
X180534D01*
Y115805D01*
X180556D01*
Y115783D01*
X180578D01*
Y115761D01*
X180600D01*
Y115738D01*
X180622D01*
Y115716D01*
X180645D01*
Y115694D01*
X180667D01*
Y115672D01*
X180689D01*
Y115650D01*
X180711D01*
Y115628D01*
X180755D01*
Y115605D01*
X180778D01*
Y115583D01*
X180822D01*
Y115561D01*
X180866D01*
Y115539D01*
X180888D01*
Y115517D01*
X180955D01*
Y115495D01*
X180977D01*
Y115472D01*
X181044D01*
Y115450D01*
X181066D01*
Y115428D01*
X181088D01*
Y115406D01*
X181155D01*
Y115384D01*
X181177D01*
Y115361D01*
X181221D01*
Y115339D01*
X181243D01*
Y115317D01*
X181265D01*
Y115295D01*
X181310D01*
Y115273D01*
X181332D01*
Y115251D01*
X181354D01*
Y115228D01*
X181376D01*
Y115206D01*
X181398D01*
Y115184D01*
X181421D01*
Y115162D01*
X181443D01*
Y115118D01*
X181465D01*
Y115073D01*
X181487D01*
Y115051D01*
X181509D01*
Y114985D01*
X181531D01*
Y114962D01*
X181553D01*
Y114852D01*
X181576D01*
Y114541D01*
X181553D01*
Y114408D01*
X181531D01*
Y114364D01*
X181509D01*
Y114320D01*
X181487D01*
Y114275D01*
X181465D01*
Y114253D01*
X181443D01*
Y114209D01*
X181421D01*
Y114187D01*
X181398D01*
Y114164D01*
X181376D01*
Y114142D01*
X181332D01*
Y114120D01*
X181310D01*
Y114098D01*
X181288D01*
Y114076D01*
X181243D01*
Y114053D01*
X181199D01*
Y114031D01*
X181110D01*
Y114009D01*
X181044D01*
Y113987D01*
X180822D01*
Y113965D01*
X180578D01*
Y113987D01*
X180379D01*
Y114009D01*
X180334D01*
Y114031D01*
X180268D01*
Y114053D01*
X180246D01*
Y114076D01*
X180179D01*
Y114098D01*
X180157D01*
Y114120D01*
X180135D01*
Y114142D01*
X180090D01*
Y114164D01*
X180068D01*
Y114209D01*
X180046D01*
Y114231D01*
X180024D01*
Y114275D01*
X180002D01*
Y114320D01*
X179980D01*
Y114364D01*
X179957D01*
Y114453D01*
X179935D01*
Y114563D01*
X179913D01*
Y114763D01*
X179935D01*
Y114785D01*
X179957D01*
Y114807D01*
X180423D01*
Y114785D01*
X180445D01*
Y114741D01*
X180467D01*
Y114586D01*
X180489D01*
Y114497D01*
X180512D01*
Y114453D01*
X180534D01*
Y114430D01*
X180556D01*
Y114408D01*
X180578D01*
Y114386D01*
X180622D01*
Y114364D01*
X180711D01*
Y114342D01*
X180822D01*
Y114364D01*
X180888D01*
Y114386D01*
X180933D01*
Y114408D01*
X180955D01*
Y114430D01*
X180977D01*
Y114453D01*
X180999D01*
Y114497D01*
X181021D01*
Y114608D01*
X181044D01*
Y114674D01*
X181021D01*
Y114763D01*
X180999D01*
Y114785D01*
X180977D01*
Y114830D01*
X180955D01*
Y114852D01*
X180933D01*
Y114874D01*
X180911D01*
Y114896D01*
X180888D01*
Y114918D01*
X180866D01*
Y114940D01*
X180822D01*
Y114962D01*
X180800D01*
Y114985D01*
X180755D01*
Y115007D01*
X180733D01*
Y115029D01*
X180689D01*
Y115051D01*
X180645D01*
Y115073D01*
X180622D01*
Y115095D01*
X180578D01*
Y115118D01*
X180556D01*
Y115140D01*
X180512D01*
Y115162D01*
X180467D01*
Y115184D01*
X180445D01*
Y115206D01*
X180401D01*
Y115228D01*
X180379D01*
Y115251D01*
X180334D01*
Y115273D01*
X180312D01*
Y115295D01*
X180268D01*
Y115317D01*
X180246D01*
Y115339D01*
X180223D01*
Y115361D01*
X180201D01*
Y115384D01*
X180179D01*
Y115406D01*
X180157D01*
Y115428D01*
X180135D01*
Y115450D01*
X180113D01*
Y115472D01*
X180090D01*
Y115495D01*
X180068D01*
Y115539D01*
X180046D01*
Y115583D01*
X180024D01*
Y115628D01*
X180002D01*
Y115694D01*
X179980D01*
Y115761D01*
X179957D01*
Y116071D01*
X179980D01*
Y116160D01*
X180002D01*
Y116204D01*
X180024D01*
Y116270D01*
X180046D01*
Y116293D01*
X180068D01*
Y116337D01*
X180090D01*
Y116359D01*
X180113D01*
Y116381D01*
X180135D01*
Y116426D01*
X180179D01*
Y116448D01*
X180201D01*
Y116470D01*
X180246D01*
Y116492D01*
X180268D01*
Y116514D01*
X180312D01*
Y116536D01*
X180379D01*
Y116559D01*
X180423D01*
Y116581D01*
X180556D01*
Y116603D01*
X181021D01*
Y116581D01*
D02*
G37*
G36*
X178095Y116603D02*
X178295D01*
Y116581D01*
X178428D01*
Y116559D01*
X178450D01*
Y116536D01*
X178516D01*
Y116514D01*
X178539D01*
Y116492D01*
X178583D01*
Y116470D01*
X178605D01*
Y116448D01*
X178627D01*
Y116426D01*
X178649D01*
Y116403D01*
X178672D01*
Y116381D01*
X178694D01*
Y116337D01*
X178716D01*
Y116315D01*
X178738D01*
Y116270D01*
X178760D01*
Y116204D01*
X178782D01*
Y116160D01*
X178805D01*
Y116027D01*
X178827D01*
Y115938D01*
X178849D01*
Y115805D01*
X178827D01*
Y115761D01*
X178317D01*
Y115827D01*
X178295D01*
Y115849D01*
X178317D01*
Y115916D01*
X178295D01*
Y116027D01*
X178272D01*
Y116115D01*
X178250D01*
Y116160D01*
X178228D01*
Y116182D01*
X178206D01*
Y116204D01*
X178162D01*
Y116226D01*
X178006D01*
Y116204D01*
X177918D01*
Y116182D01*
X177896D01*
Y116160D01*
X177874D01*
Y116137D01*
X177851D01*
Y116093D01*
X177829D01*
Y116049D01*
X177807D01*
Y116027D01*
Y116004D01*
X177785D01*
Y115849D01*
X177763D01*
Y115650D01*
X177741D01*
Y114940D01*
X177763D01*
Y114763D01*
X177785D01*
Y114586D01*
X177807D01*
Y114541D01*
X177829D01*
Y114475D01*
X177851D01*
Y114453D01*
X177874D01*
Y114430D01*
X177896D01*
Y114408D01*
X177918D01*
Y114386D01*
X177962D01*
Y114364D01*
X178051D01*
Y114342D01*
X178117D01*
Y114364D01*
X178184D01*
Y114386D01*
X178206D01*
Y114408D01*
X178250D01*
Y114453D01*
X178272D01*
Y114497D01*
X178295D01*
Y114563D01*
X178317D01*
Y114830D01*
X178339D01*
Y114874D01*
X178849D01*
Y114563D01*
X178827D01*
Y114475D01*
X178805D01*
Y114386D01*
X178782D01*
Y114342D01*
X178760D01*
Y114297D01*
X178738D01*
Y114253D01*
X178716D01*
Y114231D01*
X178694D01*
Y114187D01*
X178672D01*
Y114164D01*
X178649D01*
Y114142D01*
X178627D01*
Y114120D01*
X178583D01*
Y114098D01*
X178561D01*
Y114076D01*
X178516D01*
Y114053D01*
X178494D01*
Y114031D01*
X178428D01*
Y114009D01*
X178361D01*
Y113987D01*
X178162D01*
Y113965D01*
X177984D01*
Y113987D01*
X177785D01*
Y114009D01*
X177741D01*
Y114031D01*
X177652D01*
Y114053D01*
X177607D01*
Y114076D01*
X177563D01*
Y114098D01*
X177541D01*
Y114120D01*
X177497D01*
Y114142D01*
X177474D01*
Y114164D01*
X177452D01*
Y114187D01*
X177430D01*
Y114209D01*
X177408D01*
Y114231D01*
X177386D01*
Y114253D01*
X177364D01*
Y114297D01*
X177341D01*
Y114342D01*
X177319D01*
Y114386D01*
X177297D01*
Y114453D01*
X177275D01*
Y114497D01*
X177253D01*
Y114630D01*
X177231D01*
Y114741D01*
X177208D01*
Y115849D01*
X177231D01*
Y115960D01*
X177253D01*
Y116093D01*
X177275D01*
Y116137D01*
X177297D01*
Y116204D01*
X177319D01*
Y116248D01*
X177341D01*
Y116270D01*
X177364D01*
Y116315D01*
X177386D01*
Y116337D01*
X177408D01*
Y116381D01*
X177430D01*
Y116403D01*
X177452D01*
Y116426D01*
X177474D01*
Y116448D01*
X177497D01*
Y116470D01*
X177541D01*
Y116492D01*
X177585D01*
Y116514D01*
X177607D01*
Y116536D01*
X177674D01*
Y116559D01*
X177718D01*
Y116581D01*
X177874D01*
Y116603D01*
X178073D01*
Y116625D01*
X178095D01*
Y116603D01*
D02*
G37*
G36*
X206937Y116559D02*
X206959D01*
Y116514D01*
X206937D01*
Y116448D01*
X206915D01*
Y116426D01*
X206893D01*
Y116381D01*
X206871D01*
Y116315D01*
X206849D01*
Y116293D01*
X206826D01*
Y116226D01*
X206804D01*
Y116204D01*
X206782D01*
Y116137D01*
X206760D01*
Y116093D01*
X206738D01*
Y116071D01*
X206715D01*
Y116004D01*
X206693D01*
Y115982D01*
X206671D01*
Y115916D01*
X206649D01*
Y115871D01*
X206627D01*
Y115827D01*
X206605D01*
Y115783D01*
X206582D01*
Y115761D01*
X206560D01*
Y115694D01*
X206538D01*
Y115650D01*
X206516D01*
Y115605D01*
X206494D01*
Y115561D01*
X206472D01*
Y115517D01*
X206450D01*
Y115472D01*
X206427D01*
Y115428D01*
X206405D01*
Y115384D01*
X206383D01*
Y115339D01*
X206361D01*
Y115295D01*
X206339D01*
Y115251D01*
X206316D01*
Y115206D01*
X206294D01*
Y115140D01*
X206272D01*
Y115118D01*
X206250D01*
Y114031D01*
X206228D01*
Y114009D01*
X206028D01*
Y115073D01*
X206006D01*
Y115118D01*
X205984D01*
Y115184D01*
X205962D01*
Y115228D01*
X205940D01*
Y115251D01*
X205918D01*
Y115317D01*
X205895D01*
Y115339D01*
X205873D01*
Y115406D01*
X205851D01*
Y115450D01*
X205829D01*
Y115495D01*
X205807D01*
Y115539D01*
X205785D01*
Y115561D01*
X205762D01*
Y115628D01*
X205740D01*
Y115672D01*
X205718D01*
Y115716D01*
X205696D01*
Y115761D01*
X205674D01*
Y115805D01*
X205651D01*
Y115871D01*
X205629D01*
Y115894D01*
X205607D01*
Y115960D01*
X205585D01*
Y115982D01*
X205563D01*
Y116027D01*
X205541D01*
Y116093D01*
X205518D01*
Y116115D01*
X205496D01*
Y116182D01*
X205474D01*
Y116204D01*
X205452D01*
Y116270D01*
X205430D01*
Y116315D01*
X205408D01*
Y116359D01*
X205385D01*
Y116403D01*
X205363D01*
Y116448D01*
X205341D01*
Y116492D01*
X205319D01*
Y116581D01*
X205541D01*
Y116536D01*
X205563D01*
Y116514D01*
X205585D01*
Y116470D01*
X205607D01*
Y116403D01*
X205629D01*
Y116381D01*
X205651D01*
Y116315D01*
X205674D01*
Y116270D01*
X205696D01*
Y116226D01*
X205718D01*
Y116182D01*
X205740D01*
Y116137D01*
X205762D01*
Y116071D01*
X205785D01*
Y116027D01*
X205807D01*
Y115982D01*
X205829D01*
Y115938D01*
X205851D01*
Y115894D01*
X205873D01*
Y115827D01*
X205895D01*
Y115805D01*
X205918D01*
Y115738D01*
X205940D01*
Y115694D01*
X205962D01*
Y115650D01*
X205984D01*
Y115583D01*
X206006D01*
Y115561D01*
X206028D01*
Y115495D01*
X206050D01*
Y115450D01*
X206073D01*
Y115406D01*
X206095D01*
Y115361D01*
X206117D01*
Y115339D01*
X206161D01*
Y115361D01*
X206184D01*
Y115428D01*
X206206D01*
Y115472D01*
X206228D01*
Y115517D01*
X206250D01*
Y115561D01*
X206272D01*
Y115583D01*
X206294D01*
Y115650D01*
X206316D01*
Y115694D01*
X206339D01*
Y115738D01*
X206361D01*
Y115783D01*
X206383D01*
Y115827D01*
X206405D01*
Y115894D01*
X206427D01*
Y115916D01*
X206450D01*
Y115982D01*
X206472D01*
Y116027D01*
X206494D01*
Y116049D01*
X206516D01*
Y116115D01*
X206538D01*
Y116137D01*
X206560D01*
Y116204D01*
X206582D01*
Y116248D01*
X206605D01*
Y116293D01*
X206627D01*
Y116337D01*
X206649D01*
Y116381D01*
X206671D01*
Y116448D01*
X206693D01*
Y116470D01*
X206715D01*
Y116536D01*
X206738D01*
Y116559D01*
X206782D01*
Y116581D01*
X206937D01*
Y116559D01*
D02*
G37*
G36*
X176765Y114009D02*
X176078D01*
Y114031D01*
X176056D01*
Y114053D01*
X176033D01*
Y114142D01*
X176011D01*
Y114187D01*
X175989D01*
Y114231D01*
X175967D01*
Y114297D01*
X175945D01*
Y114342D01*
X175923D01*
Y114430D01*
X175900D01*
Y114475D01*
X175878D01*
Y114541D01*
X175856D01*
Y114608D01*
X175834D01*
Y114652D01*
X175812D01*
Y114719D01*
X175790D01*
Y114763D01*
X175767D01*
Y114852D01*
X175745D01*
Y114896D01*
X175723D01*
Y114940D01*
X175701D01*
Y115007D01*
X175679D01*
Y115051D01*
X175656D01*
Y115140D01*
X175634D01*
Y115184D01*
X175612D01*
Y115251D01*
X175590D01*
Y115317D01*
X175568D01*
Y115361D01*
X175546D01*
Y115428D01*
X175523D01*
Y115472D01*
X175501D01*
Y115561D01*
X175479D01*
Y115605D01*
X175457D01*
Y115672D01*
X175435D01*
Y115738D01*
X175413D01*
Y115761D01*
X175391D01*
Y115805D01*
X175368D01*
Y115827D01*
X175346D01*
Y115694D01*
X175368D01*
Y114142D01*
X175346D01*
Y114120D01*
X175368D01*
Y114053D01*
X175346D01*
Y114009D01*
X174858D01*
Y116581D01*
X175568D01*
Y116559D01*
X175590D01*
Y116514D01*
X175612D01*
Y116448D01*
X175634D01*
Y116426D01*
X175656D01*
Y116337D01*
X175679D01*
Y116293D01*
X175701D01*
Y116226D01*
X175723D01*
Y116182D01*
X175745D01*
Y116137D01*
X175767D01*
Y116049D01*
X175790D01*
Y116027D01*
X175812D01*
Y115938D01*
X175834D01*
Y115894D01*
X175856D01*
Y115827D01*
X175878D01*
Y115761D01*
X175900D01*
Y115738D01*
X175923D01*
Y115650D01*
X175945D01*
Y115605D01*
X175967D01*
Y115539D01*
X175989D01*
Y115495D01*
X176011D01*
Y115450D01*
X176033D01*
Y115361D01*
X176056D01*
Y115317D01*
X176078D01*
Y115251D01*
X176100D01*
Y115206D01*
X176122D01*
Y115140D01*
X176144D01*
Y115073D01*
X176166D01*
Y115029D01*
X176189D01*
Y114962D01*
X176211D01*
Y114918D01*
X176233D01*
Y114896D01*
X176255D01*
Y114852D01*
X176277D01*
Y115162D01*
Y115184D01*
Y116559D01*
X176300D01*
Y116581D01*
X176765D01*
Y114009D01*
D02*
G37*
G36*
X193614Y116559D02*
X193636D01*
Y114031D01*
X193614D01*
Y114009D01*
X193281D01*
Y114031D01*
X193259D01*
Y114098D01*
X193237D01*
Y114120D01*
X193214D01*
Y114187D01*
X193192D01*
Y114231D01*
X193170D01*
Y114275D01*
X193148D01*
Y114320D01*
X193126D01*
Y114364D01*
X193104D01*
Y114430D01*
X193081D01*
Y114475D01*
X193059D01*
Y114519D01*
X193037D01*
Y114563D01*
X193015D01*
Y114608D01*
X192993D01*
Y114674D01*
X192971D01*
Y114697D01*
X192948D01*
Y114763D01*
X192926D01*
Y114807D01*
X192904D01*
Y114852D01*
X192882D01*
Y114918D01*
X192860D01*
Y114940D01*
X192838D01*
Y115007D01*
X192815D01*
Y115051D01*
X192793D01*
Y115095D01*
X192771D01*
Y115162D01*
X192749D01*
Y115184D01*
X192727D01*
Y115251D01*
X192705D01*
Y115295D01*
X192683D01*
Y115361D01*
X192660D01*
Y115384D01*
X192638D01*
Y115428D01*
X192616D01*
Y115495D01*
X192594D01*
Y115517D01*
X192572D01*
Y115605D01*
X192550D01*
Y115628D01*
X192527D01*
Y115694D01*
X192505D01*
Y115738D01*
X192483D01*
Y115783D01*
X192461D01*
Y115849D01*
X192439D01*
Y115871D01*
X192416D01*
Y115938D01*
X192394D01*
Y115982D01*
X192372D01*
Y116027D01*
X192350D01*
Y116071D01*
X192328D01*
Y116115D01*
X192306D01*
Y116182D01*
X192283D01*
Y116204D01*
X192239D01*
Y114031D01*
X192217D01*
Y114009D01*
X192017D01*
Y114031D01*
X191995D01*
Y114807D01*
Y114830D01*
Y116536D01*
X192017D01*
Y116559D01*
X192040D01*
Y116581D01*
X192350D01*
Y116536D01*
X192372D01*
Y116514D01*
X192394D01*
Y116470D01*
X192416D01*
Y116403D01*
X192439D01*
Y116381D01*
X192461D01*
Y116315D01*
X192483D01*
Y116270D01*
X192505D01*
Y116226D01*
X192527D01*
Y116160D01*
X192550D01*
Y116137D01*
X192572D01*
Y116071D01*
X192594D01*
Y116027D01*
X192616D01*
Y115982D01*
X192638D01*
Y115938D01*
X192660D01*
Y115894D01*
X192683D01*
Y115827D01*
X192705D01*
Y115805D01*
X192727D01*
Y115738D01*
X192749D01*
Y115694D01*
X192771D01*
Y115650D01*
X192793D01*
Y115583D01*
X192815D01*
Y115561D01*
X192838D01*
Y115495D01*
X192860D01*
Y115450D01*
X192882D01*
Y115406D01*
X192904D01*
Y115361D01*
X192926D01*
Y115317D01*
X192948D01*
Y115251D01*
X192971D01*
Y115228D01*
X192993D01*
Y115162D01*
X193015D01*
Y115118D01*
X193037D01*
Y115073D01*
X193059D01*
Y115007D01*
X193081D01*
Y114985D01*
X193104D01*
Y114918D01*
X193126D01*
Y114874D01*
X193148D01*
Y114830D01*
X193170D01*
Y114785D01*
X193192D01*
Y114741D01*
X193214D01*
Y114674D01*
X193237D01*
Y114652D01*
X193259D01*
Y114586D01*
X193281D01*
Y114541D01*
X193303D01*
Y114497D01*
X193325D01*
Y114430D01*
X193348D01*
Y114408D01*
X193370D01*
Y114386D01*
X193392D01*
Y114364D01*
X193414D01*
Y114453D01*
X193392D01*
Y114586D01*
X193414D01*
Y116448D01*
X193392D01*
Y116492D01*
X193414D01*
Y116559D01*
X193436D01*
Y116581D01*
X193614D01*
Y116559D01*
D02*
G37*
G36*
X196717D02*
X196739D01*
Y116492D01*
X196717D01*
Y116381D01*
X196695D01*
Y116337D01*
X196673D01*
Y116226D01*
X196651D01*
Y116160D01*
X196629D01*
Y116093D01*
X196606D01*
Y116004D01*
X196584D01*
Y115938D01*
X196562D01*
Y115827D01*
X196540D01*
Y115761D01*
X196518D01*
Y115672D01*
X196496D01*
Y115605D01*
X196473D01*
Y115539D01*
X196451D01*
Y115428D01*
X196429D01*
Y115384D01*
X196407D01*
Y115273D01*
X196385D01*
Y115206D01*
X196363D01*
Y115140D01*
X196340D01*
Y115029D01*
X196318D01*
Y114985D01*
X196296D01*
Y114874D01*
X196274D01*
Y114807D01*
X196252D01*
Y114719D01*
X196230D01*
Y114630D01*
X196207D01*
Y114586D01*
X196185D01*
Y114475D01*
X196163D01*
Y114408D01*
X196141D01*
Y114297D01*
X196119D01*
Y114253D01*
X196097D01*
Y114164D01*
X196074D01*
Y114076D01*
X196052D01*
Y114031D01*
X196030D01*
Y114009D01*
X195764D01*
Y114053D01*
X195742D01*
Y114098D01*
X195720D01*
Y114187D01*
X195697D01*
Y114253D01*
X195675D01*
Y114320D01*
X195653D01*
Y114430D01*
X195631D01*
Y114497D01*
X195609D01*
Y114586D01*
X195587D01*
Y114652D01*
X195564D01*
Y114719D01*
X195542D01*
Y114830D01*
X195520D01*
Y114874D01*
X195498D01*
Y114985D01*
X195476D01*
Y115051D01*
X195454D01*
Y115140D01*
X195431D01*
Y115228D01*
X195409D01*
Y115273D01*
X195387D01*
Y115384D01*
X195365D01*
Y115450D01*
X195343D01*
Y115539D01*
X195321D01*
Y115605D01*
X195298D01*
Y115672D01*
X195276D01*
Y115783D01*
X195254D01*
Y115827D01*
X195232D01*
Y115938D01*
X195210D01*
Y116004D01*
X195188D01*
Y116093D01*
X195165D01*
Y116182D01*
X195143D01*
Y116226D01*
X195121D01*
Y116337D01*
X195099D01*
Y116403D01*
X195077D01*
Y116492D01*
X195055D01*
Y116559D01*
X195077D01*
Y116581D01*
X195276D01*
Y116536D01*
X195298D01*
Y116470D01*
X195321D01*
Y116403D01*
X195343D01*
Y116293D01*
X195365D01*
Y116248D01*
X195387D01*
Y116137D01*
X195409D01*
Y116071D01*
X195431D01*
Y115982D01*
X195454D01*
Y115894D01*
X195476D01*
Y115827D01*
X195498D01*
Y115716D01*
X195520D01*
Y115650D01*
X195542D01*
Y115539D01*
X195564D01*
Y115472D01*
X195587D01*
Y115406D01*
X195609D01*
Y115295D01*
X195631D01*
Y115251D01*
X195653D01*
Y115140D01*
X195675D01*
Y115073D01*
X195697D01*
Y114985D01*
X195720D01*
Y114874D01*
X195742D01*
Y114830D01*
X195764D01*
Y114719D01*
X195786D01*
Y114652D01*
X195808D01*
Y114541D01*
X195831D01*
Y114475D01*
X195853D01*
Y114386D01*
X195875D01*
Y114320D01*
X195919D01*
Y114408D01*
X195941D01*
Y114475D01*
X195964D01*
Y114563D01*
X195986D01*
Y114652D01*
X196008D01*
Y114697D01*
X196030D01*
Y114807D01*
X196052D01*
Y114874D01*
X196074D01*
Y114962D01*
X196097D01*
Y115051D01*
X196119D01*
Y115073D01*
Y115095D01*
X196141D01*
Y115206D01*
X196163D01*
Y115273D01*
X196185D01*
Y115384D01*
X196207D01*
Y115428D01*
X196230D01*
Y115517D01*
X196252D01*
Y115605D01*
X196274D01*
Y115672D01*
X196296D01*
Y115783D01*
X196318D01*
Y115827D01*
X196340D01*
Y115938D01*
X196363D01*
Y116004D01*
X196385D01*
Y116071D01*
X196407D01*
Y116182D01*
X196429D01*
Y116226D01*
X196451D01*
Y116337D01*
X196473D01*
Y116403D01*
X196496D01*
Y116492D01*
X196518D01*
Y116559D01*
X196562D01*
Y116581D01*
X196717D01*
Y116559D01*
D02*
G37*
G36*
X191308D02*
X191330D01*
Y114586D01*
X191308D01*
Y114497D01*
X191286D01*
Y114408D01*
X191264D01*
Y114364D01*
X191242D01*
Y114297D01*
X191219D01*
Y114253D01*
X191197D01*
Y114231D01*
X191175D01*
Y114187D01*
X191153D01*
Y114164D01*
X191131D01*
Y114142D01*
X191109D01*
Y114120D01*
X191086D01*
Y114098D01*
X191042D01*
Y114076D01*
X191020D01*
Y114053D01*
X190998D01*
Y114031D01*
X190909D01*
Y114009D01*
X190865D01*
Y113987D01*
X190754D01*
Y113965D01*
X190421D01*
Y113987D01*
X190288D01*
Y114009D01*
X190244D01*
Y114031D01*
X190177D01*
Y114053D01*
X190155D01*
Y114076D01*
X190111D01*
Y114098D01*
X190089D01*
Y114120D01*
X190067D01*
Y114142D01*
X190022D01*
Y114187D01*
X190000D01*
Y114209D01*
X189978D01*
Y114231D01*
X189956D01*
Y114297D01*
X189934D01*
Y114320D01*
X189911D01*
Y114386D01*
X189889D01*
Y114430D01*
X189867D01*
Y114563D01*
X189845D01*
Y114741D01*
X189823D01*
Y116536D01*
X189845D01*
Y116559D01*
X189867D01*
Y116581D01*
X190022D01*
Y116559D01*
X190067D01*
Y114608D01*
X190089D01*
Y114519D01*
X190111D01*
Y114453D01*
X190133D01*
Y114386D01*
X190155D01*
Y114364D01*
X190177D01*
Y114320D01*
X190199D01*
Y114297D01*
X190222D01*
Y114275D01*
X190244D01*
Y114253D01*
X190266D01*
Y114231D01*
X190310D01*
Y114209D01*
X190332D01*
Y114187D01*
X190421D01*
Y114164D01*
X190488D01*
Y114142D01*
X190665D01*
Y114164D01*
X190754D01*
Y114187D01*
X190820D01*
Y114209D01*
X190865D01*
Y114231D01*
X190887D01*
Y114253D01*
X190931D01*
Y114297D01*
X190975D01*
Y114342D01*
X190998D01*
Y114364D01*
X191020D01*
Y114408D01*
X191042D01*
Y114475D01*
X191064D01*
Y114541D01*
X191086D01*
Y114763D01*
X191109D01*
Y116559D01*
X191153D01*
Y116581D01*
X191308D01*
Y116559D01*
D02*
G37*
G36*
X205009D02*
X205031D01*
Y116403D01*
X205009D01*
Y116381D01*
X204432D01*
Y116359D01*
X204410D01*
Y114031D01*
X204388D01*
Y114009D01*
X204188D01*
Y116359D01*
X204166D01*
Y116381D01*
X203568D01*
Y116559D01*
X203590D01*
Y116581D01*
X205009D01*
Y116559D01*
D02*
G37*
G36*
X203058Y114009D02*
X202858D01*
Y114031D01*
X202836D01*
Y116559D01*
X202858D01*
Y116581D01*
X203058D01*
Y114009D01*
D02*
G37*
G36*
X199799Y116559D02*
X199887D01*
Y116536D01*
X199998D01*
Y116514D01*
X200043D01*
Y116492D01*
X200065D01*
Y116470D01*
X200109D01*
Y116448D01*
X200131D01*
Y116403D01*
X200153D01*
Y116381D01*
X200176D01*
Y116337D01*
X200198D01*
Y116293D01*
X200220D01*
Y116204D01*
X200242D01*
Y115982D01*
X200264D01*
Y115916D01*
X200242D01*
Y115694D01*
X200220D01*
Y115628D01*
X200198D01*
Y115583D01*
X200176D01*
Y115539D01*
X200153D01*
Y115517D01*
X200131D01*
Y115472D01*
X200087D01*
Y115450D01*
X200065D01*
Y115428D01*
X200043D01*
Y115406D01*
X199998D01*
Y115384D01*
X199954D01*
Y115361D01*
X199910D01*
Y115339D01*
X199887D01*
Y115317D01*
X199998D01*
Y115295D01*
X200043D01*
Y115273D01*
X200087D01*
Y115251D01*
X200109D01*
Y115228D01*
X200131D01*
Y115206D01*
X200153D01*
Y115184D01*
X200176D01*
Y115095D01*
X200198D01*
Y115029D01*
X200220D01*
Y114807D01*
X200242D01*
Y114364D01*
X200220D01*
Y114320D01*
X200242D01*
Y114076D01*
X200264D01*
Y114031D01*
X200242D01*
Y114009D01*
X200065D01*
Y114031D01*
X200043D01*
Y114053D01*
X200021D01*
Y114541D01*
X199998D01*
Y114962D01*
X199976D01*
Y115029D01*
X199954D01*
Y115073D01*
X199932D01*
Y115095D01*
X199910D01*
Y115140D01*
X199887D01*
Y115162D01*
X199865D01*
Y115184D01*
X199821D01*
Y115206D01*
X199777D01*
Y115228D01*
X199732D01*
Y115251D01*
X199156D01*
Y114031D01*
X199134D01*
Y114009D01*
X198956D01*
Y114031D01*
X198934D01*
Y116559D01*
X198956D01*
Y116581D01*
X199799D01*
Y116559D01*
D02*
G37*
G36*
X198358Y116536D02*
X198380D01*
Y116403D01*
X198358D01*
Y116381D01*
X197471D01*
Y116359D01*
X197449D01*
Y115428D01*
X198313D01*
Y115406D01*
X198336D01*
Y115251D01*
X198313D01*
Y115228D01*
X197471D01*
Y115206D01*
X197449D01*
Y114209D01*
X198358D01*
Y114187D01*
X198402D01*
Y114031D01*
X198380D01*
Y114009D01*
X197227D01*
Y114031D01*
X197205D01*
Y116536D01*
X197227D01*
Y116559D01*
X197249D01*
Y116581D01*
X198358D01*
Y116536D01*
D02*
G37*
G36*
X194567Y116492D02*
Y116470D01*
Y114009D01*
X194345D01*
Y116581D01*
X194567D01*
Y116492D01*
D02*
G37*
G36*
X188626Y116559D02*
X188648D01*
Y116293D01*
X188670D01*
Y116248D01*
X188648D01*
Y116204D01*
X188626D01*
Y116182D01*
X187805D01*
Y116137D01*
X187783D01*
Y115583D01*
X187805D01*
Y115561D01*
X187827D01*
Y115539D01*
X188581D01*
Y115162D01*
X188559D01*
Y115140D01*
X187805D01*
Y115118D01*
X187783D01*
Y114430D01*
X187805D01*
Y114408D01*
X188670D01*
Y114386D01*
X188692D01*
Y114031D01*
X188670D01*
Y114009D01*
X187273D01*
Y114031D01*
X187251D01*
Y116559D01*
X187273D01*
Y116581D01*
X188626D01*
Y116559D01*
D02*
G37*
G36*
X186985D02*
X187007D01*
Y116160D01*
X186963D01*
Y116137D01*
X186409D01*
Y114674D01*
Y114652D01*
Y114031D01*
X186386D01*
Y114009D01*
X185877D01*
Y116137D01*
X185832D01*
Y116160D01*
X185788D01*
Y116137D01*
X185389D01*
Y116160D01*
X185367D01*
Y116137D01*
X185300D01*
Y116160D01*
X185278D01*
Y116559D01*
X185300D01*
Y116581D01*
X186985D01*
Y116559D01*
D02*
G37*
G36*
X184724D02*
X184746D01*
Y116536D01*
X184768D01*
Y116470D01*
X184790D01*
Y116381D01*
X184812D01*
Y116293D01*
X184835D01*
Y116226D01*
X184857D01*
Y116115D01*
X184879D01*
Y116049D01*
X184901D01*
Y115960D01*
X184923D01*
Y115894D01*
X184945D01*
Y115827D01*
X184968D01*
Y115716D01*
X184990D01*
Y115650D01*
X185012D01*
Y115561D01*
X185034D01*
Y115472D01*
X185056D01*
Y115406D01*
X185078D01*
Y115317D01*
X185101D01*
Y115251D01*
X185123D01*
Y115140D01*
X185145D01*
Y115073D01*
X185167D01*
Y114985D01*
X185189D01*
Y114896D01*
X185212D01*
Y114852D01*
X185234D01*
Y114741D01*
X185256D01*
Y114674D01*
X185278D01*
Y114563D01*
X185300D01*
Y114497D01*
X185322D01*
Y114430D01*
X185345D01*
Y114320D01*
X185367D01*
Y114275D01*
X185389D01*
Y114164D01*
X185411D01*
Y114098D01*
X185433D01*
Y114009D01*
X184879D01*
Y114053D01*
X184857D01*
Y114164D01*
X184835D01*
Y114231D01*
X184812D01*
Y114342D01*
X184790D01*
Y114408D01*
X184768D01*
Y114497D01*
X184746D01*
Y114563D01*
X184014D01*
Y114541D01*
X183992D01*
Y114475D01*
X183970D01*
Y114408D01*
X183948D01*
Y114297D01*
X183926D01*
Y114231D01*
X183904D01*
Y114098D01*
X183881D01*
Y114053D01*
X183859D01*
Y114009D01*
X183349D01*
Y114098D01*
X183371D01*
Y114209D01*
X183394D01*
Y114253D01*
X183416D01*
Y114364D01*
X183438D01*
Y114430D01*
X183460D01*
Y114497D01*
X183482D01*
Y114586D01*
X183504D01*
Y114652D01*
X183527D01*
Y114763D01*
X183549D01*
Y114830D01*
X183571D01*
Y114896D01*
X183593D01*
Y114985D01*
X183615D01*
Y115051D01*
X183637D01*
Y115162D01*
X183660D01*
Y115206D01*
X183682D01*
Y115317D01*
X183704D01*
Y115384D01*
X183726D01*
Y115450D01*
X183748D01*
Y115561D01*
X183771D01*
Y115605D01*
X183793D01*
Y115716D01*
X183815D01*
Y115783D01*
X183837D01*
Y115871D01*
X183859D01*
Y115960D01*
X183881D01*
Y116004D01*
X183904D01*
Y116115D01*
X183926D01*
Y116182D01*
X183948D01*
Y116270D01*
X183970D01*
Y116337D01*
X183992D01*
Y116426D01*
X184014D01*
Y116514D01*
X184037D01*
Y116559D01*
X184081D01*
Y116581D01*
X184724D01*
Y116559D01*
D02*
G37*
G36*
X199267Y111881D02*
X199289D01*
Y111859D01*
X199311D01*
Y111814D01*
X199333D01*
Y111748D01*
X199311D01*
Y111726D01*
Y111704D01*
X199289D01*
Y111659D01*
X199244D01*
Y111637D01*
X199178D01*
Y111659D01*
X199156D01*
Y111681D01*
X199134D01*
Y111726D01*
X199111D01*
Y111814D01*
X199134D01*
Y111859D01*
X199156D01*
Y111881D01*
X199178D01*
Y111903D01*
X199267D01*
Y111881D01*
D02*
G37*
G36*
X201838Y111305D02*
X201927D01*
Y111282D01*
X201993D01*
Y111260D01*
X202060D01*
Y111238D01*
X202082D01*
Y111216D01*
X202104D01*
Y111194D01*
X202149D01*
Y111172D01*
X202171D01*
Y111149D01*
X202193D01*
Y111105D01*
X202215D01*
Y111083D01*
X202237D01*
Y111038D01*
X202259D01*
Y110994D01*
X202282D01*
Y110928D01*
X202304D01*
Y110795D01*
X202282D01*
Y110773D01*
X202193D01*
Y110795D01*
X202171D01*
Y110817D01*
X202149D01*
Y110928D01*
X202127D01*
Y110972D01*
X202104D01*
Y110994D01*
X202082D01*
Y111016D01*
X202060D01*
Y111038D01*
X202038D01*
Y111061D01*
X202016D01*
Y111083D01*
X201993D01*
Y111105D01*
X201927D01*
Y111127D01*
X201883D01*
Y111149D01*
X201639D01*
Y111127D01*
X201594D01*
Y111105D01*
X201550D01*
Y111083D01*
X201506D01*
Y111061D01*
X201484D01*
Y111038D01*
X201462D01*
Y110994D01*
X201439D01*
Y110950D01*
X201417D01*
Y110906D01*
X201395D01*
Y110750D01*
X201417D01*
Y110684D01*
X201439D01*
Y110640D01*
X201462D01*
Y110617D01*
X201484D01*
Y110595D01*
X201506D01*
Y110573D01*
X201550D01*
Y110551D01*
X201572D01*
Y110529D01*
X201639D01*
Y110506D01*
X201683D01*
Y110484D01*
X201750D01*
Y110462D01*
X201838D01*
Y110440D01*
X201883D01*
Y110418D01*
X201971D01*
Y110396D01*
X201993D01*
Y110373D01*
X202038D01*
Y110351D01*
X202082D01*
Y110329D01*
X202127D01*
Y110307D01*
X202149D01*
Y110285D01*
X202171D01*
Y110263D01*
X202193D01*
Y110240D01*
X202215D01*
Y110218D01*
X202237D01*
Y110196D01*
X202259D01*
Y110152D01*
X202282D01*
Y110107D01*
X202304D01*
Y109952D01*
X202326D01*
Y109864D01*
X202304D01*
Y109731D01*
X202282D01*
Y109686D01*
X202259D01*
Y109642D01*
X202237D01*
Y109620D01*
X202215D01*
Y109598D01*
X202193D01*
Y109553D01*
X202171D01*
Y109531D01*
X202127D01*
Y109509D01*
X202104D01*
Y109487D01*
X202060D01*
Y109465D01*
X202016D01*
Y109442D01*
X201949D01*
Y109420D01*
X201860D01*
Y109398D01*
X201705D01*
Y109420D01*
X201617D01*
Y109442D01*
X201550D01*
Y109465D01*
X201484D01*
Y109487D01*
X201462D01*
Y109509D01*
X201417D01*
Y109531D01*
X201395D01*
Y109553D01*
X201373D01*
Y109575D01*
X201351D01*
Y109598D01*
X201328D01*
Y109620D01*
X201306D01*
Y109642D01*
X201284D01*
Y109686D01*
X201262D01*
Y109731D01*
X201240D01*
Y109797D01*
X201218D01*
Y109886D01*
X201195D01*
Y109908D01*
X201218D01*
Y109930D01*
X201240D01*
Y109952D01*
X201328D01*
Y109930D01*
X201351D01*
Y109864D01*
X201373D01*
Y109797D01*
X201395D01*
Y109753D01*
X201417D01*
Y109731D01*
X201439D01*
Y109708D01*
X201462D01*
Y109686D01*
X201484D01*
Y109664D01*
X201506D01*
Y109642D01*
X201528D01*
Y109620D01*
X201572D01*
Y109598D01*
X201617D01*
Y109575D01*
X201927D01*
Y109598D01*
X201971D01*
Y109620D01*
X202016D01*
Y109642D01*
X202038D01*
Y109664D01*
X202082D01*
Y109686D01*
X202104D01*
Y109731D01*
X202127D01*
Y109753D01*
X202149D01*
Y109819D01*
X202171D01*
Y110019D01*
X202149D01*
Y110063D01*
X202127D01*
Y110107D01*
X202104D01*
Y110130D01*
X202082D01*
Y110152D01*
X202060D01*
Y110174D01*
X202038D01*
Y110196D01*
X201993D01*
Y110218D01*
X201971D01*
Y110240D01*
X201927D01*
Y110263D01*
X201860D01*
Y110285D01*
X201816D01*
Y110307D01*
X201705D01*
Y110329D01*
X201661D01*
Y110351D01*
X201572D01*
Y110373D01*
X201528D01*
Y110396D01*
X201506D01*
Y110418D01*
X201462D01*
Y110440D01*
X201417D01*
Y110462D01*
X201395D01*
Y110484D01*
X201373D01*
Y110506D01*
X201351D01*
Y110529D01*
X201328D01*
Y110573D01*
X201306D01*
Y110617D01*
X201284D01*
Y110684D01*
X201262D01*
Y110950D01*
X201284D01*
Y111016D01*
X201306D01*
Y111061D01*
X201328D01*
Y111105D01*
X201351D01*
Y111127D01*
X201373D01*
Y111149D01*
X201395D01*
Y111172D01*
X201417D01*
Y111194D01*
X201439D01*
Y111216D01*
X201462D01*
Y111238D01*
X201506D01*
Y111260D01*
X201550D01*
Y111282D01*
X201617D01*
Y111305D01*
X201705D01*
Y111327D01*
X201838D01*
Y111305D01*
D02*
G37*
G36*
X200397D02*
X200486D01*
Y111282D01*
X200530D01*
Y111260D01*
X200597D01*
Y111238D01*
X200619D01*
Y111216D01*
X200663D01*
Y111194D01*
X200686D01*
Y111172D01*
X200708D01*
Y111149D01*
X200730D01*
Y111105D01*
X200752D01*
Y111083D01*
X200774D01*
Y111061D01*
X200796D01*
Y111016D01*
X200819D01*
Y110972D01*
X200841D01*
Y110928D01*
X200863D01*
Y110839D01*
X200885D01*
Y110684D01*
X200841D01*
Y110662D01*
X200796D01*
Y110684D01*
X200752D01*
Y110795D01*
X200730D01*
Y110861D01*
X200708D01*
Y110906D01*
X200686D01*
Y110950D01*
X200663D01*
Y110994D01*
X200641D01*
Y111016D01*
X200619D01*
Y111038D01*
X200597D01*
Y111061D01*
X200575D01*
Y111083D01*
X200553D01*
Y111105D01*
X200486D01*
Y111127D01*
X200442D01*
Y111149D01*
X200198D01*
Y111127D01*
X200176D01*
Y111105D01*
X200109D01*
Y111083D01*
X200087D01*
Y111061D01*
X200065D01*
Y111038D01*
X200043D01*
Y111016D01*
X200021D01*
Y110994D01*
X199998D01*
Y110972D01*
X199976D01*
Y110928D01*
X199954D01*
Y110883D01*
X199932D01*
Y110839D01*
X199910D01*
Y110773D01*
X199887D01*
Y110684D01*
X199865D01*
Y110484D01*
X199843D01*
Y110240D01*
X199865D01*
Y110041D01*
X199887D01*
Y109952D01*
X199910D01*
Y109886D01*
X199932D01*
Y109841D01*
X199954D01*
Y109797D01*
X199976D01*
Y109753D01*
X199998D01*
Y109731D01*
X200021D01*
Y109708D01*
X200043D01*
Y109686D01*
X200065D01*
Y109664D01*
X200087D01*
Y109642D01*
X200109D01*
Y109620D01*
X200153D01*
Y109598D01*
X200198D01*
Y109575D01*
X200464D01*
Y109598D01*
X200508D01*
Y109620D01*
X200553D01*
Y109642D01*
X200575D01*
Y109664D01*
X200597D01*
Y109686D01*
X200641D01*
Y109731D01*
X200663D01*
Y109753D01*
X200686D01*
Y109775D01*
X200708D01*
Y109819D01*
X200730D01*
Y109908D01*
X200752D01*
Y109974D01*
X200774D01*
Y109997D01*
X200885D01*
Y109864D01*
X200863D01*
Y109797D01*
X200841D01*
Y109753D01*
X200819D01*
Y109708D01*
X200796D01*
Y109664D01*
X200774D01*
Y109642D01*
X200752D01*
Y109598D01*
X200730D01*
Y109575D01*
X200708D01*
Y109553D01*
X200686D01*
Y109531D01*
X200663D01*
Y109509D01*
X200619D01*
Y109487D01*
X200597D01*
Y109465D01*
X200530D01*
Y109442D01*
X200464D01*
Y109420D01*
X200397D01*
Y109398D01*
X200264D01*
Y109420D01*
X200176D01*
Y109442D01*
X200131D01*
Y109465D01*
X200065D01*
Y109487D01*
X200043D01*
Y109509D01*
X199998D01*
Y109531D01*
X199976D01*
Y109553D01*
X199954D01*
Y109575D01*
X199932D01*
Y109598D01*
X199910D01*
Y109642D01*
X199887D01*
Y109664D01*
X199865D01*
Y109686D01*
X199843D01*
Y109731D01*
X199821D01*
Y109775D01*
X199799D01*
Y109841D01*
X199777D01*
Y109886D01*
X199754D01*
Y109997D01*
X199732D01*
Y110085D01*
X199710D01*
Y110640D01*
X199732D01*
Y110728D01*
X199754D01*
Y110839D01*
X199777D01*
Y110883D01*
X199799D01*
Y110950D01*
X199821D01*
Y110994D01*
X199843D01*
Y111038D01*
X199865D01*
Y111061D01*
X199887D01*
Y111083D01*
X199910D01*
Y111127D01*
X199932D01*
Y111149D01*
X199954D01*
Y111172D01*
X199976D01*
Y111194D01*
X199998D01*
Y111216D01*
X200043D01*
Y111238D01*
X200065D01*
Y111260D01*
X200131D01*
Y111282D01*
X200176D01*
Y111305D01*
X200264D01*
Y111327D01*
X200397D01*
Y111305D01*
D02*
G37*
G36*
X188470D02*
X188559D01*
Y111282D01*
X188626D01*
Y111260D01*
X188670D01*
Y111238D01*
X188714D01*
Y111216D01*
X188736D01*
Y111194D01*
X188759D01*
Y111172D01*
X188781D01*
Y111149D01*
X188803D01*
Y111127D01*
X188825D01*
Y111105D01*
X188847D01*
Y111083D01*
X188869D01*
Y111038D01*
X188891D01*
Y110994D01*
X188914D01*
Y110950D01*
X188936D01*
Y110883D01*
X188958D01*
Y110773D01*
X188980D01*
Y110684D01*
X188936D01*
Y110662D01*
X188869D01*
Y110684D01*
X188847D01*
Y110728D01*
X188825D01*
Y110839D01*
X188803D01*
Y110883D01*
X188781D01*
Y110928D01*
X188759D01*
Y110972D01*
X188736D01*
Y110994D01*
X188714D01*
Y111038D01*
X188692D01*
Y111061D01*
X188648D01*
Y111083D01*
X188626D01*
Y111105D01*
X188581D01*
Y111127D01*
X188537D01*
Y111149D01*
X188293D01*
Y111127D01*
X188249D01*
Y111105D01*
X188204D01*
Y111083D01*
X188160D01*
Y111061D01*
X188138D01*
Y111038D01*
X188116D01*
Y111016D01*
X188093D01*
Y110972D01*
X188071D01*
Y110950D01*
X188049D01*
Y110906D01*
X188027D01*
Y110861D01*
X188005D01*
Y110795D01*
X187983D01*
Y110728D01*
X187960D01*
Y110595D01*
X187938D01*
Y110107D01*
X187960D01*
Y109997D01*
X187983D01*
Y109908D01*
X188005D01*
Y109864D01*
X188027D01*
Y109819D01*
X188049D01*
Y109775D01*
X188071D01*
Y109731D01*
X188093D01*
Y109708D01*
X188116D01*
Y109686D01*
X188138D01*
Y109664D01*
X188160D01*
Y109642D01*
X188182D01*
Y109620D01*
X188249D01*
Y109598D01*
X188293D01*
Y109575D01*
X188537D01*
Y109598D01*
X188581D01*
Y109620D01*
X188648D01*
Y109642D01*
X188670D01*
Y109664D01*
X188692D01*
Y109686D01*
X188714D01*
Y109708D01*
X188736D01*
Y109731D01*
X188759D01*
Y109753D01*
X188781D01*
Y109797D01*
X188803D01*
Y109864D01*
X188825D01*
Y109952D01*
X188847D01*
Y109997D01*
X188958D01*
Y109974D01*
X188980D01*
Y109908D01*
X188958D01*
Y109819D01*
X188936D01*
Y109775D01*
X188914D01*
Y109708D01*
X188891D01*
Y109686D01*
X188869D01*
Y109642D01*
X188847D01*
Y109620D01*
X188825D01*
Y109598D01*
X188803D01*
Y109575D01*
X188781D01*
Y109553D01*
X188759D01*
Y109531D01*
X188736D01*
Y109509D01*
X188692D01*
Y109487D01*
X188670D01*
Y109465D01*
X188626D01*
Y109442D01*
X188559D01*
Y109420D01*
X188493D01*
Y109398D01*
X188337D01*
Y109420D01*
X188271D01*
Y109442D01*
X188204D01*
Y109465D01*
X188160D01*
Y109487D01*
X188138D01*
Y109509D01*
X188093D01*
Y109531D01*
X188071D01*
Y109553D01*
X188049D01*
Y109575D01*
X188027D01*
Y109598D01*
X188005D01*
Y109620D01*
X187983D01*
Y109642D01*
X187960D01*
Y109686D01*
X187938D01*
Y109731D01*
X187916D01*
Y109753D01*
X187894D01*
Y109819D01*
X187872D01*
Y109864D01*
X187850D01*
Y109952D01*
X187827D01*
Y110041D01*
X187805D01*
Y110218D01*
X187783D01*
Y110551D01*
X187805D01*
Y110684D01*
X187827D01*
Y110773D01*
X187850D01*
Y110861D01*
X187872D01*
Y110906D01*
X187894D01*
Y110972D01*
X187916D01*
Y111016D01*
X187938D01*
Y111038D01*
X187960D01*
Y111083D01*
X187983D01*
Y111105D01*
X188005D01*
Y111127D01*
X188027D01*
Y111149D01*
X188049D01*
Y111172D01*
X188071D01*
Y111194D01*
X188093D01*
Y111216D01*
X188138D01*
Y111238D01*
X188160D01*
Y111260D01*
X188204D01*
Y111282D01*
X188271D01*
Y111305D01*
X188359D01*
Y111327D01*
X188470D01*
Y111305D01*
D02*
G37*
G36*
X182529Y109465D02*
X182396D01*
Y109620D01*
X182374D01*
Y109642D01*
X182329D01*
Y109620D01*
X182307D01*
Y109575D01*
X182285D01*
Y109553D01*
X182263D01*
Y109531D01*
X182241D01*
Y109509D01*
X182196D01*
Y109487D01*
X182174D01*
Y109465D01*
X182130D01*
Y109442D01*
X182063D01*
Y109420D01*
X181975D01*
Y109398D01*
X181842D01*
Y109420D01*
X181753D01*
Y109442D01*
X181709D01*
Y109465D01*
X181664D01*
Y109487D01*
X181620D01*
Y109509D01*
X181598D01*
Y109531D01*
X181576D01*
Y109553D01*
X181553D01*
Y109598D01*
X181531D01*
Y109620D01*
X181509D01*
Y109664D01*
X181487D01*
Y109731D01*
X181465D01*
Y109819D01*
X181443D01*
Y109952D01*
X181421D01*
Y111238D01*
X181443D01*
Y111260D01*
X181553D01*
Y111238D01*
X181576D01*
Y110795D01*
Y110773D01*
Y109908D01*
X181598D01*
Y109797D01*
X181620D01*
Y109753D01*
X181642D01*
Y109708D01*
X181664D01*
Y109686D01*
X181687D01*
Y109664D01*
X181709D01*
Y109642D01*
X181731D01*
Y109620D01*
X181775D01*
Y109598D01*
X181820D01*
Y109575D01*
X182063D01*
Y109598D01*
X182108D01*
Y109620D01*
X182174D01*
Y109642D01*
X182196D01*
Y109664D01*
X182241D01*
Y109686D01*
X182263D01*
Y109731D01*
X182285D01*
Y109753D01*
X182307D01*
Y109775D01*
X182329D01*
Y109819D01*
X182352D01*
Y109864D01*
X182374D01*
Y109952D01*
X182396D01*
Y111194D01*
X182374D01*
Y111238D01*
X182396D01*
Y111260D01*
X182529D01*
Y109465D01*
D02*
G37*
G36*
X199289D02*
X199156D01*
Y109487D01*
X199134D01*
Y109575D01*
Y109598D01*
Y111238D01*
X199156D01*
Y111260D01*
X199289D01*
Y109465D01*
D02*
G37*
G36*
X192328Y111881D02*
X192394D01*
Y111859D01*
X192483D01*
Y111837D01*
X192527D01*
Y111814D01*
X192550D01*
Y111792D01*
X192594D01*
Y111770D01*
X192616D01*
Y111748D01*
X192638D01*
Y111726D01*
X192660D01*
Y111704D01*
X192683D01*
Y111681D01*
X192705D01*
Y111659D01*
X192727D01*
Y111637D01*
X192749D01*
Y111593D01*
X192771D01*
Y111548D01*
X192793D01*
Y111504D01*
X192815D01*
Y111438D01*
X192838D01*
Y111305D01*
X192860D01*
Y111038D01*
X192838D01*
Y110928D01*
X192815D01*
Y110883D01*
X192793D01*
Y110817D01*
X192771D01*
Y110773D01*
X192749D01*
Y110750D01*
X192727D01*
Y110706D01*
X192705D01*
Y110684D01*
X192683D01*
Y110640D01*
X192638D01*
Y110617D01*
X192616D01*
Y110595D01*
X192594D01*
Y110573D01*
X192572D01*
Y110551D01*
X192527D01*
Y110529D01*
X192483D01*
Y110506D01*
X192461D01*
Y110440D01*
X192483D01*
Y110396D01*
X192505D01*
Y110351D01*
X192527D01*
Y110285D01*
X192550D01*
Y110263D01*
X192572D01*
Y110196D01*
X192594D01*
Y110174D01*
X192616D01*
Y110107D01*
X192638D01*
Y110085D01*
X192660D01*
Y110041D01*
X192683D01*
Y109974D01*
X192705D01*
Y109930D01*
X192727D01*
Y109886D01*
X192749D01*
Y109841D01*
X192771D01*
Y109797D01*
X192793D01*
Y109753D01*
X192815D01*
Y109708D01*
X192838D01*
Y109664D01*
X192860D01*
Y109620D01*
X192882D01*
Y109575D01*
X192904D01*
Y109531D01*
X192926D01*
Y109509D01*
X192948D01*
Y109487D01*
X192926D01*
Y109465D01*
X192771D01*
Y109509D01*
X192749D01*
Y109553D01*
X192727D01*
Y109598D01*
X192705D01*
Y109642D01*
X192683D01*
Y109686D01*
X192660D01*
Y109731D01*
X192638D01*
Y109775D01*
X192616D01*
Y109819D01*
X192594D01*
Y109864D01*
X192572D01*
Y109908D01*
X192550D01*
Y109952D01*
X192527D01*
Y109997D01*
X192505D01*
Y110041D01*
X192483D01*
Y110085D01*
X192461D01*
Y110152D01*
X192439D01*
Y110174D01*
X192416D01*
Y110240D01*
X192394D01*
Y110285D01*
X192372D01*
Y110307D01*
X192350D01*
Y110373D01*
X192328D01*
Y110418D01*
X192306D01*
Y110440D01*
X192283D01*
Y110462D01*
X191707D01*
Y110418D01*
X191685D01*
Y109531D01*
X191707D01*
Y109487D01*
X191685D01*
Y109465D01*
X191552D01*
Y110617D01*
Y110640D01*
Y111903D01*
X192328D01*
Y111881D01*
D02*
G37*
G36*
X189512Y110418D02*
X189557D01*
Y110440D01*
X189579D01*
Y110462D01*
X189601D01*
Y110484D01*
X189623D01*
Y110529D01*
X189645D01*
Y110551D01*
X189667D01*
Y110573D01*
X189690D01*
Y110595D01*
X189712D01*
Y110617D01*
X189734D01*
Y110662D01*
X189756D01*
Y110684D01*
X189778D01*
Y110706D01*
X189801D01*
Y110728D01*
X189823D01*
Y110750D01*
X189845D01*
Y110795D01*
X189867D01*
Y110817D01*
X189889D01*
Y110839D01*
X189911D01*
Y110861D01*
X189934D01*
Y110883D01*
X189956D01*
Y110928D01*
X189978D01*
Y110950D01*
X190000D01*
Y110972D01*
X190022D01*
Y110994D01*
X190044D01*
Y111016D01*
X190067D01*
Y111061D01*
X190089D01*
Y111083D01*
X190111D01*
Y111105D01*
X190133D01*
Y111127D01*
X190155D01*
Y111149D01*
X190177D01*
Y111194D01*
X190199D01*
Y111216D01*
X190222D01*
Y111238D01*
X190244D01*
Y111260D01*
X190421D01*
Y111216D01*
X190399D01*
Y111194D01*
X190377D01*
Y111172D01*
X190355D01*
Y111149D01*
X190332D01*
Y111105D01*
X190310D01*
Y111083D01*
X190288D01*
Y111061D01*
X190266D01*
Y111038D01*
X190244D01*
Y111016D01*
X190222D01*
Y110994D01*
X190199D01*
Y110950D01*
X190177D01*
Y110928D01*
X190155D01*
Y110906D01*
X190133D01*
Y110883D01*
X190111D01*
Y110861D01*
X190089D01*
Y110817D01*
X190067D01*
Y110795D01*
X190044D01*
Y110773D01*
X190022D01*
Y110750D01*
X190000D01*
Y110728D01*
X189978D01*
Y110684D01*
X189956D01*
Y110662D01*
X189934D01*
Y110640D01*
X189911D01*
Y110617D01*
X189889D01*
Y110595D01*
X189867D01*
Y110551D01*
X189845D01*
Y110529D01*
X189823D01*
Y110462D01*
X189845D01*
Y110440D01*
X189867D01*
Y110396D01*
X189889D01*
Y110373D01*
X189911D01*
Y110329D01*
X189934D01*
Y110307D01*
X189956D01*
Y110263D01*
X189978D01*
Y110240D01*
X190000D01*
Y110196D01*
X190022D01*
Y110152D01*
X190044D01*
Y110130D01*
X190067D01*
Y110107D01*
X190089D01*
Y110063D01*
X190111D01*
Y110041D01*
X190133D01*
Y109997D01*
X190155D01*
Y109974D01*
X190177D01*
Y109930D01*
X190199D01*
Y109908D01*
X190222D01*
Y109864D01*
X190244D01*
Y109819D01*
X190266D01*
Y109797D01*
X190288D01*
Y109753D01*
X190310D01*
Y109731D01*
X190332D01*
Y109686D01*
X190355D01*
Y109664D01*
X190377D01*
Y109620D01*
X190399D01*
Y109598D01*
X190421D01*
Y109553D01*
X190443D01*
Y109531D01*
X190466D01*
Y109509D01*
X190488D01*
Y109465D01*
X190310D01*
Y109487D01*
X190288D01*
Y109531D01*
X190266D01*
Y109553D01*
X190244D01*
Y109598D01*
X190222D01*
Y109620D01*
X190199D01*
Y109664D01*
X190177D01*
Y109686D01*
X190155D01*
Y109731D01*
X190133D01*
Y109753D01*
X190111D01*
Y109797D01*
X190089D01*
Y109819D01*
X190067D01*
Y109864D01*
X190044D01*
Y109886D01*
X190022D01*
Y109930D01*
X190000D01*
Y109952D01*
X189978D01*
Y109997D01*
X189956D01*
Y110041D01*
X189934D01*
Y110063D01*
X189911D01*
Y110107D01*
X189889D01*
Y110130D01*
X189867D01*
Y110152D01*
X189845D01*
Y110196D01*
X189823D01*
Y110218D01*
X189801D01*
Y110263D01*
X189778D01*
Y110285D01*
X189756D01*
Y110329D01*
X189734D01*
Y110351D01*
X189667D01*
Y110329D01*
X189645D01*
Y110285D01*
X189623D01*
Y110263D01*
X189601D01*
Y110240D01*
X189579D01*
Y110218D01*
X189557D01*
Y110196D01*
X189534D01*
Y110152D01*
X189512D01*
Y109465D01*
X189379D01*
Y109487D01*
X189357D01*
Y112036D01*
X189379D01*
Y112058D01*
X189512D01*
Y110418D01*
D02*
G37*
G36*
X186918Y111305D02*
X187007D01*
Y111282D01*
X187074D01*
Y111260D01*
X187118D01*
Y111238D01*
X187140D01*
Y111216D01*
X187185D01*
Y111194D01*
X187207D01*
Y111172D01*
X187229D01*
Y111149D01*
X187251D01*
Y111127D01*
X187273D01*
Y111083D01*
X187295D01*
Y111061D01*
X187318D01*
Y110994D01*
X187340D01*
Y110928D01*
X187362D01*
Y110773D01*
X187384D01*
Y109598D01*
X187406D01*
Y109509D01*
X187428D01*
Y109487D01*
X187406D01*
Y109465D01*
X187273D01*
Y109487D01*
X187251D01*
Y109642D01*
X187229D01*
Y109686D01*
X187207D01*
Y109664D01*
X187185D01*
Y109642D01*
X187162D01*
Y109620D01*
X187140D01*
Y109598D01*
X187118D01*
Y109575D01*
X187096D01*
Y109553D01*
X187074D01*
Y109531D01*
X187051D01*
Y109509D01*
X187007D01*
Y109487D01*
X186985D01*
Y109465D01*
X186918D01*
Y109442D01*
X186852D01*
Y109420D01*
X186785D01*
Y109398D01*
X186653D01*
Y109420D01*
X186586D01*
Y109442D01*
X186519D01*
Y109465D01*
X186475D01*
Y109487D01*
X186453D01*
Y109509D01*
X186409D01*
Y109531D01*
X186386D01*
Y109553D01*
X186364D01*
Y109598D01*
X186342D01*
Y109620D01*
X186320D01*
Y109664D01*
X186298D01*
Y109708D01*
X186276D01*
Y109775D01*
X186253D01*
Y110085D01*
X186276D01*
Y110152D01*
X186298D01*
Y110218D01*
X186320D01*
Y110240D01*
X186342D01*
Y110285D01*
X186364D01*
Y110307D01*
X186386D01*
Y110329D01*
X186409D01*
Y110351D01*
X186431D01*
Y110373D01*
X186453D01*
Y110396D01*
X186475D01*
Y110418D01*
X186542D01*
Y110440D01*
X186564D01*
Y110462D01*
X186630D01*
Y110484D01*
X186719D01*
Y110506D01*
X186830D01*
Y110529D01*
X187229D01*
Y110551D01*
X187251D01*
Y110573D01*
X187229D01*
Y110861D01*
X187207D01*
Y110950D01*
X187185D01*
Y110972D01*
X187162D01*
Y111016D01*
X187140D01*
Y111038D01*
X187118D01*
Y111061D01*
X187096D01*
Y111083D01*
X187074D01*
Y111105D01*
X187007D01*
Y111127D01*
X186985D01*
Y111149D01*
X186697D01*
Y111127D01*
X186653D01*
Y111105D01*
X186608D01*
Y111083D01*
X186564D01*
Y111061D01*
X186542D01*
Y111038D01*
X186519D01*
Y111016D01*
X186497D01*
Y110972D01*
X186475D01*
Y110950D01*
X186453D01*
Y110883D01*
X186431D01*
Y110795D01*
X186298D01*
Y110817D01*
X186276D01*
Y110861D01*
X186298D01*
Y110950D01*
X186320D01*
Y110994D01*
X186342D01*
Y111038D01*
X186364D01*
Y111083D01*
X186386D01*
Y111105D01*
X186409D01*
Y111127D01*
X186431D01*
Y111149D01*
X186453D01*
Y111172D01*
X186475D01*
Y111194D01*
X186497D01*
Y111216D01*
X186542D01*
Y111238D01*
X186564D01*
Y111260D01*
X186630D01*
Y111282D01*
X186697D01*
Y111305D01*
X186763D01*
Y111327D01*
X186918D01*
Y111305D01*
D02*
G37*
G36*
X185411Y111881D02*
X185477D01*
Y111859D01*
X185566D01*
Y111837D01*
X185610D01*
Y111814D01*
X185655D01*
Y111792D01*
X185677D01*
Y111770D01*
X185699D01*
Y111748D01*
X185721D01*
Y111726D01*
X185766D01*
Y111681D01*
X185788D01*
Y111659D01*
X185810D01*
Y111637D01*
X185832D01*
Y111593D01*
X185854D01*
Y111548D01*
X185877D01*
Y111504D01*
X185899D01*
Y111438D01*
X185921D01*
Y111349D01*
X185943D01*
Y110994D01*
X185921D01*
Y110906D01*
X185899D01*
Y110839D01*
X185877D01*
Y110773D01*
X185854D01*
Y110750D01*
X185832D01*
Y110706D01*
X185810D01*
Y110684D01*
X185788D01*
Y110640D01*
X185766D01*
Y110617D01*
X185743D01*
Y110595D01*
X185699D01*
Y110573D01*
X185677D01*
Y110551D01*
X185633D01*
Y110529D01*
X185588D01*
Y110506D01*
X185544D01*
Y110484D01*
X185477D01*
Y110462D01*
X184768D01*
Y109487D01*
X184746D01*
Y109465D01*
X184613D01*
Y110152D01*
Y110174D01*
Y111881D01*
X184635D01*
Y111903D01*
X185411D01*
Y111881D01*
D02*
G37*
G36*
X183593Y111305D02*
X183682D01*
Y111282D01*
X183748D01*
Y111260D01*
X183815D01*
Y111238D01*
X183837D01*
Y111216D01*
X183859D01*
Y111194D01*
X183904D01*
Y111149D01*
X183948D01*
Y111105D01*
X183970D01*
Y111061D01*
X183992D01*
Y111038D01*
X184014D01*
Y110972D01*
X184037D01*
Y110883D01*
X184059D01*
Y109642D01*
X184081D01*
Y109531D01*
X184103D01*
Y109465D01*
X183948D01*
Y109509D01*
X183926D01*
Y109664D01*
X183904D01*
Y109686D01*
X183881D01*
Y109664D01*
X183859D01*
Y109642D01*
X183837D01*
Y109620D01*
X183815D01*
Y109598D01*
X183793D01*
Y109575D01*
X183771D01*
Y109553D01*
X183748D01*
Y109531D01*
X183726D01*
Y109509D01*
X183682D01*
Y109487D01*
X183660D01*
Y109465D01*
X183593D01*
Y109442D01*
X183549D01*
Y109420D01*
X183460D01*
Y109398D01*
X183327D01*
Y109420D01*
X183261D01*
Y109442D01*
X183216D01*
Y109465D01*
X183150D01*
Y109487D01*
X183128D01*
Y109509D01*
X183105D01*
Y109531D01*
X183083D01*
Y109553D01*
X183061D01*
Y109575D01*
X183039D01*
Y109598D01*
X183017D01*
Y109642D01*
X182994D01*
Y109686D01*
X182972D01*
Y109731D01*
X182950D01*
Y109819D01*
X182928D01*
Y110041D01*
X182950D01*
Y110130D01*
X182972D01*
Y110196D01*
X182994D01*
Y110240D01*
X183017D01*
Y110263D01*
X183039D01*
Y110307D01*
X183061D01*
Y110329D01*
X183083D01*
Y110351D01*
X183105D01*
Y110373D01*
X183150D01*
Y110396D01*
X183172D01*
Y110418D01*
X183216D01*
Y110440D01*
X183238D01*
Y110462D01*
X183327D01*
Y110484D01*
X183394D01*
Y110506D01*
X183504D01*
Y110529D01*
X183904D01*
Y110551D01*
X183926D01*
Y110750D01*
X183904D01*
Y110906D01*
X183881D01*
Y110950D01*
X183859D01*
Y110994D01*
X183837D01*
Y111016D01*
X183815D01*
Y111038D01*
X183793D01*
Y111061D01*
X183771D01*
Y111083D01*
X183748D01*
Y111105D01*
X183704D01*
Y111127D01*
X183660D01*
Y111149D01*
X183394D01*
Y111127D01*
X183327D01*
Y111105D01*
X183283D01*
Y111083D01*
X183261D01*
Y111061D01*
X183238D01*
Y111038D01*
X183216D01*
Y111016D01*
X183194D01*
Y110994D01*
X183172D01*
Y110972D01*
X183150D01*
Y110928D01*
X183128D01*
Y110839D01*
X183105D01*
Y110795D01*
X182972D01*
Y110906D01*
X182994D01*
Y110994D01*
X183017D01*
Y111016D01*
X183039D01*
Y111061D01*
X183061D01*
Y111105D01*
X183083D01*
Y111127D01*
X183105D01*
Y111149D01*
X183128D01*
Y111172D01*
X183150D01*
Y111194D01*
X183194D01*
Y111216D01*
X183216D01*
Y111238D01*
X183261D01*
Y111260D01*
X183305D01*
Y111282D01*
X183371D01*
Y111305D01*
X183460D01*
Y111327D01*
X183593D01*
Y111305D01*
D02*
G37*
G36*
X178738Y111859D02*
X178760D01*
Y111792D01*
X178782D01*
Y111726D01*
X178805D01*
Y111637D01*
X178827D01*
Y111571D01*
X178849D01*
Y111504D01*
X178871D01*
Y111438D01*
X178893D01*
Y111371D01*
X178915D01*
Y111282D01*
X178938D01*
Y111216D01*
X178960D01*
Y111149D01*
X178982D01*
Y111083D01*
X179004D01*
Y110994D01*
X179026D01*
Y110928D01*
X179048D01*
Y110861D01*
X179071D01*
Y110773D01*
X179093D01*
Y110728D01*
X179115D01*
Y110640D01*
X179137D01*
Y110573D01*
X179159D01*
Y110506D01*
X179181D01*
Y110440D01*
X179204D01*
Y110351D01*
X179226D01*
Y110285D01*
X179248D01*
Y110218D01*
X179270D01*
Y110152D01*
X179292D01*
Y110085D01*
X179314D01*
Y109997D01*
X179337D01*
Y109930D01*
X179359D01*
Y109864D01*
X179381D01*
Y109775D01*
X179403D01*
Y109708D01*
X179425D01*
Y109642D01*
X179447D01*
Y109575D01*
X179470D01*
Y109531D01*
X179492D01*
Y109465D01*
X179337D01*
Y109509D01*
X179314D01*
Y109575D01*
X179292D01*
Y109642D01*
X179270D01*
Y109708D01*
X179248D01*
Y109775D01*
X179226D01*
Y109864D01*
X179204D01*
Y109930D01*
X179181D01*
Y109997D01*
X179159D01*
Y110085D01*
X179137D01*
Y110107D01*
X179115D01*
Y110130D01*
X179071D01*
Y110152D01*
X179048D01*
Y110130D01*
X178272D01*
Y110152D01*
X178250D01*
Y110130D01*
X178206D01*
Y110107D01*
X178184D01*
Y110041D01*
X178162D01*
Y109974D01*
X178139D01*
Y109908D01*
X178117D01*
Y109819D01*
X178095D01*
Y109753D01*
X178073D01*
Y109686D01*
X178051D01*
Y109598D01*
X178029D01*
Y109531D01*
X178006D01*
Y109487D01*
X177984D01*
Y109465D01*
X177851D01*
Y109531D01*
X177874D01*
Y109620D01*
X177896D01*
Y109686D01*
X177918D01*
Y109753D01*
X177940D01*
Y109841D01*
X177962D01*
Y109886D01*
X177984D01*
Y109974D01*
X178006D01*
Y110041D01*
X178029D01*
Y110107D01*
X178051D01*
Y110196D01*
X178073D01*
Y110263D01*
X178095D01*
Y110329D01*
X178117D01*
Y110396D01*
X178139D01*
Y110462D01*
X178162D01*
Y110551D01*
X178184D01*
Y110617D01*
X178206D01*
Y110684D01*
X178228D01*
Y110750D01*
X178250D01*
Y110817D01*
X178272D01*
Y110906D01*
X178295D01*
Y110972D01*
X178317D01*
Y111038D01*
X178339D01*
Y111105D01*
X178361D01*
Y111172D01*
X178383D01*
Y111260D01*
X178405D01*
Y111327D01*
X178428D01*
Y111393D01*
X178450D01*
Y111482D01*
X178472D01*
Y111548D01*
X178494D01*
Y111615D01*
X178516D01*
Y111681D01*
X178539D01*
Y111770D01*
X178561D01*
Y111837D01*
X178583D01*
Y111881D01*
X178605D01*
Y111903D01*
X178738D01*
Y111859D01*
D02*
G37*
G36*
X198402Y111726D02*
X198424D01*
Y111282D01*
X198447D01*
Y111260D01*
X198735D01*
Y111127D01*
X198713D01*
Y111105D01*
X198424D01*
Y109731D01*
X198447D01*
Y109686D01*
X198469D01*
Y109642D01*
X198491D01*
Y109620D01*
X198513D01*
Y109598D01*
X198557D01*
Y109575D01*
X198735D01*
Y109553D01*
X198757D01*
Y109442D01*
X198735D01*
Y109420D01*
X198668D01*
Y109398D01*
X198535D01*
Y109420D01*
X198469D01*
Y109442D01*
X198424D01*
Y109465D01*
X198402D01*
Y109487D01*
X198380D01*
Y109509D01*
X198358D01*
Y109531D01*
X198336D01*
Y109598D01*
X198313D01*
Y109664D01*
X198291D01*
Y111083D01*
X198269D01*
Y111105D01*
X198025D01*
Y111127D01*
X198003D01*
Y111260D01*
X198247D01*
Y111282D01*
X198291D01*
Y111349D01*
X198269D01*
Y111371D01*
X198291D01*
Y111681D01*
X198269D01*
Y111726D01*
X198313D01*
Y111748D01*
X198402D01*
Y111726D01*
D02*
G37*
G36*
X197183Y111305D02*
X197272D01*
Y111282D01*
X197338D01*
Y111260D01*
X197405D01*
Y111238D01*
X197427D01*
Y111216D01*
X197449D01*
Y111194D01*
X197493D01*
Y111172D01*
X197515D01*
Y111149D01*
X197538D01*
Y111127D01*
X197560D01*
Y111105D01*
X197582D01*
Y111061D01*
X197604D01*
Y111038D01*
X197626D01*
Y110994D01*
X197648D01*
Y110972D01*
X197670D01*
Y110906D01*
X197693D01*
Y110861D01*
X197715D01*
Y110795D01*
X197737D01*
Y110706D01*
X197759D01*
Y110595D01*
X197781D01*
Y110152D01*
X197759D01*
Y110019D01*
X197737D01*
Y109930D01*
X197715D01*
Y109864D01*
X197693D01*
Y109819D01*
X197670D01*
Y109753D01*
X197648D01*
Y109731D01*
X197626D01*
Y109686D01*
X197604D01*
Y109664D01*
X197582D01*
Y109620D01*
X197560D01*
Y109598D01*
X197538D01*
Y109575D01*
X197515D01*
Y109553D01*
X197493D01*
Y109531D01*
X197471D01*
Y109509D01*
X197427D01*
Y109487D01*
X197405D01*
Y109465D01*
X197338D01*
Y109442D01*
X197272D01*
Y109420D01*
X197205D01*
Y109398D01*
X197050D01*
Y109420D01*
X196983D01*
Y109442D01*
X196917D01*
Y109465D01*
X196872D01*
Y109487D01*
X196828D01*
Y109509D01*
X196806D01*
Y109531D01*
X196762D01*
Y109553D01*
X196739D01*
Y109575D01*
X196717D01*
Y109620D01*
X196695D01*
Y109642D01*
X196673D01*
Y109664D01*
X196651D01*
Y109686D01*
X196629D01*
Y109731D01*
X196606D01*
Y109775D01*
X196584D01*
Y109819D01*
X196562D01*
Y109864D01*
X196540D01*
Y109930D01*
X196518D01*
Y110019D01*
X196496D01*
Y110152D01*
X196473D01*
Y110573D01*
X196496D01*
Y110706D01*
X196518D01*
Y110795D01*
X196540D01*
Y110839D01*
X196562D01*
Y110906D01*
X196584D01*
Y110950D01*
X196606D01*
Y110994D01*
X196629D01*
Y111038D01*
X196651D01*
Y111061D01*
X196673D01*
Y111083D01*
X196695D01*
Y111105D01*
X196717D01*
Y111149D01*
X196739D01*
Y111172D01*
X196784D01*
Y111194D01*
X196806D01*
Y111216D01*
X196828D01*
Y111238D01*
X196872D01*
Y111260D01*
X196917D01*
Y111282D01*
X196983D01*
Y111305D01*
X197072D01*
Y111327D01*
X197183D01*
Y111305D01*
D02*
G37*
G36*
X195099Y111061D02*
X195165D01*
Y111083D01*
X195188D01*
Y111127D01*
X195210D01*
Y111149D01*
X195232D01*
Y111172D01*
X195254D01*
Y111194D01*
X195276D01*
Y111216D01*
X195298D01*
Y111238D01*
X195343D01*
Y111260D01*
X195387D01*
Y111282D01*
X195454D01*
Y111305D01*
X195520D01*
Y111327D01*
X195653D01*
Y111305D01*
X195720D01*
Y111282D01*
X195764D01*
Y111260D01*
X195831D01*
Y111238D01*
X195853D01*
Y111216D01*
X195875D01*
Y111194D01*
X195897D01*
Y111172D01*
X195919D01*
Y111149D01*
X195941D01*
Y111127D01*
X195964D01*
Y111105D01*
X195986D01*
Y111061D01*
X196008D01*
Y111016D01*
X196030D01*
Y110972D01*
X196052D01*
Y110928D01*
X196074D01*
Y110861D01*
X196097D01*
Y110773D01*
X196119D01*
Y110640D01*
X196141D01*
Y110085D01*
X196119D01*
Y109952D01*
X196097D01*
Y109886D01*
X196074D01*
Y109819D01*
X196052D01*
Y109753D01*
X196030D01*
Y109708D01*
X196008D01*
Y109664D01*
X195986D01*
Y109642D01*
X195964D01*
Y109598D01*
X195941D01*
Y109575D01*
X195919D01*
Y109553D01*
X195897D01*
Y109531D01*
X195875D01*
Y109509D01*
X195853D01*
Y109487D01*
X195831D01*
Y109465D01*
X195764D01*
Y109442D01*
X195720D01*
Y109420D01*
X195653D01*
Y109398D01*
X195520D01*
Y109420D01*
X195431D01*
Y109442D01*
X195387D01*
Y109465D01*
X195343D01*
Y109487D01*
X195298D01*
Y109509D01*
X195276D01*
Y109531D01*
X195254D01*
Y109553D01*
X195232D01*
Y109575D01*
X195210D01*
Y109598D01*
X195188D01*
Y109642D01*
X195165D01*
Y109664D01*
X195099D01*
Y109465D01*
X194966D01*
Y110662D01*
Y110684D01*
Y112058D01*
X195099D01*
Y111061D01*
D02*
G37*
G36*
X193968Y111305D02*
X194057D01*
Y111282D01*
X194123D01*
Y111260D01*
X194168D01*
Y111238D01*
X194212D01*
Y111216D01*
X194234D01*
Y111194D01*
X194256D01*
Y111172D01*
X194301D01*
Y111149D01*
X194323D01*
Y111127D01*
X194345D01*
Y111105D01*
X194367D01*
Y111061D01*
X194389D01*
Y111038D01*
X194412D01*
Y110994D01*
X194434D01*
Y110950D01*
X194456D01*
Y110906D01*
X194478D01*
Y110839D01*
X194500D01*
Y110795D01*
X194523D01*
Y110706D01*
X194545D01*
Y110551D01*
X194567D01*
Y110174D01*
X194545D01*
Y110019D01*
X194523D01*
Y109930D01*
X194500D01*
Y109886D01*
X194478D01*
Y109819D01*
X194456D01*
Y109775D01*
X194434D01*
Y109731D01*
X194412D01*
Y109686D01*
X194389D01*
Y109664D01*
X194367D01*
Y109620D01*
X194345D01*
Y109598D01*
X194323D01*
Y109575D01*
X194301D01*
Y109553D01*
X194279D01*
Y109531D01*
X194234D01*
Y109509D01*
X194212D01*
Y109487D01*
X194168D01*
Y109465D01*
X194123D01*
Y109442D01*
X194057D01*
Y109420D01*
X193968D01*
Y109398D01*
X193835D01*
Y109420D01*
X193747D01*
Y109442D01*
X193702D01*
Y109465D01*
X193636D01*
Y109487D01*
X193614D01*
Y109509D01*
X193569D01*
Y109531D01*
X193547D01*
Y109553D01*
X193525D01*
Y109575D01*
X193503D01*
Y109598D01*
X193481D01*
Y109620D01*
X193458D01*
Y109664D01*
X193436D01*
Y109686D01*
X193414D01*
Y109731D01*
X193392D01*
Y109753D01*
X193370D01*
Y109819D01*
X193348D01*
Y109864D01*
X193325D01*
Y109930D01*
X193303D01*
Y109997D01*
X193281D01*
Y110130D01*
X193259D01*
Y110307D01*
Y110329D01*
Y110595D01*
X193281D01*
Y110728D01*
X193303D01*
Y110795D01*
X193325D01*
Y110861D01*
X193348D01*
Y110906D01*
X193370D01*
Y110972D01*
X193392D01*
Y110994D01*
X193414D01*
Y111038D01*
X193436D01*
Y111061D01*
X193458D01*
Y111105D01*
X193481D01*
Y111127D01*
X193503D01*
Y111149D01*
X193525D01*
Y111172D01*
X193547D01*
Y111194D01*
X193591D01*
Y111216D01*
X193614D01*
Y111238D01*
X193636D01*
Y111260D01*
X193702D01*
Y111282D01*
X193769D01*
Y111305D01*
X193835D01*
Y111327D01*
X193968D01*
Y111305D01*
D02*
G37*
G36*
X180379D02*
X180467D01*
Y111282D01*
X180512D01*
Y111260D01*
X180578D01*
Y111238D01*
X180600D01*
Y111216D01*
X180622D01*
Y111194D01*
X180667D01*
Y111149D01*
X180689D01*
Y111127D01*
X180711D01*
Y111105D01*
X180733D01*
Y111083D01*
X180800D01*
Y111260D01*
X180933D01*
Y110817D01*
Y110795D01*
Y108777D01*
X180888D01*
Y108755D01*
X180844D01*
Y108777D01*
X180778D01*
Y109620D01*
X180711D01*
Y109575D01*
X180689D01*
Y109553D01*
X180667D01*
Y109531D01*
X180645D01*
Y109509D01*
X180600D01*
Y109487D01*
X180578D01*
Y109465D01*
X180534D01*
Y109442D01*
X180467D01*
Y109420D01*
X180379D01*
Y109398D01*
X180246D01*
Y109420D01*
X180179D01*
Y109442D01*
X180135D01*
Y109465D01*
X180090D01*
Y109487D01*
X180046D01*
Y109509D01*
X180024D01*
Y109531D01*
X180002D01*
Y109553D01*
X179980D01*
Y109575D01*
X179957D01*
Y109620D01*
X179935D01*
Y109642D01*
X179913D01*
Y109664D01*
X179891D01*
Y109708D01*
X179869D01*
Y109753D01*
X179847D01*
Y109819D01*
X179824D01*
Y109864D01*
X179802D01*
Y109952D01*
X179780D01*
Y110085D01*
X179758D01*
Y110640D01*
X179780D01*
Y110773D01*
X179802D01*
Y110861D01*
X179824D01*
Y110928D01*
X179847D01*
Y110972D01*
X179869D01*
Y111016D01*
X179891D01*
Y111061D01*
X179913D01*
Y111083D01*
X179935D01*
Y111127D01*
X179957D01*
Y111149D01*
X179980D01*
Y111172D01*
X180002D01*
Y111194D01*
X180024D01*
Y111216D01*
X180046D01*
Y111238D01*
X180090D01*
Y111260D01*
X180135D01*
Y111282D01*
X180179D01*
Y111305D01*
X180268D01*
Y111327D01*
X180379D01*
Y111305D01*
D02*
G37*
%LPC*%
G36*
X195831Y130481D02*
X195808D01*
Y130304D01*
X195831D01*
Y130259D01*
X195853D01*
Y130237D01*
X195875D01*
Y130304D01*
Y130326D01*
Y130437D01*
X195853D01*
Y130459D01*
X195831D01*
Y130481D01*
D02*
G37*
G36*
X196318Y129572D02*
X196030D01*
Y129550D01*
X195897D01*
Y129528D01*
X195831D01*
Y129505D01*
X195742D01*
Y129483D01*
X195697D01*
Y129461D01*
X195609D01*
Y129439D01*
X195564D01*
Y129417D01*
X195520D01*
Y129395D01*
X195454D01*
Y129372D01*
X195431D01*
Y129350D01*
X195387D01*
Y129328D01*
X195343D01*
Y129306D01*
X195298D01*
Y129284D01*
X195254D01*
Y129262D01*
X195232D01*
Y129239D01*
X195188D01*
Y129217D01*
X195165D01*
Y129195D01*
X195121D01*
Y129173D01*
X195099D01*
Y129151D01*
X195077D01*
Y129129D01*
X195032D01*
Y129106D01*
X195010D01*
Y129040D01*
X195188D01*
Y129062D01*
X195321D01*
Y129084D01*
X195431D01*
Y128996D01*
X195409D01*
Y128973D01*
X195387D01*
Y128929D01*
X195365D01*
Y128907D01*
X195343D01*
Y128885D01*
X195321D01*
Y128863D01*
X195298D01*
Y128840D01*
X195276D01*
Y128818D01*
X195254D01*
Y128796D01*
X195232D01*
Y128774D01*
X195210D01*
Y128752D01*
X195188D01*
Y128685D01*
X195298D01*
Y128707D01*
X195409D01*
Y128729D01*
X195498D01*
Y128752D01*
X195675D01*
Y128707D01*
X195653D01*
Y128685D01*
X195631D01*
Y128663D01*
X195609D01*
Y128641D01*
X195587D01*
Y128619D01*
X195564D01*
Y128596D01*
X195542D01*
Y128574D01*
X195520D01*
Y128552D01*
X195498D01*
Y128530D01*
X195476D01*
Y128508D01*
X195454D01*
Y128486D01*
X195431D01*
Y128463D01*
X195409D01*
Y128441D01*
X195387D01*
Y128397D01*
X195343D01*
Y128375D01*
X195321D01*
Y128331D01*
X195276D01*
Y128308D01*
X195254D01*
Y128286D01*
X195232D01*
Y128242D01*
X195210D01*
Y128198D01*
X195298D01*
Y128220D01*
X195387D01*
Y128242D01*
X195431D01*
Y128264D01*
X195498D01*
Y128175D01*
X195454D01*
Y128131D01*
X195431D01*
Y128109D01*
X195387D01*
Y128065D01*
X195365D01*
Y128042D01*
X195343D01*
Y128020D01*
X195321D01*
Y127998D01*
X195298D01*
Y127976D01*
X195276D01*
Y127954D01*
X195232D01*
Y127909D01*
X195210D01*
Y127887D01*
X195188D01*
Y127865D01*
X195165D01*
Y127843D01*
X195143D01*
Y127821D01*
X195121D01*
Y127798D01*
X195099D01*
Y127776D01*
X195077D01*
Y127754D01*
X195032D01*
Y127710D01*
X195010D01*
Y127688D01*
X194988D01*
Y127665D01*
X194966D01*
Y127643D01*
X194944D01*
Y127621D01*
X194922D01*
Y127599D01*
X194899D01*
Y127577D01*
X194877D01*
Y127555D01*
X194855D01*
Y127532D01*
X194811D01*
Y127488D01*
X194789D01*
Y127466D01*
X194766D01*
Y127444D01*
X194744D01*
Y127422D01*
X194722D01*
Y127399D01*
X194700D01*
Y127377D01*
X194678D01*
Y127355D01*
X194656D01*
Y127333D01*
X194633D01*
Y127311D01*
X194611D01*
Y127288D01*
X194589D01*
Y127266D01*
X194567D01*
Y127244D01*
X194545D01*
Y127200D01*
X194523D01*
Y127178D01*
X194500D01*
Y127155D01*
X194456D01*
Y127133D01*
X194434D01*
Y127111D01*
X194412D01*
Y127089D01*
X194389D01*
Y127067D01*
X194367D01*
Y127023D01*
X194345D01*
Y127000D01*
X194323D01*
Y126978D01*
X194301D01*
Y126956D01*
X194279D01*
Y126934D01*
X194256D01*
Y126912D01*
X194234D01*
Y126890D01*
X194212D01*
Y126867D01*
X194190D01*
Y126845D01*
X194168D01*
Y126823D01*
X194146D01*
Y126801D01*
X194123D01*
Y126779D01*
X194101D01*
Y126757D01*
X194079D01*
Y126734D01*
X194057D01*
Y126712D01*
X194035D01*
Y126668D01*
X194013D01*
Y126646D01*
X193991D01*
Y126623D01*
X193968D01*
Y126601D01*
X193946D01*
Y126557D01*
X193924D01*
Y126535D01*
X193902D01*
Y126490D01*
X193924D01*
Y126513D01*
X193968D01*
Y126535D01*
X194035D01*
Y126557D01*
X194057D01*
Y126579D01*
X194101D01*
Y126601D01*
X194146D01*
Y126623D01*
X194190D01*
Y126646D01*
X194234D01*
Y126668D01*
X194279D01*
Y126690D01*
X194323D01*
Y126712D01*
X194345D01*
Y126734D01*
X194389D01*
Y126757D01*
X194434D01*
Y126779D01*
X194478D01*
Y126801D01*
X194523D01*
Y126823D01*
X194567D01*
Y126845D01*
X194589D01*
Y126867D01*
X194656D01*
Y126357D01*
X194633D01*
Y126003D01*
X194611D01*
Y125670D01*
X194589D01*
Y125493D01*
X194611D01*
Y125471D01*
X194633D01*
Y125515D01*
X194656D01*
Y125559D01*
X194678D01*
Y125582D01*
X194700D01*
Y125604D01*
X194722D01*
Y125648D01*
X194744D01*
Y125670D01*
X194766D01*
Y125715D01*
X194789D01*
Y125737D01*
X194811D01*
Y125803D01*
X194833D01*
Y125825D01*
X194855D01*
Y125892D01*
X194877D01*
Y125914D01*
X194899D01*
Y125958D01*
X194922D01*
Y126003D01*
X194944D01*
Y126047D01*
X194966D01*
Y126091D01*
X194988D01*
Y126136D01*
X195010D01*
Y126202D01*
X195032D01*
Y126247D01*
X195055D01*
Y126291D01*
X195077D01*
Y126335D01*
X195099D01*
Y126380D01*
X195121D01*
Y126446D01*
X195143D01*
Y126513D01*
X195165D01*
Y126579D01*
X195188D01*
Y126623D01*
X195210D01*
Y126690D01*
X195232D01*
Y126801D01*
X195254D01*
Y126845D01*
X195276D01*
Y126912D01*
X195298D01*
Y127000D01*
X195321D01*
Y127045D01*
X195343D01*
Y127111D01*
X195365D01*
Y127178D01*
X195387D01*
Y127244D01*
X195409D01*
Y127288D01*
X195431D01*
Y127333D01*
X195454D01*
Y127422D01*
X195476D01*
Y127466D01*
X195498D01*
Y127532D01*
X195520D01*
Y127555D01*
X195542D01*
Y127621D01*
X195564D01*
Y127665D01*
X195587D01*
Y127688D01*
X195609D01*
Y127754D01*
X195631D01*
Y127776D01*
X195653D01*
Y127843D01*
X195675D01*
Y127865D01*
X195697D01*
Y127909D01*
X195720D01*
Y127931D01*
X195742D01*
Y127976D01*
X195764D01*
Y127998D01*
X195786D01*
Y128020D01*
X195808D01*
Y128065D01*
X195853D01*
Y128087D01*
X195875D01*
Y128131D01*
X195919D01*
Y128153D01*
X195941D01*
Y128175D01*
X195986D01*
Y128198D01*
X196030D01*
Y128220D01*
X196074D01*
Y128242D01*
X196141D01*
Y128264D01*
X196185D01*
Y128286D01*
X196340D01*
Y128308D01*
X196562D01*
Y128331D01*
X196939D01*
Y128353D01*
X196961D01*
Y128375D01*
X196828D01*
Y128397D01*
X196695D01*
Y128375D01*
X196673D01*
Y128397D01*
X196451D01*
Y128486D01*
X197272D01*
Y128508D01*
X197316D01*
Y128530D01*
X197338D01*
Y128552D01*
X197360D01*
Y128574D01*
X197382D01*
Y128619D01*
X197405D01*
Y128796D01*
X197382D01*
Y128863D01*
X197360D01*
Y128907D01*
X197338D01*
Y128951D01*
X197316D01*
Y128973D01*
X197294D01*
Y128996D01*
X197272D01*
Y129018D01*
X197227D01*
Y129040D01*
X197205D01*
Y129062D01*
X197161D01*
Y129084D01*
X197116D01*
Y129106D01*
X197050D01*
Y129129D01*
X196939D01*
Y129151D01*
X196895D01*
Y129173D01*
X196784D01*
Y129195D01*
X196673D01*
Y129217D01*
X196584D01*
Y129239D01*
X196473D01*
Y129262D01*
X196385D01*
Y129284D01*
X196207D01*
Y129306D01*
X196141D01*
Y129328D01*
X196008D01*
Y129350D01*
X195941D01*
Y129395D01*
X195964D01*
Y129417D01*
X195986D01*
Y129439D01*
X196008D01*
Y129461D01*
X196074D01*
Y129483D01*
X196207D01*
Y129505D01*
X196252D01*
Y129483D01*
X196363D01*
Y129461D01*
X196429D01*
Y129439D01*
X196451D01*
Y129417D01*
X196518D01*
Y129439D01*
X196496D01*
Y129461D01*
X196473D01*
Y129483D01*
X196429D01*
Y129505D01*
X196407D01*
Y129550D01*
X196318D01*
Y129572D01*
D02*
G37*
G36*
X192926Y125582D02*
X192882D01*
Y125559D01*
X192860D01*
Y125515D01*
X192838D01*
Y125426D01*
X192815D01*
Y125338D01*
X192793D01*
Y125205D01*
X192771D01*
Y125116D01*
X192727D01*
Y125094D01*
X192594D01*
Y125116D01*
X192505D01*
Y125138D01*
X192416D01*
Y125160D01*
X192283D01*
Y125182D01*
X191906D01*
Y125160D01*
X191862D01*
Y125138D01*
X191818D01*
Y125116D01*
X191796D01*
Y125094D01*
X191751D01*
Y125072D01*
X191729D01*
Y125027D01*
X191707D01*
Y125005D01*
X191685D01*
Y124983D01*
X191663D01*
Y124961D01*
X191640D01*
Y124939D01*
X191618D01*
Y124894D01*
X191596D01*
Y124872D01*
X191574D01*
Y124828D01*
X191552D01*
Y124806D01*
X191530D01*
Y124783D01*
X191507D01*
Y124761D01*
Y124739D01*
X191485D01*
Y124717D01*
X191463D01*
Y124695D01*
X191441D01*
Y124673D01*
X191419D01*
Y124650D01*
X191397D01*
Y124606D01*
X191375D01*
Y124584D01*
X191352D01*
Y124540D01*
X191330D01*
Y124517D01*
X191308D01*
Y124495D01*
X191286D01*
Y124451D01*
X191264D01*
Y124429D01*
X191242D01*
Y124407D01*
X191219D01*
Y124384D01*
X191197D01*
Y124340D01*
X191175D01*
Y124318D01*
X191153D01*
Y124296D01*
X191131D01*
Y124251D01*
X191109D01*
Y124229D01*
X191086D01*
Y124185D01*
X191064D01*
Y124163D01*
X191042D01*
Y124141D01*
X191020D01*
Y124096D01*
X190998D01*
Y124074D01*
X190975D01*
Y124030D01*
X190953D01*
Y124007D01*
X190931D01*
Y123985D01*
X190909D01*
Y123941D01*
X190887D01*
Y123919D01*
X190865D01*
Y123874D01*
X190842D01*
Y123852D01*
X190820D01*
Y123830D01*
X190798D01*
Y123808D01*
X190776D01*
Y123764D01*
X190754D01*
Y123741D01*
X190732D01*
Y123697D01*
X190709D01*
Y123653D01*
X190665D01*
Y123609D01*
X190643D01*
Y123586D01*
X190621D01*
Y123564D01*
X190599D01*
Y123520D01*
X190576D01*
Y123498D01*
X190554D01*
Y123431D01*
X190532D01*
Y123409D01*
X190510D01*
Y123342D01*
X190488D01*
Y123076D01*
X190510D01*
Y122988D01*
X190532D01*
Y122943D01*
X190554D01*
Y122877D01*
X190576D01*
Y122833D01*
X190599D01*
Y122788D01*
X190621D01*
Y122744D01*
X190643D01*
Y122722D01*
X190665D01*
Y122699D01*
X190687D01*
Y122677D01*
X190709D01*
Y122633D01*
X190732D01*
Y122611D01*
X190754D01*
Y122589D01*
X190776D01*
Y122566D01*
X190798D01*
Y122544D01*
X190842D01*
Y122522D01*
X192882D01*
Y122500D01*
X193835D01*
Y122522D01*
X193880D01*
Y122611D01*
X193857D01*
Y122722D01*
X193835D01*
Y122788D01*
X193813D01*
Y122877D01*
X193791D01*
Y123032D01*
X193769D01*
Y123099D01*
X193747D01*
Y123209D01*
X193724D01*
Y123320D01*
X193702D01*
Y123409D01*
X193680D01*
Y123498D01*
X193658D01*
Y123586D01*
X193636D01*
Y123719D01*
X193614D01*
Y123764D01*
X193591D01*
Y123874D01*
X193569D01*
Y123985D01*
X193547D01*
Y124052D01*
X193525D01*
Y124163D01*
X193503D01*
Y124207D01*
X193481D01*
Y124296D01*
X193458D01*
Y124340D01*
X193436D01*
Y124429D01*
X193414D01*
Y124517D01*
X193392D01*
Y124562D01*
X193370D01*
Y124650D01*
X193348D01*
Y124717D01*
X193325D01*
Y124761D01*
X193303D01*
Y124828D01*
X193281D01*
Y124872D01*
X193259D01*
Y124939D01*
X193237D01*
Y124983D01*
X193214D01*
Y125049D01*
X193192D01*
Y125072D01*
X193170D01*
Y125138D01*
X193148D01*
Y125205D01*
X193126D01*
Y125227D01*
X193104D01*
Y125271D01*
X193081D01*
Y125315D01*
X193059D01*
Y125360D01*
X193037D01*
Y125382D01*
X193015D01*
Y125426D01*
X192993D01*
Y125471D01*
X192971D01*
Y125493D01*
X192948D01*
Y125559D01*
X192926D01*
Y125582D01*
D02*
G37*
G36*
X194434Y124562D02*
X194389D01*
Y124540D01*
X194367D01*
Y124473D01*
X194345D01*
Y124429D01*
X194323D01*
Y124362D01*
X194301D01*
Y124296D01*
X194279D01*
Y124207D01*
X194256D01*
Y124141D01*
X194234D01*
Y124030D01*
X194212D01*
Y123897D01*
X194190D01*
Y123830D01*
X194168D01*
Y123542D01*
X194146D01*
Y123232D01*
X194168D01*
Y123010D01*
X194190D01*
Y122966D01*
X194212D01*
Y122877D01*
X194234D01*
Y122833D01*
X194256D01*
Y122788D01*
X194279D01*
Y122744D01*
X194301D01*
Y122722D01*
X194323D01*
Y122677D01*
X194345D01*
Y122655D01*
X194367D01*
Y122633D01*
X194389D01*
Y122589D01*
X194434D01*
Y122566D01*
X194456D01*
Y122544D01*
X194500D01*
Y122522D01*
X194567D01*
Y122500D01*
X194744D01*
Y122522D01*
X194833D01*
Y122544D01*
X194855D01*
Y122589D01*
X194833D01*
Y122633D01*
X194811D01*
Y122810D01*
X194789D01*
Y122899D01*
X194766D01*
Y122988D01*
X194744D01*
Y123121D01*
X194722D01*
Y123187D01*
X194700D01*
Y123298D01*
X194678D01*
Y123387D01*
X194656D01*
Y123520D01*
X194633D01*
Y123631D01*
X194611D01*
Y123697D01*
X194589D01*
Y123852D01*
X194567D01*
Y123919D01*
X194545D01*
Y124030D01*
X194523D01*
Y124141D01*
X194500D01*
Y124251D01*
X194478D01*
Y124340D01*
X194456D01*
Y124429D01*
X194434D01*
Y124562D01*
D02*
G37*
G36*
X190754Y125315D02*
X190621D01*
Y125293D01*
X190576D01*
Y125271D01*
X190554D01*
Y125249D01*
X190488D01*
Y125227D01*
X190443D01*
Y125205D01*
X190399D01*
Y125182D01*
X190355D01*
Y125160D01*
X190310D01*
Y125138D01*
X190266D01*
Y125116D01*
X190244D01*
Y125094D01*
X190199D01*
Y125072D01*
X190177D01*
Y125049D01*
X190133D01*
Y125027D01*
X190089D01*
Y125005D01*
X190067D01*
Y124983D01*
X190022D01*
Y124961D01*
X190000D01*
Y124939D01*
X189978D01*
Y124916D01*
X189934D01*
Y124894D01*
X189911D01*
Y124850D01*
X189889D01*
Y124828D01*
X189867D01*
Y124806D01*
X189845D01*
Y124783D01*
X189823D01*
Y124761D01*
X189801D01*
Y124739D01*
X189778D01*
Y124717D01*
X189756D01*
Y124695D01*
X189734D01*
Y124673D01*
X189712D01*
Y124628D01*
X189690D01*
Y124606D01*
X189667D01*
Y124584D01*
X189645D01*
Y124562D01*
X189623D01*
Y124540D01*
X189601D01*
Y124517D01*
X189557D01*
Y124495D01*
X189534D01*
Y124473D01*
X189512D01*
Y124451D01*
X189490D01*
Y124429D01*
X189468D01*
Y124407D01*
X189446D01*
Y124384D01*
X189424D01*
Y124362D01*
X189401D01*
Y124340D01*
X189357D01*
Y124318D01*
X189335D01*
Y124296D01*
X189313D01*
Y124274D01*
X189291D01*
Y124251D01*
X189268D01*
Y124229D01*
X189224D01*
Y124207D01*
X189202D01*
Y124185D01*
X189158D01*
Y124163D01*
X189135D01*
Y124141D01*
X189091D01*
Y124118D01*
X189069D01*
Y124096D01*
X189025D01*
Y124074D01*
X188980D01*
Y124052D01*
X188936D01*
Y124030D01*
X188869D01*
Y124007D01*
X188825D01*
Y123985D01*
X188781D01*
Y123963D01*
X188736D01*
Y123941D01*
X188714D01*
Y123919D01*
X188670D01*
Y123897D01*
X188648D01*
Y123874D01*
X188626D01*
Y123852D01*
X188603D01*
Y123830D01*
X188581D01*
Y123786D01*
X188559D01*
Y123764D01*
X188537D01*
Y123741D01*
X188515D01*
Y123697D01*
X188493D01*
Y123675D01*
X188470D01*
Y123631D01*
X188448D01*
Y123609D01*
X188426D01*
Y123564D01*
X188404D01*
Y123520D01*
X188382D01*
Y123475D01*
X188359D01*
Y123409D01*
X188337D01*
Y123342D01*
X188315D01*
Y123254D01*
X188293D01*
Y123143D01*
X188271D01*
Y123054D01*
X188293D01*
Y122988D01*
X188315D01*
Y122855D01*
X188337D01*
Y122788D01*
X188359D01*
Y122722D01*
X188382D01*
Y122677D01*
X188404D01*
Y122655D01*
X188426D01*
Y122633D01*
Y122611D01*
X188448D01*
Y122589D01*
X188470D01*
Y122544D01*
X188493D01*
Y122522D01*
X188515D01*
Y122500D01*
X190000D01*
Y122522D01*
X190022D01*
Y122544D01*
X190044D01*
Y122589D01*
X190022D01*
Y122677D01*
X190000D01*
Y122788D01*
X189978D01*
Y122943D01*
X189956D01*
Y123076D01*
X189934D01*
Y123187D01*
X189911D01*
Y123586D01*
X189889D01*
Y123874D01*
X189867D01*
Y124052D01*
X189889D01*
Y124096D01*
X189911D01*
Y124118D01*
X189934D01*
Y124141D01*
X189956D01*
Y124185D01*
X189978D01*
Y124207D01*
X190000D01*
Y124229D01*
X190022D01*
Y124274D01*
X190044D01*
Y124296D01*
X190067D01*
Y124318D01*
X190089D01*
Y124340D01*
X190111D01*
Y124362D01*
X190133D01*
Y124407D01*
X190155D01*
Y124429D01*
X190177D01*
Y124451D01*
X190199D01*
Y124473D01*
X190222D01*
Y124495D01*
X190244D01*
Y124540D01*
X190266D01*
Y124562D01*
X190288D01*
Y124606D01*
X190332D01*
Y124650D01*
X190355D01*
Y124673D01*
X190377D01*
Y124695D01*
X190399D01*
Y124739D01*
X190421D01*
Y124761D01*
X190443D01*
Y124783D01*
X190466D01*
Y124806D01*
X190488D01*
Y124828D01*
X190510D01*
Y124872D01*
X190532D01*
Y124894D01*
X190554D01*
Y124916D01*
X190576D01*
Y124939D01*
X190599D01*
Y124983D01*
X190621D01*
Y125005D01*
X190643D01*
Y125027D01*
X190665D01*
Y125049D01*
X190687D01*
Y125072D01*
X190709D01*
Y125116D01*
X190732D01*
Y125138D01*
X190754D01*
Y125160D01*
X190776D01*
Y125271D01*
X190754D01*
Y125315D01*
D02*
G37*
G36*
X195165Y121569D02*
X194899D01*
Y121547D01*
X194811D01*
Y121525D01*
X194766D01*
Y121502D01*
X194722D01*
Y121480D01*
X194678D01*
Y121458D01*
X194633D01*
Y121436D01*
X194611D01*
Y121414D01*
X194589D01*
Y121391D01*
X194567D01*
Y121369D01*
X194523D01*
Y121347D01*
X194500D01*
Y121325D01*
X194478D01*
Y121281D01*
X194456D01*
Y121258D01*
X194434D01*
Y121236D01*
X194412D01*
Y121214D01*
X194389D01*
Y121148D01*
X194367D01*
Y121081D01*
X194345D01*
Y121037D01*
X194323D01*
Y120948D01*
X194301D01*
Y120749D01*
X194323D01*
Y120682D01*
X194345D01*
Y120616D01*
X194367D01*
Y120571D01*
X194389D01*
Y120505D01*
X194412D01*
Y120483D01*
X194434D01*
Y120438D01*
X194456D01*
Y120416D01*
X194478D01*
Y120372D01*
X194500D01*
Y120350D01*
X194523D01*
Y120327D01*
X194545D01*
Y120305D01*
X194589D01*
Y120283D01*
X194611D01*
Y120261D01*
X194656D01*
Y120239D01*
X194700D01*
Y120217D01*
X194722D01*
Y120194D01*
X194766D01*
Y120172D01*
X194811D01*
Y120150D01*
X195232D01*
Y120172D01*
X195276D01*
Y120194D01*
X195343D01*
Y120217D01*
X195387D01*
Y120239D01*
X195409D01*
Y120261D01*
X195454D01*
Y120283D01*
X195476D01*
Y120305D01*
X195498D01*
Y120327D01*
X195520D01*
Y120350D01*
X195542D01*
Y120372D01*
X195564D01*
Y120394D01*
X195587D01*
Y120416D01*
X195609D01*
Y120460D01*
X195631D01*
Y120483D01*
X195653D01*
Y120527D01*
X195675D01*
Y120571D01*
X195697D01*
Y120616D01*
X195720D01*
Y120771D01*
X195742D01*
Y120948D01*
X195720D01*
Y121059D01*
X195697D01*
Y121125D01*
X195675D01*
Y121170D01*
X195653D01*
Y121236D01*
X195631D01*
Y121258D01*
X195609D01*
Y121281D01*
X195587D01*
Y121303D01*
X195564D01*
Y121325D01*
X195542D01*
Y121347D01*
X195520D01*
Y121369D01*
X195498D01*
Y121391D01*
X195476D01*
Y121414D01*
X195454D01*
Y121436D01*
X195409D01*
Y121458D01*
X195387D01*
Y121480D01*
X195321D01*
Y121502D01*
X195276D01*
Y121525D01*
X195210D01*
Y121547D01*
X195165D01*
Y121569D01*
D02*
G37*
G36*
X191862D02*
X191596D01*
Y121547D01*
X191507D01*
Y121525D01*
X191463D01*
Y121502D01*
X191419D01*
Y121480D01*
X191375D01*
Y121458D01*
X191330D01*
Y121436D01*
X191308D01*
Y121414D01*
X191286D01*
Y121391D01*
X191264D01*
Y121369D01*
X191219D01*
Y121347D01*
X191197D01*
Y121325D01*
X191175D01*
Y121281D01*
X191153D01*
Y121258D01*
X191131D01*
Y121214D01*
X191109D01*
Y121192D01*
X191086D01*
Y121148D01*
X191064D01*
Y121103D01*
X191042D01*
Y120926D01*
X191020D01*
Y120793D01*
X191042D01*
Y120638D01*
X191064D01*
Y120571D01*
X191086D01*
Y120505D01*
X191109D01*
Y120483D01*
X191131D01*
Y120438D01*
X191153D01*
Y120416D01*
X191175D01*
Y120372D01*
X191197D01*
Y120350D01*
X191219D01*
Y120327D01*
X191264D01*
Y120305D01*
X191286D01*
Y120283D01*
X191308D01*
Y120261D01*
X191352D01*
Y120239D01*
X191397D01*
Y120217D01*
X191419D01*
Y120194D01*
X191463D01*
Y120172D01*
X191507D01*
Y120150D01*
X191951D01*
Y120172D01*
X191995D01*
Y120194D01*
X192040D01*
Y120217D01*
X192084D01*
Y120239D01*
X192106D01*
Y120261D01*
X192150D01*
Y120283D01*
X192173D01*
Y120305D01*
X192195D01*
Y120327D01*
X192217D01*
Y120350D01*
X192239D01*
Y120372D01*
X192261D01*
Y120394D01*
X192283D01*
Y120416D01*
X192306D01*
Y120460D01*
X192328D01*
Y120483D01*
X192350D01*
Y120527D01*
X192372D01*
Y120549D01*
X192394D01*
Y120594D01*
X192416D01*
Y120771D01*
X192439D01*
Y120948D01*
X192416D01*
Y121081D01*
X192394D01*
Y121148D01*
X192372D01*
Y121192D01*
X192350D01*
Y121236D01*
X192328D01*
Y121258D01*
X192306D01*
Y121303D01*
X192261D01*
Y121347D01*
X192239D01*
Y121369D01*
X192195D01*
Y121391D01*
X192173D01*
Y121414D01*
X192150D01*
Y121436D01*
X192106D01*
Y121458D01*
X192084D01*
Y121480D01*
X192017D01*
Y121502D01*
X191973D01*
Y121525D01*
X191906D01*
Y121547D01*
X191862D01*
Y121569D01*
D02*
G37*
G36*
X188581D02*
X188315D01*
Y121547D01*
X188226D01*
Y121525D01*
X188160D01*
Y121502D01*
X188116D01*
Y121480D01*
X188071D01*
Y121458D01*
X188049D01*
Y121436D01*
X188005D01*
Y121414D01*
X187983D01*
Y121391D01*
X187960D01*
Y121369D01*
X187938D01*
Y121347D01*
X187894D01*
Y121303D01*
X187872D01*
Y121258D01*
X187850D01*
Y121236D01*
X187827D01*
Y121214D01*
X187805D01*
Y121170D01*
X187783D01*
Y121103D01*
X187761D01*
Y121059D01*
X187739D01*
Y120926D01*
X187717D01*
Y120793D01*
X187739D01*
Y120616D01*
X187761D01*
Y120571D01*
X187783D01*
Y120527D01*
X187805D01*
Y120483D01*
X187827D01*
Y120460D01*
X187850D01*
Y120438D01*
X187872D01*
Y120394D01*
X187894D01*
Y120372D01*
X187916D01*
Y120350D01*
X187938D01*
Y120327D01*
X187960D01*
Y120305D01*
X187983D01*
Y120283D01*
X188005D01*
Y120261D01*
X188049D01*
Y120239D01*
X188093D01*
Y120217D01*
X188116D01*
Y120194D01*
X188182D01*
Y120172D01*
X188226D01*
Y120150D01*
X188648D01*
Y120172D01*
X188692D01*
Y120194D01*
X188736D01*
Y120217D01*
X188781D01*
Y120239D01*
X188825D01*
Y120261D01*
X188847D01*
Y120283D01*
X188869D01*
Y120305D01*
X188914D01*
Y120327D01*
X188936D01*
Y120350D01*
X188958D01*
Y120372D01*
X188980D01*
Y120394D01*
X189002D01*
Y120438D01*
X189025D01*
Y120460D01*
X189047D01*
Y120505D01*
X189069D01*
Y120549D01*
X189091D01*
Y120571D01*
X189113D01*
Y120682D01*
X189135D01*
Y120948D01*
X189113D01*
Y121103D01*
X189091D01*
Y121148D01*
X189069D01*
Y121192D01*
X189047D01*
Y121236D01*
X189025D01*
Y121258D01*
X189002D01*
Y121303D01*
X188980D01*
Y121325D01*
X188958D01*
Y121347D01*
X188936D01*
Y121369D01*
X188914D01*
Y121391D01*
X188891D01*
Y121414D01*
X188869D01*
Y121436D01*
X188847D01*
Y121458D01*
X188803D01*
Y121480D01*
X188736D01*
Y121502D01*
X188692D01*
Y121525D01*
X188648D01*
Y121547D01*
X188581D01*
Y121569D01*
D02*
G37*
G36*
X199777Y116381D02*
X199178D01*
Y116359D01*
X199156D01*
Y115938D01*
Y115916D01*
Y115472D01*
X199178D01*
Y115450D01*
X199200D01*
Y115428D01*
X199244D01*
Y115450D01*
X199466D01*
Y115428D01*
X199511D01*
Y115450D01*
X199710D01*
Y115472D01*
X199799D01*
Y115495D01*
X199843D01*
Y115517D01*
X199887D01*
Y115539D01*
X199910D01*
Y115561D01*
X199932D01*
Y115583D01*
X199954D01*
Y115628D01*
X199976D01*
Y115694D01*
X199998D01*
Y115761D01*
X200021D01*
Y116160D01*
X199998D01*
Y116204D01*
X199976D01*
Y116248D01*
X199954D01*
Y116270D01*
X199932D01*
Y116293D01*
X199910D01*
Y116315D01*
X199887D01*
Y116337D01*
X199843D01*
Y116359D01*
X199777D01*
Y116381D01*
D02*
G37*
G36*
X184369Y116027D02*
X184325D01*
Y115849D01*
X184302D01*
Y115783D01*
X184280D01*
Y115650D01*
X184258D01*
Y115561D01*
X184236D01*
Y115495D01*
X184214D01*
Y115361D01*
X184192D01*
Y115295D01*
X184169D01*
Y115162D01*
X184147D01*
Y115073D01*
X184125D01*
Y114985D01*
X184613D01*
Y115051D01*
X184591D01*
Y115184D01*
X184569D01*
Y115251D01*
X184546D01*
Y115361D01*
X184524D01*
Y115450D01*
X184502D01*
Y115539D01*
X184480D01*
Y115650D01*
X184458D01*
Y115716D01*
X184435D01*
Y115849D01*
X184413D01*
Y115916D01*
X184391D01*
Y116004D01*
X184369D01*
Y116027D01*
D02*
G37*
G36*
X192328Y111726D02*
X191707D01*
Y111704D01*
X191685D01*
Y111482D01*
Y111460D01*
Y110640D01*
X191751D01*
Y110617D01*
X192283D01*
Y110640D01*
X192394D01*
Y110662D01*
X192439D01*
Y110684D01*
X192483D01*
Y110706D01*
X192505D01*
Y110728D01*
X192527D01*
Y110750D01*
X192572D01*
Y110795D01*
X192594D01*
Y110817D01*
X192616D01*
Y110861D01*
X192638D01*
Y110883D01*
X192660D01*
Y110950D01*
X192683D01*
Y111038D01*
X192705D01*
Y111305D01*
X192683D01*
Y111415D01*
X192660D01*
Y111460D01*
X192638D01*
Y111504D01*
X192616D01*
Y111548D01*
X192594D01*
Y111571D01*
X192572D01*
Y111593D01*
X192550D01*
Y111615D01*
X192527D01*
Y111637D01*
X192483D01*
Y111659D01*
X192461D01*
Y111681D01*
X192416D01*
Y111704D01*
X192328D01*
Y111726D01*
D02*
G37*
G36*
X187162Y110373D02*
X187118D01*
Y110351D01*
X186697D01*
Y110329D01*
X186653D01*
Y110307D01*
X186586D01*
Y110285D01*
X186564D01*
Y110263D01*
X186519D01*
Y110240D01*
X186497D01*
Y110218D01*
X186475D01*
Y110196D01*
X186453D01*
Y110152D01*
X186431D01*
Y110107D01*
X186409D01*
Y110019D01*
X186386D01*
Y109864D01*
X186409D01*
Y109797D01*
X186431D01*
Y109753D01*
X186453D01*
Y109708D01*
X186475D01*
Y109686D01*
X186497D01*
Y109664D01*
X186519D01*
Y109642D01*
X186542D01*
Y109620D01*
X186608D01*
Y109598D01*
X186653D01*
Y109575D01*
X186852D01*
Y109598D01*
X186896D01*
Y109620D01*
X186963D01*
Y109642D01*
X186985D01*
Y109664D01*
X187029D01*
Y109686D01*
X187051D01*
Y109708D01*
X187074D01*
Y109731D01*
X187096D01*
Y109753D01*
X187118D01*
Y109775D01*
X187140D01*
Y109797D01*
X187162D01*
Y109819D01*
X187185D01*
Y109864D01*
X187207D01*
Y109908D01*
X187229D01*
Y110307D01*
X187251D01*
Y110329D01*
X187229D01*
Y110351D01*
X187162D01*
Y110373D01*
D02*
G37*
G36*
X185433Y111726D02*
X184768D01*
Y110640D01*
X184812D01*
Y110617D01*
X185345D01*
Y110640D01*
X185477D01*
Y110662D01*
X185522D01*
Y110684D01*
X185588D01*
Y110706D01*
X185610D01*
Y110728D01*
X185633D01*
Y110750D01*
X185655D01*
Y110773D01*
X185677D01*
Y110795D01*
X185699D01*
Y110839D01*
X185721D01*
Y110861D01*
X185743D01*
Y110906D01*
X185766D01*
Y110994D01*
X185788D01*
Y111172D01*
X185810D01*
Y111194D01*
X185788D01*
Y111349D01*
X185766D01*
Y111415D01*
X185743D01*
Y111482D01*
X185721D01*
Y111526D01*
X185699D01*
Y111548D01*
X185677D01*
Y111571D01*
X185655D01*
Y111593D01*
X185633D01*
Y111615D01*
X185610D01*
Y111637D01*
X185588D01*
Y111659D01*
X185544D01*
Y111681D01*
X185500D01*
Y111704D01*
X185433D01*
Y111726D01*
D02*
G37*
G36*
X183859Y110373D02*
X183837D01*
Y110351D01*
X183371D01*
Y110329D01*
X183327D01*
Y110307D01*
X183283D01*
Y110285D01*
X183238D01*
Y110263D01*
X183216D01*
Y110240D01*
X183194D01*
Y110218D01*
X183172D01*
Y110196D01*
X183150D01*
Y110174D01*
X183128D01*
Y110130D01*
X183105D01*
Y110063D01*
X183083D01*
Y109819D01*
X183105D01*
Y109775D01*
X183128D01*
Y109731D01*
X183150D01*
Y109708D01*
X183172D01*
Y109664D01*
X183216D01*
Y109642D01*
X183238D01*
Y109620D01*
X183283D01*
Y109598D01*
X183327D01*
Y109575D01*
X183527D01*
Y109598D01*
X183593D01*
Y109620D01*
X183660D01*
Y109642D01*
X183682D01*
Y109664D01*
X183726D01*
Y109686D01*
X183748D01*
Y109708D01*
X183771D01*
Y109731D01*
X183793D01*
Y109753D01*
X183815D01*
Y109775D01*
X183837D01*
Y109819D01*
X183859D01*
Y109864D01*
X183881D01*
Y109886D01*
X183904D01*
Y109952D01*
X183926D01*
Y110351D01*
X183859D01*
Y110373D01*
D02*
G37*
G36*
X178694Y111615D02*
X178649D01*
Y111593D01*
X178627D01*
Y111526D01*
X178605D01*
Y111460D01*
X178583D01*
Y111371D01*
X178561D01*
Y111305D01*
X178539D01*
Y111238D01*
X178516D01*
Y111149D01*
X178494D01*
Y111083D01*
X178472D01*
Y110994D01*
X178450D01*
Y110972D01*
Y110950D01*
Y110928D01*
X178428D01*
Y110861D01*
X178405D01*
Y110773D01*
X178383D01*
Y110706D01*
X178361D01*
Y110640D01*
X178339D01*
Y110573D01*
X178317D01*
Y110484D01*
X178295D01*
Y110418D01*
X178272D01*
Y110351D01*
X178250D01*
Y110329D01*
X178272D01*
Y110307D01*
X179048D01*
Y110329D01*
X179071D01*
Y110373D01*
X179048D01*
Y110440D01*
X179026D01*
Y110506D01*
X179004D01*
Y110595D01*
X178982D01*
Y110662D01*
X178960D01*
Y110728D01*
X178938D01*
Y110817D01*
X178915D01*
Y110883D01*
X178893D01*
Y110972D01*
X178871D01*
Y111038D01*
X178849D01*
Y111105D01*
X178827D01*
Y111172D01*
X178805D01*
Y111260D01*
X178782D01*
Y111327D01*
X178760D01*
Y111393D01*
X178738D01*
Y111482D01*
X178716D01*
Y111548D01*
X178694D01*
Y111615D01*
D02*
G37*
G36*
X197249Y111149D02*
X197005D01*
Y111127D01*
X196961D01*
Y111105D01*
X196917D01*
Y111083D01*
X196895D01*
Y111061D01*
X196850D01*
Y111038D01*
X196828D01*
Y111016D01*
X196806D01*
Y110972D01*
X196784D01*
Y110950D01*
X196762D01*
Y110928D01*
X196739D01*
Y110883D01*
X196717D01*
Y110839D01*
X196695D01*
Y110795D01*
X196673D01*
Y110706D01*
X196651D01*
Y110617D01*
X196629D01*
Y110085D01*
X196651D01*
Y109997D01*
X196673D01*
Y109930D01*
X196695D01*
Y109886D01*
X196717D01*
Y109841D01*
X196739D01*
Y109797D01*
X196762D01*
Y109775D01*
X196784D01*
Y109731D01*
X196806D01*
Y109708D01*
X196828D01*
Y109686D01*
X196850D01*
Y109664D01*
X196872D01*
Y109642D01*
X196917D01*
Y109620D01*
X196961D01*
Y109598D01*
X197005D01*
Y109575D01*
X197249D01*
Y109598D01*
X197294D01*
Y109620D01*
X197360D01*
Y109642D01*
X197382D01*
Y109664D01*
X197405D01*
Y109686D01*
X197427D01*
Y109708D01*
X197449D01*
Y109731D01*
X197471D01*
Y109753D01*
X197493D01*
Y109797D01*
X197515D01*
Y109841D01*
X197538D01*
Y109864D01*
X197560D01*
Y109930D01*
X197582D01*
Y109997D01*
X197604D01*
Y110085D01*
X197626D01*
Y110640D01*
X197604D01*
Y110728D01*
X197582D01*
Y110795D01*
X197560D01*
Y110839D01*
X197538D01*
Y110883D01*
X197515D01*
Y110928D01*
X197493D01*
Y110972D01*
X197471D01*
Y110994D01*
X197449D01*
Y111016D01*
X197427D01*
Y111038D01*
X197405D01*
Y111061D01*
X197382D01*
Y111083D01*
X197338D01*
Y111105D01*
X197294D01*
Y111127D01*
X197249D01*
Y111149D01*
D02*
G37*
G36*
X195653D02*
X195431D01*
Y111127D01*
X195387D01*
Y111105D01*
X195343D01*
Y111083D01*
X195298D01*
Y111061D01*
X195276D01*
Y111038D01*
X195254D01*
Y111016D01*
X195232D01*
Y110994D01*
X195210D01*
Y110950D01*
X195188D01*
Y110928D01*
X195165D01*
Y110883D01*
X195143D01*
Y110839D01*
X195121D01*
Y110041D01*
Y110019D01*
Y109864D01*
X195143D01*
Y109819D01*
X195165D01*
Y109797D01*
X195188D01*
Y109753D01*
X195210D01*
Y109731D01*
X195232D01*
Y109708D01*
X195254D01*
Y109686D01*
X195276D01*
Y109664D01*
X195298D01*
Y109642D01*
X195321D01*
Y109620D01*
X195387D01*
Y109598D01*
X195431D01*
Y109575D01*
X195653D01*
Y109598D01*
X195697D01*
Y109620D01*
X195764D01*
Y109642D01*
X195786D01*
Y109664D01*
X195808D01*
Y109686D01*
X195831D01*
Y109708D01*
X195853D01*
Y109731D01*
X195875D01*
Y109775D01*
X195897D01*
Y109819D01*
X195919D01*
Y109886D01*
X195941D01*
Y109930D01*
X195964D01*
Y110041D01*
X195986D01*
Y110240D01*
X196008D01*
Y110506D01*
X195986D01*
Y110684D01*
X195964D01*
Y110795D01*
X195941D01*
Y110861D01*
X195919D01*
Y110906D01*
X195897D01*
Y110950D01*
X195875D01*
Y110994D01*
X195853D01*
Y111016D01*
X195831D01*
Y111038D01*
X195808D01*
Y111061D01*
X195786D01*
Y111083D01*
X195764D01*
Y111105D01*
X195697D01*
Y111127D01*
X195653D01*
Y111149D01*
D02*
G37*
G36*
X194035D02*
X193791D01*
Y111127D01*
X193747D01*
Y111105D01*
X193702D01*
Y111083D01*
X193658D01*
Y111061D01*
X193636D01*
Y111038D01*
X193614D01*
Y111016D01*
X193591D01*
Y110994D01*
X193569D01*
Y110950D01*
X193547D01*
Y110928D01*
X193525D01*
Y110883D01*
X193503D01*
Y110861D01*
X193481D01*
Y110795D01*
X193458D01*
Y110728D01*
X193436D01*
Y110640D01*
X193414D01*
Y110085D01*
X193436D01*
Y109974D01*
X193458D01*
Y109930D01*
X193481D01*
Y109864D01*
X193503D01*
Y109819D01*
X193525D01*
Y109797D01*
X193547D01*
Y109753D01*
X193569D01*
Y109731D01*
X193591D01*
Y109708D01*
X193614D01*
Y109686D01*
X193636D01*
Y109664D01*
X193658D01*
Y109642D01*
X193680D01*
Y109620D01*
X193747D01*
Y109598D01*
X193791D01*
Y109575D01*
X194035D01*
Y109598D01*
X194079D01*
Y109620D01*
X194123D01*
Y109642D01*
X194168D01*
Y109664D01*
X194190D01*
Y109686D01*
X194212D01*
Y109708D01*
X194234D01*
Y109731D01*
X194256D01*
Y109775D01*
X194279D01*
Y109797D01*
X194301D01*
Y109841D01*
X194323D01*
Y109886D01*
X194345D01*
Y109930D01*
X194367D01*
Y109997D01*
X194389D01*
Y110107D01*
X194412D01*
Y110617D01*
X194389D01*
Y110728D01*
X194367D01*
Y110773D01*
X194345D01*
Y110839D01*
X194323D01*
Y110883D01*
X194301D01*
Y110928D01*
X194279D01*
Y110950D01*
X194256D01*
Y110994D01*
X194234D01*
Y111016D01*
X194212D01*
Y111038D01*
X194190D01*
Y111061D01*
X194146D01*
Y111083D01*
X194123D01*
Y111105D01*
X194079D01*
Y111127D01*
X194035D01*
Y111149D01*
D02*
G37*
G36*
X180467D02*
X180246D01*
Y111127D01*
X180201D01*
Y111105D01*
X180157D01*
Y111083D01*
X180113D01*
Y111061D01*
X180090D01*
Y111038D01*
X180068D01*
Y110994D01*
X180046D01*
Y110972D01*
X180024D01*
Y110928D01*
X180002D01*
Y110906D01*
X179980D01*
Y110839D01*
X179957D01*
Y110773D01*
X179935D01*
Y110684D01*
X179913D01*
Y110019D01*
X179935D01*
Y109952D01*
X179957D01*
Y109864D01*
X179980D01*
Y109819D01*
X180002D01*
Y109775D01*
X180024D01*
Y109753D01*
X180046D01*
Y109708D01*
X180068D01*
Y109686D01*
X180090D01*
Y109664D01*
X180113D01*
Y109642D01*
X180135D01*
Y109620D01*
X180179D01*
Y109598D01*
X180223D01*
Y109575D01*
X180489D01*
Y109598D01*
X180534D01*
Y109620D01*
X180578D01*
Y109642D01*
X180600D01*
Y109664D01*
X180645D01*
Y109686D01*
X180667D01*
Y109708D01*
X180689D01*
Y109731D01*
X180711D01*
Y109775D01*
X180733D01*
Y109819D01*
X180755D01*
Y109841D01*
X180778D01*
Y110839D01*
X180755D01*
Y110906D01*
X180733D01*
Y110928D01*
X180711D01*
Y110972D01*
X180689D01*
Y110994D01*
X180667D01*
Y111016D01*
X180645D01*
Y111038D01*
X180622D01*
Y111061D01*
X180600D01*
Y111083D01*
X180578D01*
Y111105D01*
X180512D01*
Y111127D01*
X180467D01*
Y111149D01*
D02*
G37*
%LPD*%
D10*
X268476Y162750D02*
X271524D01*
X268476Y156250D02*
X271524D01*
X316453Y136122D02*
Y138878D01*
X310547Y136122D02*
Y138878D01*
X286453Y136122D02*
Y138878D01*
X280547Y136122D02*
Y138878D01*
X256453Y136122D02*
Y138878D01*
X250547Y136122D02*
Y138878D01*
X302524Y202594D02*
X305476D01*
X302524Y209405D02*
X305476D01*
X120516Y129274D02*
Y132726D01*
X113484Y129274D02*
Y132726D01*
X316158Y110031D02*
Y113969D01*
X310842Y110031D02*
Y113969D01*
X280055Y110235D02*
Y113765D01*
X286945Y110235D02*
Y113765D01*
X256272Y109646D02*
Y114354D01*
X249728Y109646D02*
Y114354D01*
D11*
X310547Y127854D02*
X316453D01*
X280547D02*
X286453D01*
X250547D02*
X256453D01*
D12*
X266699Y173298D02*
X262700D01*
Y170299D01*
X264699D01*
X262700D01*
Y167300D01*
X272697D02*
X268698D01*
X272697Y171299D01*
Y172298D01*
X271697Y173298D01*
X269698D01*
X268698Y172298D01*
X141000Y207999D02*
Y213997D01*
X143999D01*
X144999Y212998D01*
Y210998D01*
X143999Y209999D01*
X141000D01*
X142999D02*
X144999Y207999D01*
X149997D02*
X147998D01*
X146998Y208999D01*
Y210998D01*
X147998Y211998D01*
X149997D01*
X150997Y210998D01*
Y209999D01*
X146998D01*
X154996Y206000D02*
X155995D01*
X156995Y207000D01*
Y211998D01*
X153996D01*
X152996Y210998D01*
Y208999D01*
X153996Y207999D01*
X156995D01*
X158994Y211998D02*
Y208999D01*
X159994Y207999D01*
X162993D01*
Y211998D01*
X164992Y207999D02*
X166992D01*
X165992D01*
Y213997D01*
X164992D01*
X170990Y211998D02*
X172990D01*
X173989Y210998D01*
Y207999D01*
X170990D01*
X169991Y208999D01*
X170990Y209999D01*
X173989D01*
X176988Y212998D02*
Y211998D01*
X175989D01*
X177988D01*
X176988D01*
Y208999D01*
X177988Y207999D01*
X181987D02*
X183986D01*
X184986Y208999D01*
Y210998D01*
X183986Y211998D01*
X181987D01*
X180987Y210998D01*
Y208999D01*
X181987Y207999D01*
X186985Y211998D02*
Y207999D01*
Y209999D01*
X187985Y210998D01*
X188985Y211998D01*
X189984D01*
X202980Y212998D02*
X201980Y213997D01*
X199981D01*
X198981Y212998D01*
Y208999D01*
X199981Y207999D01*
X201980D01*
X202980Y208999D01*
X205979Y211998D02*
X207978D01*
X208978Y210998D01*
Y207999D01*
X205979D01*
X204979Y208999D01*
X205979Y209999D01*
X208978D01*
X210977Y211998D02*
Y207999D01*
Y209999D01*
X211977Y210998D01*
X212977Y211998D01*
X213976D01*
X216975Y207999D02*
X219974D01*
X220974Y208999D01*
X219974Y209999D01*
X217975D01*
X216975Y210998D01*
X217975Y211998D01*
X220974D01*
X225973Y207999D02*
X223973D01*
X222973Y208999D01*
Y210998D01*
X223973Y211998D01*
X225973D01*
X226972Y210998D01*
Y209999D01*
X222973D01*
X229971Y211998D02*
X231971D01*
X232970Y210998D01*
Y207999D01*
X229971D01*
X228972Y208999D01*
X229971Y209999D01*
X232970D01*
X235969Y212998D02*
Y211998D01*
X234970D01*
X236969D01*
X235969D01*
Y208999D01*
X236969Y207999D01*
X107500Y192999D02*
X105501D01*
X106500D01*
Y188001D01*
X105501Y187001D01*
X104501D01*
X103501Y188001D01*
X109499Y187001D02*
X111499D01*
X110499D01*
Y192999D01*
X109499Y191999D01*
X141000Y196000D02*
Y201998D01*
X143999D01*
X144999Y200998D01*
Y198999D01*
X143999Y197999D01*
X141000D01*
X142999D02*
X144999Y196000D01*
X149997D02*
X147998D01*
X146998Y197000D01*
Y198999D01*
X147998Y199999D01*
X149997D01*
X150997Y198999D01*
Y197999D01*
X146998D01*
X152996Y199999D02*
X154996Y196000D01*
X156995Y199999D01*
X164992Y196000D02*
X166992D01*
X165992D01*
Y201998D01*
X164992Y200998D01*
X169991Y196000D02*
Y197000D01*
X170990D01*
Y196000D01*
X169991D01*
X174989Y200998D02*
X175989Y201998D01*
X177988D01*
X178988Y200998D01*
Y197000D01*
X177988Y196000D01*
X175989D01*
X174989Y197000D01*
Y200998D01*
X117099Y149498D02*
X113100D01*
Y146499D01*
X115099D01*
X113100D01*
Y143500D01*
X119098D02*
X121097D01*
X120098D01*
Y149498D01*
X119098Y148498D01*
X263000Y212999D02*
X261001D01*
X262001D01*
Y208001D01*
X261001Y207001D01*
X260001D01*
X259002Y208001D01*
X265000Y211999D02*
X265999Y212999D01*
X267999D01*
X268998Y211999D01*
Y211000D01*
X267999Y210000D01*
X266999D01*
X267999D01*
X268998Y209000D01*
Y208001D01*
X267999Y207001D01*
X265999D01*
X265000Y208001D01*
X239000Y200999D02*
X237001D01*
X238001D01*
Y196001D01*
X237001Y195001D01*
X236001D01*
X235002Y196001D01*
X244998Y195001D02*
X241000D01*
X244998Y199000D01*
Y199999D01*
X243999Y200999D01*
X241999D01*
X241000Y199999D01*
X321002Y144999D02*
Y139001D01*
X324001D01*
X325000Y140001D01*
Y143999D01*
X324001Y144999D01*
X321002D01*
X327000Y143999D02*
X327999Y144999D01*
X329999D01*
X330998Y143999D01*
Y143000D01*
X329999Y142000D01*
X328999D01*
X329999D01*
X330998Y141000D01*
Y140001D01*
X329999Y139001D01*
X327999D01*
X327000Y140001D01*
X291002Y144999D02*
Y139001D01*
X294001D01*
X295000Y140001D01*
Y143999D01*
X294001Y144999D01*
X291002D01*
X300998Y139001D02*
X297000D01*
X300998Y143000D01*
Y143999D01*
X299999Y144999D01*
X297999D01*
X297000Y143999D01*
X260001Y144999D02*
Y139001D01*
X263000D01*
X264000Y140001D01*
Y143999D01*
X263000Y144999D01*
X260001D01*
X265999Y139001D02*
X267999D01*
X266999D01*
Y144999D01*
X265999Y143999D01*
X260001Y113001D02*
Y118999D01*
X263000D01*
X264000Y117999D01*
Y116000D01*
X263000Y115000D01*
X260001D01*
X262001D02*
X264000Y113001D01*
X265999D02*
X267999D01*
X266999D01*
Y118999D01*
X265999Y117999D01*
X291002Y113001D02*
Y118999D01*
X294001D01*
X295000Y117999D01*
Y116000D01*
X294001Y115000D01*
X291002D01*
X293001D02*
X295000Y113001D01*
X300998D02*
X297000D01*
X300998Y117000D01*
Y117999D01*
X299999Y118999D01*
X297999D01*
X297000Y117999D01*
X321002Y113001D02*
Y118999D01*
X324001D01*
X325000Y117999D01*
Y116000D01*
X324001Y115000D01*
X321002D01*
X323001D02*
X325000Y113001D01*
X327000Y117999D02*
X327999Y118999D01*
X329999D01*
X330998Y117999D01*
Y117000D01*
X329999Y116000D01*
X328999D01*
X329999D01*
X330998Y115000D01*
Y114001D01*
X329999Y113001D01*
X327999D01*
X327000Y114001D01*
X303000Y198999D02*
X299002D01*
Y196000D01*
X301001D01*
X299002D01*
Y193001D01*
X305000Y197999D02*
X305999Y198999D01*
X307999D01*
X308998Y197999D01*
Y197000D01*
X307999Y196000D01*
X306999D01*
X307999D01*
X308998Y195000D01*
Y194001D01*
X307999Y193001D01*
X305999D01*
X305000Y194001D01*
M02*
